<svg width="1440" height="752" viewBox="0 0 1440 752" fill="none" xmlns="http://www.w3.org/2000/svg">
<circle cx="723.282" cy="409.646" r="142.747" fill="#DDEFF9" fill-opacity="0.5"/>
<path fill-rule="evenodd" clip-rule="evenodd" d="M723.282 305.917C705.676 305.917 696.635 316.861 696.635 338.273L715.668 461.987C715.668 467.697 720.427 469.6 723.282 469.6C726.137 469.6 730.895 467.697 730.895 461.987L749.928 338.273C749.928 316.385 739.46 305.917 723.282 305.917ZM723.282 514.327C729.589 514.327 734.701 509.214 734.701 502.907C734.701 496.6 729.589 491.488 723.282 491.488C716.975 491.488 711.862 496.6 711.862 502.907C711.862 509.214 716.975 514.327 723.282 514.327Z" fill="#79B5E3"/>
<rect x="544.354" y="500.02" width="91.358" height="53.2922" rx="8" transform="rotate(-30 544.354 500.02)" fill="#E5DFED"/>
<path d="M548.222 506.948C546.013 503.122 547.324 498.229 551.15 496.02L616.412 458.341C620.239 456.132 625.131 457.443 627.341 461.269L636.664 477.417L557.545 523.096L548.222 506.948Z" fill="#F0E4F0"/>
<path d="M545.134 543.405C544.178 543.958 542.955 543.63 542.402 542.673L532.983 526.358C532.43 525.401 532.758 524.178 533.715 523.626L551.762 513.206L563.182 532.986L545.134 543.405Z" fill="#E5DFED"/>
<path fill-rule="evenodd" clip-rule="evenodd" d="M671.528 477.026L654.398 447.356L628.026 462.583L645.155 492.252L671.528 477.026ZM656.336 458.326L659.191 463.271L650.125 468.505L647.27 463.56L656.336 458.326ZM652.529 451.733L655.384 456.678L646.318 461.912L643.464 456.967L652.529 451.733ZM662.998 469.864L660.143 464.919L651.077 470.153L653.932 475.098L662.998 469.864ZM663.949 471.512L666.804 476.457L657.738 481.691L654.884 476.746L663.949 471.512Z" fill="#E5DFED"/>
<path d="M535.807 532.802C505.828 552.057 491.017 570.743 479.053 604.406C460.705 656.032 522.058 691.02 503.571 742.596C471.513 832.033 336.733 848.614 265.202 786.38C210.44 738.735 209.711 675.486 225.247 604.406C240.897 532.798 312.705 523.753 338.756 455.269C365.838 384.074 384.239 329.266 351.469 260.525C304.023 161 164.123 90.0529 85.8577 167.486C47.8987 205.041 -62 368 -62 368" stroke="#E5DFED" stroke-width="8"/>
<rect x="807.484" y="351.271" width="125.617" height="53.2922" rx="8" transform="rotate(-30 807.484 351.271)" fill="#E5DFED"/>
<path d="M811.484 358.199C809.275 354.373 810.586 349.48 814.412 347.271L909.343 292.462C913.17 290.253 918.062 291.564 920.272 295.39L929.595 311.538L820.807 374.347L811.484 358.199Z" fill="#F0E4F0"/>
<path d="M941.941 291.298C942.898 290.746 944.121 291.073 944.673 292.03L954.093 308.345C954.645 309.302 954.317 310.525 953.361 311.077L935.313 321.497L923.894 301.718L941.941 291.298Z" fill="#E5DFED"/>
<path d="M774.657 401.033C772.292 396.937 773.695 391.699 777.792 389.334L816.527 366.97L825.091 381.805L786.356 404.168C782.26 406.533 777.022 405.13 774.657 401.033Z" fill="#E5DFED"/>
<path fill-rule="evenodd" clip-rule="evenodd" d="M871.176 316.992C870.071 315.079 867.625 314.424 865.712 315.528L826.488 338.174C824.575 339.279 823.919 341.725 825.024 343.638L849.573 386.159C850.678 388.072 853.124 388.728 855.037 387.623L894.261 364.977C896.174 363.873 896.83 361.426 895.725 359.513L871.176 316.992ZM880.366 343.694C881.125 343.256 882.095 343.516 882.533 344.275C882.971 345.033 882.711 346.003 881.952 346.441L845.14 367.695C844.382 368.133 843.412 367.873 842.974 367.114C842.536 366.356 842.796 365.386 843.554 364.948L880.366 343.694ZM866.092 318.97C866.85 318.532 867.82 318.792 868.258 319.55C868.696 320.309 868.436 321.279 867.678 321.717L830.866 342.97C830.107 343.408 829.137 343.149 828.699 342.39C828.261 341.631 828.521 340.661 829.28 340.223L866.092 318.97ZM870.85 327.213C871.609 326.775 872.579 327.035 873.017 327.793C873.455 328.552 873.195 329.522 872.436 329.96L835.624 351.213C834.866 351.651 833.896 351.391 833.458 350.633C833.02 349.874 833.28 348.904 834.038 348.466L870.85 327.213ZM877.775 336.034C877.337 335.275 876.367 335.015 875.608 335.453L838.796 356.707C838.038 357.145 837.778 358.115 838.216 358.873C838.654 359.632 839.624 359.892 840.382 359.454L877.194 338.201C877.953 337.763 878.213 336.793 877.775 336.034ZM887.292 352.518C886.854 351.76 885.884 351.5 885.125 351.938L848.313 373.191C847.555 373.629 847.295 374.599 847.733 375.358C848.171 376.117 849.141 376.376 849.899 375.938L886.711 354.685C887.47 354.247 887.73 353.277 887.292 352.518ZM889.883 360.179C890.642 359.741 891.612 360.001 892.05 360.759C892.488 361.518 892.228 362.488 891.469 362.926L854.657 384.179C853.898 384.617 852.928 384.357 852.49 383.599C852.052 382.84 852.312 381.87 853.071 381.432L889.883 360.179Z" fill="#E5DFED"/>
<path d="M948.822 299.254C967.379 288.786 986.088 296.008 1000.69 280.697C1034.28 245.466 917.792 202.346 950.725 166.499C968.098 147.589 990.347 157.548 1013.06 145.563C1069.29 115.888 1053.84 36.3063 1114.88 18.5184C1174.97 1.01079 1223.72 23.4216 1267.15 68.4798C1359.15 163.927 1090.89 206.823 1056.83 334.941C1025.1 454.311 1038.09 539.061 1094.42 648.984C1131.99 722.292 1149.1 808.125 1231.46 809.336C1340.49 810.939 1229.49 634.741 1267.15 532.407C1294.91 456.961 1329.25 423.391 1368.97 353.498C1410.46 280.498 1475.08 166.499 1475.08 166.499" stroke="#E5DFED" stroke-width="8"/>
<rect x="544.354" y="491.454" width="91.358" height="53.2922" rx="8" transform="rotate(-30 544.354 491.454)" fill="#DDEFF9"/>
<path d="M548.222 498.382C546.013 494.556 547.324 489.663 551.15 487.454L616.412 449.775C620.239 447.566 625.131 448.877 627.341 452.703L636.664 468.851L557.545 514.53L548.222 498.382Z" fill="#C9DDEA"/>
<path d="M545.134 534.84C544.178 535.392 542.955 535.065 542.402 534.108L532.983 517.793C532.43 516.836 532.758 515.613 533.715 515.06L551.762 504.641L563.182 524.42L545.134 534.84Z" fill="#79B5E3"/>
<path fill-rule="evenodd" clip-rule="evenodd" d="M671.528 468.459L654.398 438.79L628.026 454.016L645.155 483.686L671.528 468.459ZM652.529 443.165L655.384 448.109L646.319 453.344L643.464 448.399L652.529 443.165ZM656.336 449.758L659.191 454.703L650.125 459.937L647.27 454.992L656.336 449.758ZM662.997 461.296L660.143 456.351L651.077 461.585L653.932 466.53L662.997 461.296ZM663.949 462.944L666.804 467.889L657.738 473.123L654.883 468.178L663.949 462.944Z" fill="#79B5E3"/>
<path d="M535.807 524.237C505.828 543.492 491.017 562.178 479.053 595.841C460.705 647.467 522.058 682.456 503.571 734.032C471.513 823.468 336.733 840.049 265.202 777.815C210.44 730.17 209.711 666.921 225.247 595.841C240.897 524.234 312.705 515.188 338.756 446.704C365.838 375.509 384.239 320.701 351.469 251.96C304.023 152.436 164.123 81.4881 85.8577 158.921C47.8987 196.476 -62 355 -62 355" stroke="#79B5E3" stroke-width="8"/>
<rect x="807.484" y="342.708" width="125.617" height="53.2922" rx="8" transform="rotate(-30 807.484 342.708)" fill="#DDEFF9"/>
<path d="M811.484 349.636C809.275 345.81 810.586 340.917 814.412 338.708L909.343 283.899C913.17 281.69 918.062 283.001 920.272 286.827L929.595 302.975L820.807 365.784L811.484 349.636Z" fill="#C9DDEA"/>
<path d="M941.941 282.735C942.898 282.183 944.121 282.51 944.673 283.467L954.093 299.782C954.645 300.739 954.317 301.962 953.361 302.514L935.313 312.934L923.894 293.155L941.941 282.735Z" fill="#79B5E3"/>
<path d="M774.657 392.47C772.292 388.374 773.695 383.136 777.792 380.771L816.527 358.407L825.092 373.242L786.357 395.605C782.26 397.97 777.022 396.567 774.657 392.47Z" fill="#79B5E3"/>
<path fill-rule="evenodd" clip-rule="evenodd" d="M871.176 308.428C870.072 306.515 867.625 305.859 865.712 306.964L826.488 329.61C824.575 330.714 823.919 333.161 825.024 335.074L849.573 377.595C850.678 379.508 853.124 380.163 855.037 379.059L894.262 356.413C896.175 355.308 896.83 352.862 895.726 350.949L871.176 308.428ZM880.367 335.13C881.125 334.692 882.095 334.952 882.533 335.71C882.971 336.469 882.711 337.439 881.953 337.877L845.141 359.13C844.382 359.568 843.412 359.308 842.974 358.55C842.536 357.791 842.796 356.821 843.555 356.383L880.367 335.13ZM866.092 310.406C866.85 309.968 867.821 310.227 868.258 310.986C868.696 311.745 868.437 312.715 867.678 313.153L830.866 334.406C830.107 334.844 829.137 334.584 828.699 333.826C828.261 333.067 828.521 332.097 829.28 331.659L866.092 310.406ZM870.851 318.648C871.609 318.21 872.579 318.47 873.017 319.229C873.455 319.987 873.195 320.957 872.437 321.395L835.625 342.649C834.866 343.087 833.896 342.827 833.458 342.068C833.02 341.31 833.28 340.34 834.039 339.902L870.851 318.648ZM877.775 327.47C877.337 326.711 876.367 326.451 875.609 326.889L838.796 348.142C838.038 348.58 837.778 349.55 838.216 350.309C838.654 351.068 839.624 351.328 840.383 350.89L877.195 329.636C877.953 329.198 878.213 328.228 877.775 327.47ZM887.292 343.954C886.854 343.195 885.884 342.935 885.125 343.373L848.313 364.627C847.555 365.065 847.295 366.035 847.733 366.793C848.171 367.552 849.141 367.812 849.899 367.374L886.711 346.121C887.47 345.683 887.73 344.713 887.292 343.954ZM889.883 351.614C890.642 351.176 891.612 351.436 892.05 352.195C892.488 352.953 892.228 353.923 891.469 354.361L854.657 375.615C853.899 376.053 852.929 375.793 852.491 375.034C852.053 374.276 852.313 373.306 853.071 372.868L889.883 351.614Z" fill="#79B5E3"/>
<path d="M948.822 290.691C967.379 280.223 986.088 287.445 1000.69 272.134C1034.28 236.903 917.792 193.783 950.725 157.936C968.098 139.026 990.347 148.985 1013.06 137C1069.29 107.325 1053.84 27.7433 1114.88 9.95543C1174.97 -7.55222 1223.72 14.8586 1267.15 59.9168C1359.15 155.364 1090.89 198.26 1056.83 326.378C1025.1 445.748 1038.09 530.498 1094.42 640.421C1131.99 713.729 1149.1 799.562 1231.46 800.773C1340.49 802.376 1229.49 626.178 1267.15 523.844C1294.91 448.398 1329.25 414.828 1368.97 344.935C1410.46 271.935 1475.08 157.936 1475.08 157.936" stroke="#79B5E3" stroke-width="8"/>
</svg>
