<svg width="768" height="589" viewBox="0 0 768 589" fill="none" xmlns="http://www.w3.org/2000/svg">
<g clip-path="url(#clip0_922_11613)">
<path d="M54.5149 287.759L0.0167236 444.736L232.892 525.597L287.39 368.62L54.5149 287.759Z" fill="#DDEFF9"/>
<path d="M287.372 368.633C287.403 368.709 286.404 369.163 284.484 369.964C282.351 370.826 279.538 371.976 276.029 373.398C268.422 376.377 257.79 380.537 244.753 385.634C218.059 395.844 181.504 409.834 141.017 425.323L140.17 425.655L139.686 424.884C139.308 424.294 138.915 423.644 138.506 423.008C115.215 385.846 94.1322 352.207 78.7208 327.629C71.2646 315.528 65.1696 305.651 60.829 298.588C58.8477 295.276 57.2597 292.629 56.0649 290.632C54.9911 288.802 54.4618 287.819 54.5374 287.773C54.5979 287.728 55.2633 288.636 56.4581 290.39C57.7437 292.341 59.4527 294.913 61.5852 298.119C66.0922 305.092 72.3687 314.833 80.0819 326.782C95.6295 351.284 116.909 384.787 140.427 421.814C140.835 422.449 141.244 423.099 141.607 423.689L140.261 423.235C180.838 407.989 217.469 394.225 244.223 384.167C257.366 379.342 268.074 375.409 275.757 372.596C279.326 371.341 282.185 370.327 284.363 369.556C286.299 368.875 287.342 368.558 287.372 368.633Z" fill="#79B5E3"/>
<path d="M-5.69951e-05 444.743C-0.317662 444.214 24.6673 428.771 55.7926 410.273C86.9331 391.76 112.417 377.194 112.735 377.723C113.052 378.253 88.0674 393.681 56.942 412.194C25.8167 430.707 0.317548 445.273 -5.69951e-05 444.743Z" fill="#79B5E3"/>
<path d="M190.82 402.635C191.41 402.438 201.286 429.8 212.901 463.756C224.517 497.727 233.455 525.407 232.865 525.603C232.275 525.8 222.399 498.438 210.784 464.482C199.184 430.526 190.246 402.831 190.82 402.635Z" fill="#79B5E3"/>
<path d="M741.665 246.956L511.248 286.013L537.572 441.336L767.989 402.28L741.665 246.956Z" fill="#C9DDEA"/>
<path d="M741.684 247.011C741.745 247.056 741.125 247.888 739.884 249.446C738.508 251.14 736.693 253.363 734.425 256.162C729.464 262.106 722.522 270.41 714.022 280.604C696.493 301.28 672.492 329.58 645.919 360.919L645.359 361.585L644.603 361.161C644.028 360.844 643.393 360.496 642.758 360.148C606.445 339.895 573.58 321.563 549.563 308.147C537.842 301.492 528.284 296.062 521.432 292.175C518.271 290.33 515.746 288.862 513.84 287.743C512.116 286.715 511.224 286.14 511.269 286.064C511.299 286.004 512.267 286.442 514.052 287.365C516.018 288.394 518.604 289.755 521.841 291.449C528.768 295.185 538.432 300.418 550.289 306.831C574.397 320.096 607.352 338.231 643.786 358.287C644.421 358.635 645.041 358.983 645.631 359.301L644.315 359.543C671.085 328.355 695.238 300.206 712.903 279.636C721.63 269.623 728.738 261.471 733.82 255.632C736.209 252.955 738.13 250.807 739.582 249.174C740.898 247.707 741.624 246.965 741.684 247.011Z" fill="#DDEFF9"/>
<path d="M537.585 441.386C537.086 441.083 550.803 416.868 568.226 387.283C585.664 357.698 600.199 333.951 600.698 334.253C601.197 334.556 587.479 358.771 570.056 388.372C552.618 417.926 538.084 441.673 537.585 441.386Z" fill="#DDEFF9"/>
<path d="M676.953 319.31C677.346 318.871 698.051 337.112 723.187 360.027C748.339 382.957 768.393 401.894 768 402.317C767.607 402.756 746.902 384.515 721.766 361.585C696.63 338.685 676.56 319.748 676.953 319.31Z" fill="#DDEFF9"/>
<path d="M511.289 0.0217396L469.791 105.574L626.383 167.15L667.882 61.5968L511.289 0.0217396Z" fill="#DDEFF9"/>
<path d="M667.924 63.0421C667.939 63.0875 667.243 63.3749 665.913 63.874C664.43 64.4034 662.479 65.0992 660.044 65.9764C654.766 67.7915 647.416 70.3325 638.372 73.4634C619.875 79.695 594.557 88.2257 566.532 97.679L565.943 97.8756L565.625 97.3311C565.383 96.9227 565.126 96.469 564.869 96.0152C550.002 70.03 536.556 46.5102 526.726 29.3128C521.977 20.8426 518.09 13.9455 515.322 9.01465C514.067 6.70049 513.054 4.8552 512.282 3.46368C511.602 2.17803 511.269 1.49739 511.314 1.46714C511.36 1.43689 511.783 2.07215 512.555 3.2973C513.386 4.65857 514.475 6.45848 515.837 8.71215C518.71 13.5976 522.733 20.404 527.664 28.7683C537.6 45.9052 551.181 69.3494 566.2 95.2589C566.457 95.7127 566.714 96.1513 566.956 96.5748L566.048 96.227C594.149 86.94 619.512 78.5758 638.039 72.45C647.144 69.5157 654.554 67.1259 659.863 65.4168C662.328 64.6605 664.309 64.0404 665.822 63.5866C667.183 63.1934 667.909 62.9967 667.924 63.0421Z" fill="#C9DDEA"/>
<path d="M469.814 107.026C469.617 106.648 487.086 96.8169 508.819 85.0494C530.567 73.2819 548.353 64.0404 548.55 64.4185C548.746 64.7967 531.293 74.6281 509.545 86.3955C487.812 98.163 470.011 107.405 469.814 107.026Z" fill="#C9DDEA"/>
<path d="M601.136 83.5671C601.545 83.4461 607.534 102.383 614.506 125.872C621.493 149.362 626.817 168.496 626.424 168.617C626.015 168.738 620.026 149.801 613.054 126.311C606.052 102.822 600.728 83.6881 601.136 83.5671Z" fill="#C9DDEA"/>
<path d="M206.504 254.089L563.235 251.503L573.172 494.052L203.797 490.634L206.504 254.089Z" fill="#79B5E3"/>
<path d="M206.504 254.089L375.334 117.463C382.488 111.685 392.711 111.715 399.82 117.538L563.235 251.488" fill="#79B5E3"/>
<g opacity="0.3">
<path d="M206.504 254.089L375.334 117.463C382.488 111.685 392.711 111.715 399.82 117.538L563.235 251.488" fill="#00205C"/>
</g>
<path d="M203.797 490.634C203.358 490.21 231.912 459.037 267.575 420.997C303.253 382.942 332.533 352.449 332.971 352.857C333.41 353.281 304.871 384.454 269.178 422.509C233.516 460.534 204.235 491.042 203.797 490.634Z" fill="#00205C"/>
<path d="M573.172 494.052C572.718 494.46 544.905 463.907 511.057 425.822C477.194 387.721 450.137 356.518 450.591 356.109C451.045 355.701 478.858 386.254 512.706 424.355C546.569 462.44 573.641 493.643 573.172 494.052Z" fill="#00205C"/>
<g opacity="0.5">
<path d="M563.235 251.503L384.106 394.618L206.504 254.089" fill="#00205C"/>
</g>
<path d="M224.471 267.339L223.912 155.926L536.284 152.221L539.793 269.457L384.091 392.743L224.471 267.339Z" fill="white"/>
<path d="M224.471 267.339C224.471 267.339 225.485 268.095 227.405 269.578C229.326 271.075 232.17 273.283 235.875 276.172C243.301 281.98 254.19 290.496 268.104 301.386C295.917 323.197 335.83 354.491 384.287 392.471H383.894C428.752 356.941 481.974 314.772 539.566 269.139L539.415 269.457C538.734 247.086 538.039 223.627 537.313 199.744C536.829 183.666 536.36 167.785 535.891 152.221L536.284 152.599C410.407 154.036 299.366 155.291 223.912 156.153L224.154 155.896C224.275 190.957 224.381 218.787 224.441 237.875C224.456 247.419 224.471 254.77 224.486 259.746C224.486 262.227 224.486 264.117 224.486 265.388C224.486 266.689 224.471 267.339 224.471 267.339C224.471 267.339 224.441 266.704 224.426 265.449C224.411 264.178 224.396 262.302 224.365 259.822C224.32 254.846 224.275 247.51 224.184 237.981C224.063 218.878 223.882 191.002 223.655 155.911V155.654H223.912C299.351 154.732 410.391 153.37 536.269 151.827H536.647L536.662 152.206C537.131 167.785 537.615 183.666 538.099 199.729C538.81 223.612 539.521 247.071 540.186 269.442V269.638L540.035 269.759C482.412 315.347 429.16 357.471 384.287 392.985L384.091 393.136L383.894 392.985C335.482 354.869 295.6 323.469 267.802 301.598C253.933 290.662 243.089 282.101 235.709 276.278C232.033 273.374 229.22 271.136 227.315 269.623C225.424 268.126 224.471 267.339 224.471 267.339Z" fill="#00205C"/>
<path d="M486.904 208.32C486.904 208.532 439.127 209.001 380.219 209.364C321.28 209.727 273.519 209.833 273.519 209.621C273.519 209.409 321.28 208.94 380.219 208.577C439.142 208.23 486.904 208.109 486.904 208.32Z" fill="#00205C"/>
<path d="M486.904 239.796C486.904 240.008 439.127 240.477 380.219 240.84C321.28 241.203 273.519 241.309 273.519 241.097C273.519 240.885 321.28 240.416 380.219 240.053C439.142 239.705 486.904 239.584 486.904 239.796Z" fill="#00205C"/>
<path d="M486.904 276.082C486.904 276.293 439.127 276.762 380.219 277.125C321.28 277.488 273.519 277.594 273.519 277.382C273.519 277.171 321.28 276.702 380.219 276.339C439.142 275.976 486.904 275.855 486.904 276.082Z" fill="#00205C"/>
<path d="M486.904 312.352C486.904 312.564 441.335 313.017 385.119 313.365C328.888 313.713 283.319 313.804 283.319 313.592C283.319 313.381 328.888 312.927 385.104 312.579C441.335 312.231 486.904 312.14 486.904 312.352Z" fill="#00205C"/>
<path d="M446.961 344.191C446.961 344.221 446.538 344.251 445.706 344.281C444.814 344.312 443.619 344.342 442.122 344.372C438.93 344.418 434.439 344.493 428.918 344.584C417.711 344.75 402.345 344.962 385.376 345.204C368.362 345.491 352.965 345.582 341.819 345.597C336.299 345.582 331.822 345.567 328.616 345.567C327.118 345.552 325.923 345.522 325.031 345.522C324.214 345.507 323.776 345.476 323.776 345.446C323.776 345.416 324.199 345.386 325.031 345.355C325.923 345.325 327.118 345.295 328.616 345.265C331.807 345.219 336.299 345.144 341.819 345.053C353.026 344.886 368.392 344.675 385.361 344.433C402.361 344.145 417.757 344.055 428.903 344.039C434.424 344.055 438.9 344.07 442.107 344.07C443.604 344.085 444.799 344.115 445.691 344.115C446.523 344.145 446.961 344.16 446.961 344.191Z" fill="#00205C"/>
<path d="M406.747 374.804C406.747 375.016 396.568 375.197 384 375.197C371.432 375.197 361.253 375.016 361.253 374.804C361.253 374.592 371.432 374.411 384 374.411C396.568 374.411 406.747 374.577 406.747 374.804Z" fill="#00205C"/>
<path d="M511.889 350.09C532.729 350.09 549.624 333.194 549.624 312.352C549.624 291.51 532.729 274.614 511.889 274.614C491.049 274.614 474.155 291.51 474.155 312.352C474.155 333.194 491.049 350.09 511.889 350.09Z" fill="#00205C"/>
<path d="M502.058 350.09C522.899 350.09 539.793 333.194 539.793 312.352C539.793 291.51 522.899 274.614 502.058 274.614C481.218 274.614 464.324 291.51 464.324 312.352C464.324 333.194 481.218 350.09 502.058 350.09Z" fill="#009ADE"/>
<path d="M506.868 294.792V326.161H501.045V299.677H494.406V294.792H506.868Z" fill="#E6E7E8"/>
<path d="M226.922 105.03L261.435 105.015L256.776 99.6604V86.8191C256.776 79.8766 251.15 74.25 244.193 74.25C237.251 74.25 231.625 79.8766 231.625 86.8342V99.0554L226.922 105.03Z" fill="#009ADE"/>
<path d="M239.354 103.336C239.429 105.348 240.76 107.253 242.62 108.04C244.481 108.826 246.764 108.418 248.262 107.072C249.759 105.711 250.364 103.472 249.774 101.551" fill="#009ADE"/>
<path d="M246.099 69.0166H242.711V76.2162H246.099V69.0166Z" fill="#009ADE"/>
<path d="M294.481 81.4193C294.466 81.4193 294.375 81.1168 294.239 80.5118C294.087 79.8614 293.891 78.9842 293.634 77.8498C293.437 76.67 292.953 75.2633 292.409 73.5996C292.106 72.7828 291.91 71.845 291.486 70.9375C291.078 70.0149 290.654 69.0317 290.201 68.0032C288.25 63.9345 285.421 59.1096 281.051 54.4812C276.71 49.868 270.857 45.4817 263.628 42.4869C260.058 40.8685 256.066 39.9156 251.922 39.1593C247.732 38.6602 243.331 38.3274 238.824 38.9476C236.556 39.0837 234.317 39.6736 232.018 40.1273C230.869 40.3693 229.765 40.808 228.63 41.1407C227.496 41.4886 226.347 41.8516 225.258 42.381C220.736 44.1053 216.456 46.8278 212.463 50.0344C204.432 56.4778 198.156 66.1579 195.388 77.3658C193.996 82.9621 193.709 88.9668 194.405 94.9262C194.964 100.901 196.809 106.83 199.592 112.29L200.469 113.939L200.59 114.15L200.53 114.377C197.747 123.528 195.01 132.497 192.363 141.194L191.652 140.544C199.108 136.657 206.322 132.891 213.264 129.276L213.537 129.14L213.779 129.321C220.736 134.675 228.706 137.927 236.525 139.198C244.375 140.468 252.043 139.712 258.879 137.67C265.715 135.628 271.704 132.24 276.544 128.217C281.413 124.178 285.149 119.52 287.917 114.907C290.654 110.248 292.273 105.605 293.437 101.491C294.39 97.316 294.844 93.6557 294.934 90.6609C294.95 89.1635 294.95 87.8324 294.965 86.6829C294.859 85.5485 294.783 84.5805 294.708 83.794C294.647 83.0529 294.602 82.463 294.556 82.0243C294.481 81.616 294.466 81.4193 294.481 81.4193C294.496 81.4193 294.526 81.616 294.587 82.0092C294.647 82.4478 294.723 83.0377 294.813 83.7789C294.904 84.5805 295.025 85.5485 295.146 86.6829C295.161 87.8476 295.176 89.1786 295.207 90.6911C295.176 93.7162 294.768 97.4067 293.845 101.642C292.726 105.801 291.123 110.52 288.386 115.255C285.618 119.943 281.867 124.693 276.952 128.822C272.052 132.951 266.002 136.415 259.06 138.517C252.133 140.62 244.344 141.421 236.344 140.151C228.373 138.88 220.252 135.598 213.143 130.138L213.658 130.183C206.731 133.813 199.517 137.579 192.076 141.482L190.987 142.057L191.365 140.831C194.012 132.134 196.734 123.165 199.517 113.999L199.562 114.438L198.67 112.759C195.842 107.178 193.951 101.112 193.376 95.0169C192.681 88.9366 192.983 82.7957 194.405 77.0784C197.248 65.6437 203.676 55.7669 211.873 49.2328C215.957 45.9657 220.312 43.2129 224.925 41.4735C226.044 40.9441 227.209 40.5811 228.358 40.2332C229.523 39.9005 230.642 39.4467 231.807 39.2047C234.136 38.7509 236.419 38.1611 238.718 38.0249C243.286 37.4199 247.778 37.7678 252.012 38.2972C256.232 39.0988 260.27 40.0971 263.885 41.7457C271.19 44.8313 277.103 49.3235 281.459 54.0275C285.845 58.7465 288.658 63.6623 290.564 67.7915C291.002 68.8502 291.426 69.8334 291.819 70.7711C292.227 71.6938 292.424 72.6315 292.711 73.4786C293.24 75.1575 293.679 76.5792 293.845 77.7893C294.057 78.9388 294.224 79.8312 294.345 80.4816C294.45 81.1017 294.496 81.4042 294.481 81.4193Z" fill="#00205C"/>
</g>
<defs>
<clipPath id="clip0_922_11613">
<rect width="768" height="620" fill="white"/>
</clipPath>
</defs>
</svg>
