<svg width="220" height="176" viewBox="0 0 220 176" fill="none" xmlns="http://www.w3.org/2000/svg">
<g clip-path="url(#clip0_2706_13112)">
<path d="M158.239 136.113C157.543 138.132 156.576 139.841 155.338 141.246C154.096 142.647 152.625 143.724 150.921 144.467C149.215 145.214 147.361 145.589 145.345 145.589H144.766C143.526 145.589 140.795 145.271 140.407 145.199V114.62C140.795 114.582 144.182 114.227 144.766 114.227H145.229C147.321 114.227 149.23 114.61 150.954 115.374C152.675 116.144 154.158 117.239 155.398 118.658C156.636 120.077 157.595 121.789 158.272 123.786C158.951 125.79 159.289 126.859 159.289 129.328C159.284 131.835 158.936 134.096 158.239 136.113ZM166.487 122.611C165.48 120.35 163.971 118.436 161.957 116.864C159.943 115.292 157.443 114.087 154.464 113.245C151.48 112.408 147.993 111.986 144.004 111.986H132.851V147.833H145.515C149.155 147.833 152.379 147.375 155.188 146.461C157.996 145.544 160.346 144.264 162.248 142.62C164.147 140.973 165.58 139.004 166.552 136.703C167.519 134.404 168.002 131.872 168.002 129.103C168 126.265 167.494 124.873 166.487 122.611Z" fill="#5B254E"/>
<path d="M122.03 136.618L102.045 115.347C101.156 114.225 100.024 113.383 98.6483 112.825C97.6011 112.398 96.2532 112.131 94.73 112.031C94.73 113.215 94.725 118.003 94.725 118.71V147.833H97.6286V121.237L122.261 147.998H124.934V111.983H122.03V136.618Z" fill="#5B254E"/>
<path d="M79.2573 140.543C79.2573 141.968 79.3325 143.14 79.4878 144.077C79.6406 145.011 79.9237 145.759 80.3296 146.321C80.738 146.881 81.2791 147.273 81.958 147.498C82.637 147.723 83.4762 147.833 84.4834 147.833H86.8083C86.8083 147.833 86.8083 142.225 86.8083 140.546V111.983H79.2573V140.543Z" fill="#5B254E"/>
<path d="M51 111.983V147.83H58.5535V130.168H71.3355V127.646H58.5535V114.507H74.0262L74.0362 111.983H51Z" fill="#5B254E"/>
<path d="M88.5294 65.4961L51 37.2909V93.7037L88.5294 65.4961Z" fill="#7B969F"/>
<path d="M81.0536 32.4806V52.7292L91.9717 60.9381L98.0395 65.4961L91.9717 70.0567L81.0536 78.2631V98.5142L124.979 65.4961L81.0536 32.4806Z" fill="#00A1AA"/>
<path d="M118.112 28V53.1865L128.424 60.9381L134.489 65.4961L128.424 70.0566L118.112 77.8057V102.995L168 65.4961L118.112 28Z" fill="#5B254E"/>
</g>
<defs>
<clipPath id="clip0_2706_13112">
<rect width="117" height="120" fill="white" transform="translate(51 28)"/>
</clipPath>
</defs>
</svg>
