<svg width="431" height="304" viewBox="0 0 431 304" fill="none" xmlns="http://www.w3.org/2000/svg">
<g clip-path="url(#clip0_2695_11293)">
<g clip-path="url(#clip1_2695_11293)">
<path d="M96.2237 31.5386C138.484 4.33286 186.074 11.0563 208.156 49.0186C230.238 86.9808 281.995 123.678 325.778 149.619C369.561 175.56 371.464 248.823 352.809 303.235L53.9362 304C-31.5 168.019 53.9632 58.7465 96.2237 31.5386Z" fill="#DDEFF9" fill-opacity="0.7"/>
<path d="M216.87 125.899C205.471 124.307 191.687 140.764 191.687 160.935C191.687 181.107 182.144 232.6 182.144 232.6L264.582 232.865C262.461 216.94 264.846 155.36 263.52 144.479C262.197 133.596 244.703 111.566 216.87 125.899Z" fill="#2B1710"/>
<path d="M197.326 221.391C172.956 229.946 158.113 250.828 158.113 250.828L151.398 305.063L299.484 304.975L304.786 258.969C277.572 233.488 248.478 224.267 248.478 224.267L197.326 221.391Z" fill="#DDEFF9"/>
<path d="M257.276 155.074C257.009 142.541 252.411 136.76 243.881 127.727C242.052 139.699 222.426 153.087 219.649 154.755C220.267 165.491 218.003 171.931 210.019 170.421C212.761 190.497 212.256 205.66 209.329 211.827C206.402 217.994 197.281 220.75 197.327 221.391C197.471 224.853 222.203 261.58 237.282 260.913C244.563 260.592 249.192 235.531 248.479 224.265C237.075 217.693 236.4 208.41 237.121 200.633C251.851 199.884 257.466 188.466 258.514 182.448C259.571 176.363 257.542 167.607 257.276 155.074Z" fill="white"/>
<path d="M208.993 180.763C212.198 179.273 213.591 175.464 212.103 172.255C210.615 169.045 206.811 167.651 203.606 169.141C200.401 170.631 199.009 174.44 200.497 177.649C201.984 180.858 205.788 182.252 208.993 180.763Z" fill="white"/>
<path d="M207.924 178.182C208.085 178.171 208.231 178.066 208.287 177.904C208.363 177.686 208.248 177.449 208.031 177.373C207.467 177.176 207.133 176.853 207.067 176.442C206.999 176.022 207.224 175.528 207.63 175.216C208.069 174.878 208.617 174.814 209.136 175.043C209.274 175.103 209.432 175.086 209.552 174.998C209.673 174.909 209.737 174.763 209.719 174.613C209.541 173.099 208.423 171.929 206.806 171.561C205.129 171.178 203.498 171.791 202.653 173.122C202.528 173.317 202.587 173.576 202.781 173.698C202.975 173.823 203.234 173.765 203.356 173.57C204.151 172.319 205.611 172.143 206.62 172.375C207.447 172.564 208.363 173.107 208.738 174.084C208.165 174.027 207.595 174.189 207.121 174.555C206.472 175.057 206.128 175.851 206.244 176.577C206.312 176.995 206.598 177.758 207.757 178.163C207.811 178.178 207.869 178.186 207.924 178.182Z" fill="#00205C"/>
<path d="M247.647 175.925C247.527 175.933 247.404 175.89 247.317 175.794C247.163 175.627 247.175 175.368 247.34 175.214C249.334 173.373 251.536 171.137 251.997 170.378C251.63 170.328 250.842 170.37 250.24 170.402C248.763 170.481 247.088 170.571 246.057 170.086C243.784 169.014 245.22 159.614 246.833 155.128C246.911 154.916 247.144 154.805 247.358 154.881C247.57 154.957 247.68 155.192 247.605 155.407C245.729 160.622 245.035 168.697 246.407 169.343C247.249 169.74 248.883 169.652 250.197 169.582C251.843 169.495 252.838 169.44 252.893 170.195C252.949 170.976 250.207 173.683 247.896 175.816C247.824 175.884 247.737 175.919 247.647 175.925Z" fill="#00205C"/>
<path d="M247.971 182.89C245.812 183.18 243.245 182.964 241.637 181.769C241.523 181.683 241.468 181.446 241.514 181.236C241.56 181.026 241.69 180.924 241.803 181.008C244.518 183.024 250.314 182.115 251.412 180.802C251.515 180.679 251.652 180.732 251.72 180.922C251.786 181.113 251.757 181.366 251.655 181.489C251.13 182.115 249.678 182.66 247.971 182.89Z" fill="#00205C"/>
<path d="M258.069 304.999L299.483 304.973L304.785 258.967C277.572 233.486 248.477 224.265 248.477 224.265L245.234 221.717C250.382 240.825 256.349 292.094 258.069 304.999Z" fill="#79B5E3"/>
<path d="M206.091 215.789L196.548 220.655C172.178 229.212 158.113 250.826 158.113 250.826L151.398 305.061L218.572 305.02C214.091 285.493 206.565 243.802 206.091 215.789Z" fill="#79B5E3"/>
<path d="M166.242 203.669C160.94 200.75 111.639 270.291 106.07 305.061H151.398C167.568 287.012 185.062 224.105 180.554 214.55C176.049 204.996 166.242 203.669 166.242 203.669Z" fill="white"/>
<path d="M165.181 206.588L162.177 214.552C163.943 223.399 170.835 231.185 174.37 230.3C177.904 229.414 180.555 214.552 180.555 214.552L165.181 206.588Z" fill="#79B5E3"/>
<path d="M174.326 164.386C174.326 164.386 170.217 174.473 170.349 180.842C170.481 187.212 168.493 195.707 167.698 198.891C166.903 202.077 163.854 207.783 163.854 207.783C168.757 214.153 180.553 216.807 180.553 216.807C181.215 215.348 185.588 203.005 186.119 202.74C191.685 201.413 194.601 200.218 197.782 194.777C200.964 189.335 206.794 181.374 212.627 180.71C211.169 176.995 205.867 176.995 202.553 178.587C199.24 180.179 197.119 181.773 195.926 181.773C194.733 181.773 196.457 172.616 196.457 172.616L174.326 164.386Z" fill="#DDEFF9"/>
<path d="M174.326 164.386C175.387 161.864 179.097 161.864 179.097 161.864C180.687 159.74 183.47 159.608 184.267 159.873C185.725 158.014 189.701 157.351 191.027 157.882C192.352 158.413 202.954 148.062 204.279 148.194C205.605 148.326 216.341 154.431 216.341 154.431C215.678 156.555 212.232 158.014 209.848 157.75C207.463 157.485 205.475 155.759 205.475 155.759C203.222 157.218 199.644 161.332 199.644 161.731C199.644 163.323 200.175 172.083 200.175 172.083C200.175 172.083 195.005 184.69 189.174 181.771C186.922 182.966 183.74 180.311 183.74 180.311C181.221 181.771 179.433 179.912 179.433 179.912C174.46 171.287 174.326 164.386 174.326 164.386Z" fill="white"/>
<path d="M189.302 180.65C189.256 180.65 189.207 180.64 189.163 180.619C188.991 180.541 188.918 180.34 188.995 180.169C189.965 178.044 192.492 172.293 192.544 171.203C192.606 169.915 191.504 165.034 190.645 162.78C190.579 162.605 190.667 162.409 190.842 162.343C191.015 162.276 191.213 162.364 191.279 162.539C192.126 164.758 193.294 169.718 193.223 171.236C193.155 172.655 189.977 179.657 189.613 180.451C189.555 180.578 189.431 180.65 189.302 180.65Z" fill="#00205C"/>
<path d="M184.267 178.992C184.236 178.992 184.202 178.988 184.171 178.978C183.993 178.926 183.888 178.737 183.94 178.558C183.954 178.511 185.318 173.811 185.318 172.416C185.318 171.281 183.524 167.251 182.832 165.793C182.753 165.624 182.825 165.421 182.994 165.342C183.163 165.262 183.365 165.334 183.445 165.503C183.705 166.054 185.996 170.923 185.996 172.418C185.996 173.908 184.648 178.554 184.591 178.75C184.548 178.896 184.414 178.992 184.267 178.992Z" fill="#00205C"/>
<path d="M182.677 192.772C182.659 192.772 182.64 192.77 182.623 192.768C182.485 192.745 182.374 192.64 182.345 192.502C182.329 192.424 180.733 184.696 177.278 181.491C177.14 181.364 177.132 181.148 177.258 181.012C177.385 180.874 177.6 180.866 177.736 180.994C180.695 183.736 182.294 189.378 182.817 191.525C185.39 187.197 188.364 183.394 194.569 182.763C194.76 182.746 194.921 182.88 194.941 183.067C194.96 183.254 194.824 183.419 194.637 183.439C188.389 184.073 185.656 187.965 182.968 192.605C182.908 192.708 182.796 192.772 182.677 192.772Z" fill="#00205C"/>
<path d="M215.544 157.75L206.664 163.855L206.4 168.366C206.4 168.366 208.256 168.234 210.907 170.489C210.907 170.489 212.825 172.151 216.03 173.467C215.663 169.676 215.313 163.678 215.89 157.598C215.775 157.65 215.657 157.699 215.544 157.75Z" fill="#79B5E3"/>
<path d="M311.854 200.573C304.786 206.236 292.063 289.048 299.484 304.973H340.481C344.014 286.217 338.714 205.882 329.525 200.573C320.336 195.264 311.854 200.573 311.854 200.573Z" fill="white"/>
<path d="M311.147 203.758V213.845C311.324 224.993 310.793 234.017 318.746 231.894C326.699 229.771 330.763 211.191 330.763 211.191L329.702 203.758H311.147Z" fill="#79B5E3"/>
<path d="M333.021 156.136C334.813 164.621 334.65 176.861 330.74 185.673C329.111 197.749 331.391 203.949 331.391 203.949C326.013 212.026 310.125 206.397 310.125 206.397C310.614 203.461 310.125 188.773 308.414 187.306C301.081 184.857 298.636 180.942 298.148 177.026C297.659 173.111 296.438 167.807 286.497 166.583C286.823 163.32 290.407 161.768 294.971 162.829C299.534 163.89 303.445 167.644 306.459 166.583C309.473 165.523 299.94 132.152 300.755 130.031C301.569 127.909 304.341 128.4 306.622 132.642C308.904 136.885 315.747 151.409 315.747 151.409L333.021 156.136Z" fill="#DDEFF9"/>
<path d="M317.811 181.249C317.829 181.253 317.845 181.255 317.862 181.255C317.992 181.259 318.111 181.181 318.159 181.06C318.187 180.992 320.958 174.265 324.639 171.956C324.785 171.865 324.83 171.672 324.738 171.526C324.647 171.38 324.454 171.336 324.309 171.427C321.158 173.402 318.74 178.241 317.899 180.095C316.311 175.73 314.268 171.773 308.755 170.135C308.586 170.086 308.414 170.18 308.366 170.345C308.317 170.51 308.411 170.686 308.576 170.734C314.128 172.385 315.936 176.38 317.576 181.047C317.613 181.152 317.705 181.228 317.811 181.249Z" fill="#00205C"/>
<path d="M320.88 149.039C316.97 146.999 315.012 149.284 314.525 152.057C314.035 154.83 312.63 168.885 319.292 167.844C321.247 169.314 325.037 167.722 325.037 167.722C327.115 170.047 327.968 169.732 329.805 167.661C333.165 163.868 336.16 150.344 330.295 151.812C326.625 149.364 323.203 148.099 320.88 149.039Z" fill="white"/>
<path d="M319.415 166.75C319.405 166.75 319.393 166.75 319.384 166.748C319.212 166.731 319.086 166.579 319.104 166.406C319.768 159.633 320.32 152.954 320.326 152.888C320.34 152.717 320.487 152.586 320.662 152.602C320.833 152.616 320.962 152.767 320.948 152.939C320.942 153.005 320.39 159.69 319.726 166.466C319.71 166.63 319.574 166.75 319.415 166.75Z" fill="#00205C"/>
<path d="M325.525 166.811C325.481 166.811 325.438 166.801 325.395 166.782C325.238 166.71 325.17 166.523 325.242 166.367C327.342 161.799 328.571 156.627 328.582 156.574C328.621 156.407 328.79 156.302 328.958 156.341C329.125 156.379 329.23 156.549 329.191 156.716C329.179 156.769 327.937 162.002 325.809 166.628C325.757 166.743 325.644 166.811 325.525 166.811Z" fill="#00205C"/>
<path d="M203.617 301.42C203.514 301.42 203.414 301.373 203.346 301.286L180.551 271.292C180.494 271.218 180.471 271.124 180.487 271.033C180.5 270.941 180.551 270.86 180.626 270.807L196.964 259.381L179.278 244.536C179.147 244.427 179.118 244.238 179.208 244.096L190.871 225.516C190.97 225.359 191.18 225.31 191.337 225.409C191.497 225.509 191.543 225.719 191.444 225.876L179.938 244.205L197.737 259.144C197.819 259.212 197.864 259.313 197.858 259.418C197.852 259.523 197.8 259.621 197.714 259.681L181.305 271.157L203.887 300.869C203.999 301.019 203.97 301.231 203.823 301.344C203.76 301.396 203.688 301.42 203.617 301.42Z" fill="white"/>
<path d="M269.355 302.48C269.335 302.48 269.316 302.478 269.297 302.475C269.112 302.443 268.988 302.268 269.021 302.083L274.023 272.821L260.135 262.063C260.049 261.997 260.001 261.894 260.003 261.785C260.006 261.676 260.061 261.576 260.15 261.514L273.108 252.692L256.891 231.477C256.776 231.329 256.805 231.115 256.953 231.002C257.101 230.89 257.315 230.917 257.427 231.065L273.862 252.564C273.918 252.638 273.942 252.731 273.928 252.825C273.912 252.916 273.862 252.998 273.784 253.05L260.916 261.812L274.595 272.409C274.694 272.484 274.742 272.611 274.721 272.734L269.685 302.196C269.66 302.364 269.516 302.48 269.355 302.48Z" fill="white"/>
<path d="M291.522 279.934H265.721V295.505L278.622 295.029L291.522 295.505L291.047 287.72L291.522 279.934Z" fill="#BDD1E3"/>
<path d="M283.161 294.75C283.162 294.755 283.214 294.759 283.311 294.762C283.419 294.765 283.562 294.769 283.739 294.773C284.121 294.776 284.655 294.781 285.309 294.787C286.643 294.787 288.47 294.788 290.493 294.788L290.536 294.788L290.535 294.738C290.535 294.7 290.533 294.658 290.533 294.616C290.487 292.199 290.55 290.011 290.519 288.412C290.499 287.628 290.483 286.987 290.471 286.529C290.463 286.316 290.457 286.145 290.452 286.016C290.447 285.899 290.442 285.837 290.438 285.836C290.434 285.835 290.432 285.896 290.43 286.012C290.43 286.14 290.429 286.309 290.428 286.52C290.431 286.976 290.437 287.613 290.443 288.395C290.466 289.993 290.391 292.177 290.425 294.592C290.425 294.634 290.426 294.676 290.427 294.714L290.469 294.663C288.448 294.678 286.624 294.69 285.292 294.7C284.64 294.71 284.11 294.719 283.729 294.725C283.553 294.731 283.413 294.735 283.306 294.738C283.21 294.741 283.16 294.746 283.161 294.75Z" fill="#00205C"/>
<path d="M289.721 278.253H263.921V293.824L276.821 293.348L289.721 293.824V278.253Z" fill="white"/>
<path d="M276.312 284.641C276.312 284.564 278.653 284.512 281.539 284.527C284.426 284.542 286.765 284.616 286.765 284.694C286.765 284.771 284.425 284.822 281.539 284.808C278.652 284.795 276.312 284.719 276.312 284.641Z" fill="#00205C"/>
<path d="M276.312 286.07C276.312 285.992 278.653 285.94 281.539 285.956C284.426 285.97 286.765 286.045 286.765 286.122C286.765 286.2 284.425 286.25 281.539 286.236C278.652 286.223 276.312 286.147 276.312 286.07Z" fill="#00205C"/>
<path d="M276.312 287.498C276.312 287.421 278.653 287.369 281.539 287.384C284.426 287.398 286.765 287.473 286.765 287.551C286.765 287.628 284.425 287.678 281.539 287.665C278.652 287.651 276.312 287.575 276.312 287.498Z" fill="#00205C"/>
<path d="M281.736 293.322C281.737 293.327 281.788 293.331 281.886 293.334C281.994 293.337 282.136 293.34 282.314 293.345C282.696 293.348 283.229 293.353 283.884 293.359C285.218 293.359 287.045 293.36 289.068 293.36L289.111 293.36L289.11 293.31C289.109 293.272 289.108 293.23 289.107 293.188C289.061 290.771 289.124 288.583 289.094 286.984C289.074 286.2 289.058 285.559 289.045 285.101C289.037 284.888 289.031 284.717 289.027 284.588C289.021 284.471 289.017 284.409 289.012 284.408C289.009 284.407 289.006 284.468 289.005 284.584C289.004 284.712 289.004 284.881 289.003 285.092C289.006 285.548 289.011 286.185 289.017 286.967C289.04 288.565 288.966 290.749 288.999 293.164C289 293.205 289.001 293.248 289.002 293.286L289.043 293.235C287.023 293.249 285.199 293.262 283.866 293.271C283.215 293.282 282.684 293.291 282.304 293.297C282.128 293.303 281.987 293.307 281.88 293.31C281.785 293.313 281.735 293.318 281.736 293.322Z" fill="#00205C"/>
<path d="M272.004 278.965C272.004 278.961 271.952 278.956 271.854 278.952C271.746 278.948 271.604 278.942 271.427 278.936C271.045 278.927 270.511 278.916 269.857 278.902C268.523 278.886 266.696 278.862 264.673 278.837L264.631 278.836L264.631 278.887C264.631 278.925 264.632 278.967 264.632 279.009C264.648 281.426 264.558 283.613 264.569 285.212C264.58 285.997 264.588 286.638 264.595 287.096C264.6 287.309 264.604 287.48 264.607 287.609C264.611 287.726 264.615 287.789 264.619 287.79C264.623 287.791 264.626 287.73 264.629 287.614C264.631 287.486 264.633 287.316 264.637 287.105C264.639 286.649 264.642 286.012 264.646 285.23C264.642 283.633 264.743 281.449 264.739 279.034C264.739 278.993 264.739 278.95 264.739 278.912L264.696 278.962C266.717 278.973 268.541 278.983 269.873 278.99C270.525 278.987 271.056 278.985 271.436 278.983C271.612 278.98 271.753 278.977 271.86 278.975C271.955 278.973 272.005 278.97 272.004 278.965Z" fill="#00205C"/>
<path d="M278.455 274.273H275.186L275.661 278.299L275.186 282.324H278.455L277.98 278.299L278.455 274.273Z" fill="#92B2CF"/>
<path d="M271.834 289.037C274.062 288.112 275.121 285.554 274.197 283.322C273.274 281.09 270.719 280.031 268.49 280.955C266.262 281.88 265.203 284.438 266.127 286.67C267.05 288.901 269.605 289.961 271.834 289.037Z" fill="#DDEFF9"/>
<path d="M269.563 289.088C271.916 289.088 273.822 287.178 273.822 284.823C273.822 282.468 271.916 280.558 269.563 280.558C267.21 280.558 265.303 282.468 265.303 284.823C265.303 287.178 267.21 289.088 269.563 289.088Z" stroke="#00205C" stroke-width="0.5"/>
<path d="M268.088 286.814L268.087 286.814C267.488 287.045 267.166 287.372 266.999 287.646L266.882 287.838L267.062 287.975C267.757 288.501 268.624 288.812 269.563 288.812C270.501 288.812 271.366 288.501 272.063 287.975L272.244 287.839L272.126 287.646C271.96 287.372 271.639 287.045 271.038 286.814L270.948 287.048L271.038 286.814C270.685 286.678 270.538 286.528 270.46 286.348C270.382 286.165 270.36 285.923 270.358 285.553C270.918 285.207 271.278 284.521 271.278 283.757C271.278 282.685 270.552 281.73 269.563 281.73C268.573 281.73 267.847 282.685 267.847 283.757C267.847 284.521 268.208 285.207 268.767 285.553C268.766 285.923 268.744 286.166 268.665 286.349C268.588 286.529 268.441 286.679 268.088 286.814Z" fill="white" stroke="#00205C" stroke-width="0.5"/>
<g opacity="0.05">
<path d="M376.908 265.069H124.096C122.58 265.069 121.351 263.838 121.351 262.321V85.8057C121.351 84.2882 122.58 83.0572 124.096 83.0572H376.908C378.423 83.0572 379.652 84.2882 379.652 85.8057V262.321C379.652 263.838 378.423 265.069 376.908 265.069Z" fill="#5B2C86"/>
</g>
<path d="M385.102 76H127.048C127.048 83.8815 127.851 79.4029 127.048 83.8815C128.231 83.3566 129.538 83.059 130.917 83.059H379.111C379.653 92.6391 379.653 87.3472 379.653 92.6391V255.491C379.653 256.071 379.592 256.637 379.494 257.189C382.848 255.701 370.085 259.354 385.192 255.216V85.5783C385.192 76 385.192 85.5783 385.102 76Z" fill="#9BB4C9"/>
<path d="M307.736 131.308C308.655 127.408 306.244 123.5 302.349 122.579C298.455 121.659 294.553 124.073 293.633 127.973C292.713 131.873 295.125 135.78 299.019 136.701C302.914 137.622 306.816 135.207 307.736 131.308Z" fill="#C9DDEA"/>
<path d="M302.242 133.372C304.315 132.512 305.3 130.131 304.441 128.055C303.582 125.978 301.205 124.992 299.131 125.852C297.057 126.712 296.073 129.093 296.932 131.169C297.791 133.246 300.168 134.232 302.242 133.372Z" fill="#C9DDEA"/>
<path d="M296.307 165.813C296.948 161.858 294.265 158.131 290.315 157.489C286.365 156.848 282.644 159.533 282.003 163.489C281.361 167.444 284.044 171.171 287.994 171.813C291.944 172.455 295.666 169.769 296.307 165.813Z" fill="#00205C"/>
<path d="M289.146 168.72C291.391 168.72 293.21 166.898 293.21 164.651C293.21 162.403 291.391 160.581 289.146 160.581C286.902 160.581 285.082 162.403 285.082 164.651C285.082 166.898 286.902 168.72 289.146 168.72Z" fill="#00205C"/>
<path d="M302.651 130.224C303.255 129.619 303.255 128.638 302.651 128.034C302.047 127.429 301.068 127.429 300.463 128.034C299.859 128.638 299.859 129.619 300.463 130.224C301.068 130.829 302.047 130.829 302.651 130.224Z" fill="#00205C"/>
<path d="M330.147 95.9052H353.015C354.62 95.9052 355.92 97.2071 355.92 98.8146C355.92 100.422 354.62 101.724 353.015 101.724H330.147C328.542 101.724 327.241 100.422 327.241 98.8146C327.241 97.2091 328.542 95.9052 330.147 95.9052Z" fill="#79B5E3"/>
<path d="M341.227 109.795H354.491C354.684 109.795 354.841 109.637 354.841 109.445V107.705C354.841 107.512 354.684 107.354 354.491 107.354H341.227C341.034 107.354 340.877 107.512 340.877 107.705V109.445C340.877 109.639 341.034 109.795 341.227 109.795Z" fill="#79B5E3"/>
<path d="M341.227 113.753H354.491C354.684 113.753 354.841 113.596 354.841 113.403V111.663C354.841 111.47 354.684 111.313 354.491 111.313H341.227C341.034 111.313 340.877 111.47 340.877 111.663V113.403C340.877 113.596 341.034 113.753 341.227 113.753Z" fill="#79B5E3"/>
<path d="M301.561 129.488C301.685 129.488 301.804 129.424 301.872 129.309L315.827 105.414H354.703C354.901 105.414 355.063 105.253 355.063 105.054C355.063 104.856 354.901 104.694 354.703 104.694H315.621C315.492 104.694 315.376 104.762 315.31 104.873L301.252 128.945C301.153 129.116 301.209 129.336 301.38 129.437C301.437 129.472 301.499 129.488 301.561 129.488Z" fill="#00205C"/>
<path d="M346.321 149.49H369.189C370.794 149.49 372.094 150.792 372.094 152.4C372.094 154.007 370.794 155.309 369.189 155.309H346.321C344.716 155.309 343.416 154.007 343.416 152.4C343.416 150.792 344.718 149.49 346.321 149.49Z" fill="#79B5E3"/>
<path d="M346.078 163.38H357.605C358.277 163.38 358.823 162.833 358.823 162.16C358.823 161.486 358.277 160.939 357.605 160.939H346.078C345.405 160.939 344.859 161.486 344.859 162.16C344.859 162.833 345.405 163.38 346.078 163.38Z" fill="#79B5E3"/>
<path d="M346.078 167.336H357.605C358.277 167.336 358.823 166.789 358.823 166.116C358.823 165.443 358.277 164.896 357.605 164.896H346.078C345.405 164.896 344.859 165.443 344.859 166.116C344.859 166.791 345.405 167.336 346.078 167.336Z" fill="#79B5E3"/>
<path d="M339.466 152.972C339.466 153.631 338.932 154.167 338.273 154.167C337.614 154.167 337.079 153.631 337.079 152.972C337.079 152.312 337.614 151.777 338.273 151.777C338.932 151.777 339.466 152.312 339.466 152.972Z" fill="#00205C"/>
<path d="M346.321 184.085H369.189C370.794 184.085 372.094 185.387 372.094 186.994C372.094 188.602 370.794 189.904 369.189 189.904H346.321C344.716 189.904 343.416 188.602 343.416 186.994C343.416 185.387 344.718 184.085 346.321 184.085Z" fill="#79B5E3"/>
<path d="M346.078 197.975H357.605C358.277 197.975 358.823 197.428 358.823 196.754C358.823 196.081 358.277 195.534 357.605 195.534H346.078C345.405 195.534 344.859 196.081 344.859 196.754C344.859 197.428 345.405 197.975 346.078 197.975Z" fill="#79B5E3"/>
<path d="M346.078 201.931H357.605C358.277 201.931 358.823 201.384 358.823 200.711C358.823 200.037 358.277 199.491 357.605 199.491H346.078C345.405 199.491 344.859 200.037 344.859 200.711C344.859 201.384 345.405 201.931 346.078 201.931Z" fill="#79B5E3"/>
<path d="M339.466 187.566C339.466 188.226 338.932 188.761 338.273 188.761C337.614 188.761 337.079 188.226 337.079 187.566C337.079 186.907 337.614 186.371 338.273 186.371C338.932 186.371 339.466 186.907 339.466 187.566Z" fill="#00205C"/>
<path d="M285.304 100.95H211.084C208.254 100.95 205.959 98.6512 205.959 95.8176C205.959 92.984 208.254 90.6856 211.084 90.6856H285.304C288.133 90.6856 290.429 92.984 290.429 95.8176C290.427 98.6512 288.133 100.95 285.304 100.95Z" fill="#00205C"/>
<path d="M149.169 147.254H38.5298C38.1363 147.254 37.8159 146.933 37.8159 146.539V141.262C37.8159 140.868 38.1363 140.547 38.5298 140.547H149.169C149.562 140.547 149.883 140.868 149.883 141.262V146.539C149.883 146.933 149.562 147.254 149.169 147.254Z" fill="#79B5E3"/>
<path d="M68.2237 160.462H54.451C53.4214 160.462 52.5851 159.627 52.5851 158.594V91.7704H70.0873V158.594C70.0873 159.627 69.2533 160.462 68.2237 160.462Z" fill="white"/>
<path d="M59.4366 119.555C63.4723 116.484 67.8897 116.951 67.8897 119.088C67.7018 121.18 68.3137 121.709 67.2371 122.356C66.1604 123.002 63.6325 123.972 63.4181 123.972C63.2037 123.972 60.9444 123.917 60.836 123.703C60.7276 123.488 59.4366 119.555 59.4366 119.555Z" fill="#79B5E3"/>
<path d="M67.8895 119.089V151.698C67.8895 155.315 64.9517 158.259 61.3377 158.259C57.726 158.259 54.7858 155.317 54.7858 151.698V119.089C56.1004 116.055 59.3281 117.508 61.8583 120.311C64.3886 123.113 67.5173 121.316 67.8895 119.089Z" fill="#79B5E3"/>
<path d="M73.4209 94.212H49.1077C48.7308 94.212 48.4245 93.9053 48.4245 93.5279V86.6841C48.4245 86.3067 48.7308 86 49.1077 86H73.4209C73.7978 86 74.1041 86.3067 74.1041 86.6841V93.5279C74.1041 93.9053 73.7978 94.212 73.4209 94.212Z" fill="#79B5E3"/>
<path d="M134.998 176.907H121.225C120.195 176.907 119.359 176.072 119.359 175.039V108.216H136.861V175.039C136.861 176.07 136.027 176.907 134.998 176.907Z" fill="white"/>
<path d="M126.21 147.015C130.246 143.944 134.663 144.411 134.663 146.548C134.663 148.686 135.087 149.169 134.011 149.816C132.934 150.462 130.406 151.432 130.192 151.432C129.977 151.432 127.718 151.377 127.61 151.163C127.501 150.948 126.21 147.015 126.21 147.015Z" fill="#79B5E3"/>
<path d="M134.663 146.548V168.146C134.663 171.762 131.723 174.706 128.112 174.706C124.5 174.706 121.56 171.765 121.56 168.146V146.548C122.874 143.514 126.102 144.968 128.632 147.77C131.16 150.57 134.291 148.775 134.663 146.548Z" fill="#79B5E3"/>
<path d="M140.195 110.657H115.884C115.507 110.657 115.201 110.35 115.201 109.973V103.059C115.201 102.681 115.507 102.374 115.884 102.374H140.197C140.574 102.374 140.881 102.681 140.881 103.059V109.973C140.878 110.35 140.572 110.657 140.195 110.657Z" fill="#79B5E3"/>
<path d="M101.61 176.907H87.8368C86.8073 176.907 85.9709 176.072 85.9709 175.039V108.216H103.473V175.039C103.475 176.07 102.639 176.907 101.61 176.907Z" fill="white"/>
<path d="M92.822 129.99C96.8577 126.918 101.275 127.385 101.275 129.523C101.275 131.66 101.699 132.144 100.622 132.79C99.5458 133.436 97.0179 134.406 96.8035 134.406C96.5891 134.406 94.3298 134.352 94.2214 134.137C94.1131 133.922 92.822 129.99 92.822 129.99Z" fill="#79B5E3"/>
<path d="M101.275 129.525V168.146C101.275 171.762 98.3351 174.706 94.7234 174.706C91.1118 174.706 88.1716 171.765 88.1716 168.146V129.525C89.4862 126.491 92.7138 127.945 95.2441 130.747C97.772 133.547 100.905 131.75 101.275 129.525Z" fill="#79B5E3"/>
<path d="M106.809 110.657H82.4962C82.1192 110.657 81.8129 110.351 81.8129 109.973V103.129C81.8129 102.752 82.1192 102.445 82.4962 102.445H106.809C107.186 102.445 107.493 102.752 107.493 103.129V109.973C107.493 110.351 107.186 110.657 106.809 110.657Z" fill="#79B5E3"/>
<path d="M94.704 126.027C96.1662 125.059 96.5682 123.088 95.6018 121.624C94.6354 120.16 92.6666 119.757 91.2044 120.725C89.7421 121.693 89.3402 123.664 90.3066 125.128C91.273 126.592 93.2418 126.995 94.704 126.027Z" fill="#79B5E3"/>
<path d="M127.308 141.486C127.308 142.396 126.571 143.132 125.664 143.132C124.754 143.132 124.019 142.394 124.019 141.486C124.019 140.577 124.757 139.839 125.664 139.839C126.571 139.839 127.308 140.577 127.308 141.486Z" fill="#79B5E3"/>
<path d="M130.482 136.897C131.585 136.897 132.479 136.002 132.479 134.897C132.479 133.792 131.585 132.896 130.482 132.896C129.378 132.896 128.484 133.792 128.484 134.897C128.484 136.002 129.378 136.897 130.482 136.897Z" fill="#79B5E3"/>
<path d="M60.0725 112.246C60.2812 110.963 59.4114 109.753 58.1297 109.544C56.8481 109.335 55.6399 110.206 55.4312 111.49C55.2226 112.773 56.0924 113.983 57.3741 114.192C58.6557 114.401 59.8639 113.53 60.0725 112.246Z" fill="#79B5E3"/>
<path d="M45.5291 142.845H42.3297V197.085H45.5291V142.845Z" fill="#79B5E3"/>
<path d="M29 197.085H58.8567V193.473C58.8567 192.933 58.4185 192.494 57.879 192.494H29.9777C29.4382 192.494 29 192.933 29 193.473V197.085Z" fill="#79B5E3"/>
<path d="M145.67 142.845H142.471V197.085H145.67V142.845Z" fill="#79B5E3"/>
<path d="M129.143 197.085H159V193.473C159 192.933 158.562 192.494 158.022 192.494H130.121C129.582 192.494 129.143 192.933 129.143 193.473V197.085Z" fill="#79B5E3"/>
</g>
</g>
<defs>
<clipPath id="clip0_2695_11293">
<rect width="431" height="304" fill="white"/>
</clipPath>
<clipPath id="clip1_2695_11293">
<rect width="416" height="290" fill="white" transform="translate(-5 15)"/>
</clipPath>
</defs>
</svg>
