<svg width="220" height="176" viewBox="0 0 220 176" fill="none" xmlns="http://www.w3.org/2000/svg">
<g clip-path="url(#clip0_2706_13091)">
<path d="M79.9991 58.8893C79.9991 58.8893 69.4892 66.9846 54.169 59.2517C45.6437 54.8242 34.4153 49.9731 25.2109 67.6352C29.145 54.2173 36.4525 44.5719 56.4515 54.7805C67.382 58.9592 69.9755 60.5747 79.9991 58.8893Z" fill="url(#paint0_linear_2706_13091)"/>
<path d="M53.985 60.7188C53.985 60.7188 50.1868 72.0408 34.0342 72.7438C24.2778 73.3769 19.3624 74.6956 18.7534 88.4584C17.7852 82.3979 15.218 70.1414 31.4976 68.7747C39.6593 68.0499 44.9471 69.3991 53.985 60.7188Z" fill="url(#paint1_linear_2706_13091)"/>
<path d="M75.1889 46.1263C80.4022 49.8902 81.4712 52.7764 83.7011 56.4747C85.379 59.3783 85.782 59.9896 88.634 65.9061C85.3614 63.2251 84.1085 62.5833 80.6914 58.3435C73.5329 50.0692 67.3382 39.3453 54.5239 51.1564C57.3759 44.6723 65.8662 39.4021 75.1889 46.1263Z" fill="url(#paint2_linear_2706_13091)"/>
<path d="M74.6675 53.1082L74.4091 57.8981C74.7508 57.9024 75.0837 57.9024 75.4035 57.8893L75.5963 54.3307C75.3685 53.9989 75.0574 53.5797 74.6675 53.1082Z" fill="url(#paint3_linear_2706_13091)"/>
<path d="M68.6305 57.1646C68.9547 57.2345 69.2833 57.3 69.6118 57.3611L70.0543 49.0912C69.7433 48.9122 69.4191 48.7462 69.0861 48.5978L68.6305 57.1646Z" fill="url(#paint4_linear_2706_13091)"/>
<path d="M63.3866 55.7542C63.7064 55.8547 64.0306 55.9551 64.3636 56.0555L64.8148 47.6415C64.4775 47.6458 64.1489 47.6633 63.8203 47.7026L63.3866 55.7542Z" fill="url(#paint5_linear_2706_13091)"/>
<path d="M59.1151 54.2478L59.3824 49.6631L58.3353 50.1085L58.1338 53.8592C58.4054 53.964 58.734 54.095 59.1151 54.2478Z" fill="url(#paint6_linear_2706_13091)"/>
<path d="M46.095 57.2212C45.7576 57.1775 45.394 57.1339 44.9866 57.0902L45.8934 64.8318C46.2395 64.6834 46.59 64.5262 46.9361 64.3646L46.095 57.2212Z" fill="url(#paint7_linear_2706_13091)"/>
<path d="M40.4611 66.5741C40.8072 66.5086 41.1664 66.4256 41.53 66.3383L40.4085 56.7759C40.0493 56.7846 39.6856 56.8152 39.322 56.8632L40.4611 66.5741Z" fill="url(#paint8_linear_2706_13091)"/>
<path d="M35.3572 66.9408C35.7165 66.9277 36.0801 66.9146 36.4525 66.8971L35.423 58.1338C35.0769 58.3128 34.7351 58.5137 34.3934 58.7276L35.3572 66.9408Z" fill="url(#paint9_linear_2706_13091)"/>
<path d="M30.2228 67.2901C30.5558 67.2508 30.9194 67.2159 31.3093 67.181L30.7047 62.0024L30.4988 62.0679C30.2228 62.3736 29.9599 62.6792 29.719 62.9761L30.2228 67.2901Z" fill="url(#paint10_linear_2706_13091)"/>
<path d="M43.0239 77.084C43.9834 77.084 44.899 77.1713 45.7752 77.3503C46.6514 77.5294 47.4487 77.7346 48.1759 77.966C48.9032 78.1974 49.5165 78.4376 50.0247 78.6821C50.5285 78.9266 50.879 79.1187 51.0718 79.2541L49.0609 82.7734L48.5264 82.4852C48.1716 82.2931 47.7028 82.0748 47.1289 81.8303C46.555 81.5857 45.9241 81.3674 45.2407 81.1753C44.5573 80.9832 43.9001 80.8871 43.2693 80.8871C42.2836 80.8871 41.4293 81.1185 40.702 81.5814C39.9748 82.0442 39.6156 82.769 39.6156 83.7515C39.6156 84.9784 40.0099 85.9827 40.8072 86.7599C41.6001 87.5371 42.8443 88.2532 44.5441 88.9082C45.6394 89.3448 46.6163 89.8033 47.4794 90.2792C48.3424 90.7551 49.074 91.3097 49.6742 91.9341C50.2744 92.5628 50.7344 93.2833 51.0499 94.1042C51.3653 94.9207 51.523 95.9031 51.523 97.0515C51.523 98.0863 51.3259 99.1124 50.9272 100.121C50.5285 101.13 49.9415 102.025 49.1617 102.802C48.3818 103.579 47.418 104.208 46.2702 104.684C45.1224 105.16 43.795 105.4 42.2879 105.4C41.219 105.4 40.207 105.291 39.2519 105.073C38.2925 104.854 37.4251 104.601 36.6453 104.317C35.8655 104.029 35.1952 103.736 34.6344 103.435C34.0737 103.134 33.6575 102.902 33.3815 102.741L35.1076 98.9771L35.8479 99.3875C36.3386 99.6626 36.9432 99.9595 37.6529 100.287C38.3626 100.614 39.1161 100.916 39.9091 101.186C40.702 101.462 41.3855 101.597 41.9594 101.597C43.4095 101.597 44.4916 101.243 45.2013 100.531C45.911 99.8241 46.2702 98.8286 46.2702 97.5449C46.2702 96.9467 46.1738 96.4184 45.9811 95.9686C45.7883 95.5189 45.5167 95.1303 45.1575 94.8028C44.8026 94.4753 44.3689 94.1828 43.8651 93.9208C43.3569 93.6632 42.7918 93.4099 42.1609 93.1654C40.9299 92.6458 39.8259 92.1306 38.8577 91.611C37.8851 91.0914 37.0571 90.5019 36.3737 89.8295C35.6902 89.1614 35.1689 88.3973 34.814 87.5371C34.4592 86.6769 34.2796 85.6465 34.2796 84.4501C34.2796 83.4414 34.4986 82.4939 34.9367 81.6076C35.3748 80.7212 35.975 79.944 36.7417 79.2759C37.5083 78.6079 38.4239 78.0752 39.4929 77.6822C40.5619 77.2848 41.7359 77.084 43.0239 77.084Z" fill="#5F2852"/>
<path d="M55.1549 90.6286C55.6587 89.2357 56.3596 88.0699 57.249 87.1311C58.1383 86.1923 59.1853 85.4806 60.3901 85.0047C61.5949 84.5287 62.8916 84.2886 64.2892 84.2886C65.5202 84.2886 66.5672 84.437 67.4303 84.7383C68.2933 85.0396 68.9987 85.4457 69.5463 85.9653C70.0939 86.4849 70.497 87.0962 70.7554 87.8079C71.0139 88.5152 71.1453 89.2794 71.1453 90.1002C71.1453 91.0827 70.8693 92.0171 70.3261 92.9035C69.7785 93.7898 68.9899 94.5671 67.9648 95.2351C66.9396 95.9032 65.6998 96.4359 64.2497 96.8288C62.7996 97.2262 61.1699 97.4358 59.365 97.462C59.4482 98.0907 59.5752 98.6846 59.7549 99.2435C59.9345 99.8024 60.193 100.296 60.5347 100.715C60.8764 101.138 61.3232 101.47 61.8709 101.719C62.4185 101.964 63.1019 102.086 63.9212 102.086C64.5213 102.086 65.1653 102.02 65.8488 101.881C66.5322 101.745 67.1631 101.579 67.737 101.392C68.4204 101.173 69.0907 100.929 69.7478 100.654L70.9789 103.557C70.2648 103.911 69.5025 104.226 68.6789 104.496C67.9648 104.741 67.1455 104.959 66.2168 105.151C65.288 105.343 64.3023 105.439 63.2596 105.439C61.6737 105.439 60.32 105.199 59.1941 104.723C58.0726 104.247 57.157 103.571 56.4429 102.697C55.7331 101.824 55.2118 100.776 54.8832 99.5491C54.5547 98.3221 54.3926 96.9598 54.3926 95.4578C54.3926 93.6283 54.6467 92.0171 55.1549 90.6286ZM61.6825 88.1135C61.0954 88.5371 60.6223 89.0829 60.2674 89.7509C59.9126 90.419 59.6585 91.17 59.5095 91.9996C59.3606 92.8336 59.2686 93.6719 59.2423 94.5147C60.5566 94.4623 61.6693 94.2876 62.5893 94.0038C63.505 93.7156 64.2497 93.3619 64.828 92.9384C65.4019 92.5149 65.8181 92.0607 66.081 91.5673C66.3394 91.0783 66.4709 90.5849 66.4709 90.0959C66.4709 89.3056 66.2387 88.6724 65.7743 88.1921C65.3099 87.7162 64.6922 87.476 63.9255 87.476C63.0143 87.476 62.2695 87.69 61.6825 88.1135Z" fill="#5F2852"/>
<path d="M91.543 114.233L86.8642 113.373V102.614C86.3166 103.54 85.5893 104.239 84.6869 104.701C83.7844 105.164 82.676 105.396 81.3617 105.396C80.0737 105.396 78.9609 105.155 78.0147 104.68C77.0728 104.204 76.2842 103.522 75.6533 102.632C75.0225 101.745 74.5581 100.676 74.2558 99.418C73.9535 98.1649 73.8046 96.772 73.8046 95.2438C73.8046 93.6893 74.0411 92.2528 74.523 90.9254C75.0006 89.6024 75.6709 88.4628 76.5339 87.5109C77.3969 86.5546 78.4308 85.808 79.6312 85.2622C80.836 84.7164 82.1634 84.4457 83.6135 84.4457C84.4328 84.4457 85.3046 84.5155 86.2202 84.6509C87.1358 84.7863 87.9901 84.9216 88.7874 85.0613C89.6899 85.2273 90.6055 85.415 91.5387 85.6333V114.233H91.543ZM83.9903 101.409C84.5642 100.959 85.0636 100.361 85.4886 99.6101C85.9135 98.8591 86.2465 97.9989 86.4962 97.034C86.7415 96.0646 86.8642 95.0778 86.8642 94.0692V88.1789C86.5882 88.096 86.1808 87.9999 85.6331 87.8908C85.0855 87.7816 84.5905 87.7292 84.1568 87.7292C83.1185 87.7292 82.2598 87.9082 81.5895 88.2619C80.9192 88.6156 80.3804 89.109 79.9686 89.7334C79.5568 90.3621 79.272 91.1088 79.1055 91.9821C78.939 92.8553 78.8602 93.8116 78.8602 94.8464C78.8602 95.8027 78.8865 96.7152 78.9434 97.5885C78.996 98.4618 79.1406 99.2303 79.3728 99.8983C79.6049 100.566 79.9379 101.099 80.376 101.492C80.8141 101.889 81.4011 102.086 82.1415 102.086C82.7987 102.082 83.4164 101.859 83.9903 101.409Z" fill="#5F2852"/>
<path d="M109.768 86.332C109.658 86.249 109.505 86.1224 109.316 85.9434C109.124 85.7644 108.887 85.581 108.598 85.3932C108.309 85.2011 107.976 85.0308 107.595 84.8824C107.209 84.7339 106.789 84.6553 106.32 84.6553C105.47 84.6553 104.835 84.8518 104.41 85.2491C103.985 85.6465 103.775 86.1705 103.775 86.8254C103.775 87.4804 103.954 88.1703 104.309 88.8907C104.664 89.6155 105.159 90.3709 105.785 91.1612C106.416 91.9516 107.165 92.7768 108.042 93.637C108.918 94.4972 109.89 95.3879 110.955 96.3179C111.284 95.7721 111.586 95.2351 111.857 94.7024C112.129 94.1697 112.379 93.6326 112.598 93.0868L116.046 94.4797C115.743 95.1608 115.41 95.8769 115.042 96.628C114.674 97.379 114.254 98.1082 113.789 98.8155L117.772 102.252L115.432 105.361L111.244 101.964C110.206 102.972 109.001 103.798 107.63 104.439C106.263 105.081 104.673 105.4 102.868 105.4C101.939 105.4 101.028 105.243 100.138 104.928C99.2491 104.614 98.4561 104.151 97.7595 103.536C97.063 102.92 96.4978 102.173 96.0773 101.287C95.6523 100.401 95.442 99.3831 95.442 98.2392C95.442 97.2305 95.5866 96.3092 95.8713 95.4796C96.1561 94.65 96.5197 93.9033 96.9578 93.2484C97.3959 92.5934 97.8822 92.0214 98.4167 91.5324C98.9512 91.0433 99.4506 90.6329 99.915 90.3054C99.2841 89.0523 98.9731 87.8253 98.9731 86.6246C98.9731 85.8866 99.1001 85.1705 99.363 84.4763C99.6214 83.782 100.033 83.162 100.594 82.6162C101.155 82.0704 101.878 81.6338 102.771 81.3063C103.661 80.9788 104.734 80.8173 105.996 80.8173C107.393 80.8173 108.589 81.0836 109.588 81.6163C110.587 82.149 111.441 82.8651 112.155 83.7646L109.768 86.332ZM104.822 96.3965C103.713 95.3617 102.749 94.3225 101.93 93.2877C101.545 93.6981 101.177 94.2614 100.822 94.9862C100.467 95.7066 100.287 96.5887 100.287 97.6235C100.287 98.798 100.629 99.715 101.312 100.383C101.996 101.051 102.968 101.387 104.226 101.387C104.966 101.387 105.676 101.221 106.359 100.898C107.043 100.571 107.7 100.108 108.331 99.5054C107.1 98.4706 105.93 97.4314 104.822 96.3965Z" fill="#00A4AF"/>
<path d="M135.506 77.4551L134.888 81.1359H127.993V105.151H123.147V81.1359H116.129V77.4551H135.506Z" fill="#5F2852"/>
<path d="M142.401 89.4016C141.911 89.6461 141.473 89.9823 141.087 90.4059C140.702 90.8294 140.391 91.3403 140.145 91.9385C139.9 92.541 139.777 93.2047 139.777 93.9426V105.151H135.098V94.8421C135.098 93.2047 134.989 91.8337 134.77 90.729C134.551 89.6243 134.319 88.7292 134.073 88.048C133.771 87.2577 133.442 86.6158 133.088 86.1268L136.781 84.6553C137.026 84.9566 137.284 85.3234 137.56 85.76C137.78 86.1443 137.999 86.594 138.218 87.1092C138.437 87.6288 138.616 88.2401 138.752 88.9519C139.3 87.3712 140.093 86.2316 141.131 85.5373C142.169 84.8431 143.348 84.4938 144.662 84.4938C145.293 84.4938 145.88 84.568 146.428 84.7208C146.975 84.8693 147.234 84.9479 147.207 84.9479L145.893 89.4889C145.919 89.4889 145.762 89.4147 145.42 89.2619C145.078 89.1134 144.566 89.0348 143.882 89.0348C143.387 89.0305 142.892 89.1571 142.401 89.4016Z" fill="#5F2852"/>
<path d="M148.167 90.6286C148.671 89.2357 149.372 88.0699 150.261 87.1311C151.15 86.1923 152.197 85.4806 153.402 85.0047C154.607 84.5287 155.908 84.2886 157.301 84.2886C158.532 84.2886 159.579 84.437 160.442 84.7383C161.305 85.0396 162.006 85.4457 162.554 85.9653C163.101 86.4849 163.505 87.0962 163.767 87.8079C164.026 88.5152 164.157 89.2794 164.157 90.1002C164.157 91.0827 163.881 92.0171 163.334 92.9035C162.786 93.7898 161.997 94.5671 160.972 95.2351C159.947 95.9032 158.707 96.4359 157.257 96.8288C155.807 97.2262 154.177 97.4358 152.373 97.462C152.456 98.0907 152.583 98.6846 152.762 99.2435C152.938 99.8024 153.201 100.296 153.542 100.715C153.884 101.138 154.326 101.47 154.878 101.719C155.426 101.964 156.109 102.086 156.929 102.086C157.529 102.086 158.173 102.02 158.856 101.881C159.54 101.745 160.171 101.579 160.745 101.392C161.428 101.173 162.098 100.929 162.755 100.654L163.986 103.557C163.277 103.911 162.51 104.226 161.686 104.496C160.972 104.741 160.153 104.959 159.224 105.151C158.296 105.343 157.31 105.439 156.267 105.439C154.681 105.439 153.323 105.199 152.202 104.723C151.08 104.247 150.165 103.571 149.45 102.697C148.736 101.824 148.219 100.776 147.891 99.5491C147.562 98.3221 147.4 96.9598 147.4 95.4578C147.409 93.6283 147.663 92.0171 148.167 90.6286ZM154.694 88.1135C154.107 88.5371 153.634 89.0829 153.279 89.7509C152.925 90.419 152.67 91.17 152.521 91.9996C152.373 92.8336 152.281 93.6719 152.254 94.5147C153.569 94.4623 154.681 94.2876 155.601 94.0038C156.517 93.7156 157.262 93.3619 157.84 92.9384C158.414 92.5149 158.83 92.0607 159.093 91.5673C159.351 91.0783 159.483 90.5849 159.483 90.0959C159.483 89.3056 159.251 88.6724 158.786 88.1921C158.322 87.7162 157.704 87.476 156.937 87.476C156.026 87.476 155.281 87.69 154.694 88.1135Z" fill="#5F2852"/>
<path d="M184.555 95.2918C184.555 96.9292 184.656 98.3003 184.862 99.405C185.068 100.51 185.291 101.405 185.541 102.086C185.843 102.902 186.172 103.544 186.526 104.007L182.873 105.479C182.518 105.125 182.189 104.701 181.887 104.212C181.642 103.776 181.409 103.252 181.19 102.636C180.971 102.02 180.836 101.291 180.779 100.449C180.314 102.086 179.565 103.317 178.54 104.151C177.515 104.985 176.126 105.4 174.374 105.4C173.086 105.4 171.973 105.16 171.031 104.684C170.089 104.208 169.301 103.527 168.67 102.636C168.039 101.75 167.574 100.68 167.272 99.4224C166.97 98.1693 166.821 96.7764 166.821 95.2482C166.821 93.6937 167.062 92.2572 167.539 90.9298C168.017 89.6068 168.687 88.4671 169.55 87.5153C170.413 86.559 171.447 85.8124 172.648 85.2666C173.848 84.7208 175.18 84.4501 176.63 84.4501C177.453 84.4501 178.308 84.5112 179.197 84.6335C180.086 84.7557 180.914 84.8867 181.681 85.0221C182.448 85.1574 183.096 85.2884 183.631 85.4107C184.165 85.5329 184.472 85.6072 184.555 85.6377V95.2918ZM177.046 101.427C177.62 100.964 178.119 100.357 178.544 99.6058C178.969 98.8548 179.298 97.9946 179.53 97.0296C179.762 96.0603 179.881 95.0735 179.881 94.0649V88.1746C179.605 88.0916 179.197 87.9956 178.649 87.8864C178.102 87.7773 177.611 87.7249 177.173 87.7249C176.135 87.7249 175.276 87.9039 174.606 88.2576C173.936 88.6112 173.397 89.1046 172.985 89.729C172.573 90.3578 172.288 91.1044 172.122 91.9777C171.96 92.851 171.877 93.8072 171.877 94.8421C171.877 95.7983 171.903 96.7109 171.96 97.5842C172.012 98.4574 172.157 99.2347 172.389 99.9158C172.621 100.597 172.959 101.138 173.397 101.531C173.835 101.929 174.422 102.125 175.162 102.125C175.841 102.125 176.468 101.894 177.046 101.427Z" fill="#5F2852"/>
<path d="M187.797 84.7776H191.49L192.309 79.992L196.169 79.1318V84.7776H201.22L200.646 88.0917H196.173V100.2C196.173 100.907 196.366 101.365 196.747 101.571C197.128 101.776 197.553 101.876 198.022 101.876C198.403 101.876 198.789 101.85 199.17 101.793C199.551 101.741 199.893 101.671 200.195 101.588C200.55 101.505 200.892 101.409 201.22 101.304L202 104.374L201.632 104.496C201.387 104.605 201.023 104.723 200.545 104.845C200.068 104.968 199.507 105.077 198.863 105.173C198.219 105.269 197.514 105.317 196.747 105.317C195.981 105.317 195.275 105.234 194.636 105.073C193.992 104.907 193.44 104.645 192.971 104.274C192.506 103.907 192.143 103.435 191.884 102.863C191.621 102.291 191.494 101.579 191.494 100.737V88.096H187.801V84.7776H187.797Z" fill="#5F2852"/>
<path d="M86.5355 121.787C83.942 123.791 81.0462 125.498 77.8744 126.826C58.4449 134.947 36.0889 125.83 27.9403 106.465C23.3447 95.5407 24.2515 83.6903 29.4035 73.9751C26.3456 74.2545 23.4279 76.8089 23.4805 76.6692C21.3207 78.4768 20.1992 81.0574 20.1203 81.2364C18.9068 87.6026 19.082 94.2744 20.8125 100.785C21.3382 103.208 22.0874 105.614 23.0862 107.985C31.8218 128.751 55.7944 138.528 76.6302 129.821C81.3397 127.852 85.4841 125.101 88.9801 121.791H86.5355V121.787Z" fill="url(#paint11_linear_2706_13091)"/>
</g>
<defs>
<linearGradient id="paint0_linear_2706_13091" x1="45.96" y1="47.558" x2="55.207" y2="69.6836" gradientUnits="userSpaceOnUse">
<stop stop-color="#00A4AF"/>
<stop offset="1" stop-color="#28B8CE"/>
</linearGradient>
<linearGradient id="paint1_linear_2706_13091" x1="33.0746" y1="66.7585" x2="38.6981" y2="79.9368" gradientUnits="userSpaceOnUse">
<stop stop-color="#783968"/>
<stop offset="1" stop-color="#5F2852"/>
</linearGradient>
<linearGradient id="paint2_linear_2706_13091" x1="64.8204" y1="42.6341" x2="76.8883" y2="70.9142" gradientUnits="userSpaceOnUse">
<stop stop-color="#783968"/>
<stop offset="1" stop-color="#5F2852"/>
</linearGradient>
<linearGradient id="paint3_linear_2706_13091" x1="73.858" y1="53.4764" x2="75.6978" y2="57.7877" gradientUnits="userSpaceOnUse">
<stop stop-color="#783968"/>
<stop offset="1" stop-color="#5F2852"/>
</linearGradient>
<linearGradient id="paint4_linear_2706_13091" x1="67.6538" y1="49.2293" x2="70.8986" y2="56.833" gradientUnits="userSpaceOnUse">
<stop stop-color="#783968"/>
<stop offset="1" stop-color="#5F2852"/>
</linearGradient>
<linearGradient id="paint5_linear_2706_13091" x1="62.6029" y1="48.2427" x2="65.7026" y2="55.5066" gradientUnits="userSpaceOnUse">
<stop stop-color="#783968"/>
<stop offset="1" stop-color="#5F2852"/>
</linearGradient>
<linearGradient id="paint6_linear_2706_13091" x1="58.0944" y1="50.2346" x2="59.7079" y2="54.0157" gradientUnits="userSpaceOnUse">
<stop stop-color="#783968"/>
<stop offset="1" stop-color="#5F2852"/>
</linearGradient>
<linearGradient id="paint7_linear_2706_13091" x1="44.4031" y1="57.3318" x2="47.2905" y2="64.2407" gradientUnits="userSpaceOnUse">
<stop stop-color="#00A4AF"/>
<stop offset="1" stop-color="#28B8CE"/>
</linearGradient>
<linearGradient id="paint8_linear_2706_13091" x1="38.5117" y1="57.1912" x2="42.2121" y2="66.0453" gradientUnits="userSpaceOnUse">
<stop stop-color="#00A4AF"/>
<stop offset="1" stop-color="#28B8CE"/>
</linearGradient>
<linearGradient id="paint9_linear_2706_13091" x1="33.7847" y1="58.8134" x2="37.056" y2="66.6408" gradientUnits="userSpaceOnUse">
<stop stop-color="#00A4AF"/>
<stop offset="1" stop-color="#28B8CE"/>
</linearGradient>
<linearGradient id="paint10_linear_2706_13091" x1="29.5127" y1="62.4761" x2="31.4522" y2="67.1167" gradientUnits="userSpaceOnUse">
<stop stop-color="#00A4AF"/>
<stop offset="1" stop-color="#28B8CE"/>
</linearGradient>
<linearGradient id="paint11_linear_2706_13091" x1="-4.32124" y1="105.175" x2="88.3121" y2="102.01" gradientUnits="userSpaceOnUse">
<stop stop-color="#00A4AF"/>
<stop offset="1" stop-color="#28B8CE"/>
</linearGradient>
<clipPath id="clip0_2706_13091">
<rect width="184" height="90" fill="white" transform="translate(18 43)"/>
</clipPath>
</defs>
</svg>
