<svg
   width="1340"
   height="1332"
   viewBox="0 0 1340 1332"
   fill="none"
   version="1.1"
   id="svg433"
   xmlns="http://www.w3.org/2000/svg">
  <path
     d="M726.719 611.217C726.482 611.236 726.272 612.013 726.25 612.961C726.228 613.908 726.427 614.66 726.667 614.655C726.904 614.636 727.114 613.859 727.136 612.911C727.157 611.964 726.975 611.209 726.719 611.217Z"
     fill="#00205C"
     id="path61" />
  <path
     d="M726.838 597.663C726.601 597.682 726.399 599.206 726.386 601.082C726.373 602.958 726.563 604.461 726.801 604.442C727.038 604.423 727.24 602.898 727.253 601.023C727.265 599.147 727.075 597.644 726.838 597.663Z"
     fill="#00205C"
     id="path63" />
  <path
     d="M726.633 584.13C726.396 584.149 726.23 585.68 726.267 587.546C726.304 589.412 726.527 590.909 726.781 590.887C727.018 590.868 727.184 589.336 727.147 587.47C727.11 585.604 726.868 584.098 726.633 584.13Z"
     fill="#00205C"
     id="path65" />
  <path
     d="M725.935 570.625C725.7 570.658 725.603 572.189 725.706 574.042C725.829 575.905 726.119 577.389 726.356 577.37C726.593 577.351 726.69 575.819 726.584 573.953C726.462 572.09 726.172 570.606 725.935 570.625Z"
     fill="#00205C"
     id="path67" />
  <path
     d="M724.483 557.226C724.249 557.259 724.237 558.787 724.46 560.631C724.682 562.474 725.071 563.938 725.306 563.906C725.541 563.874 725.552 562.345 725.33 560.501C725.107 558.658 724.735 557.191 724.483 557.226Z"
     fill="#00205C"
     id="path69" />
  <path
     d="M722.081 543.973C721.848 544.018 721.956 545.538 722.313 547.369C722.685 549.183 723.174 550.627 723.406 550.581C723.638 550.536 723.531 549.016 723.173 547.186C722.818 545.368 722.313 543.927 722.081 543.973Z"
     fill="#00205C"
     id="path71" />
  <path
     d="M718.477 530.997C718.25 531.069 718.49 532.562 719.041 534.327C719.579 536.109 720.211 537.497 720.441 537.438C720.671 537.379 720.431 535.886 719.877 534.108C719.339 532.326 718.707 530.938 718.477 530.997Z"
     fill="#00205C"
     id="path73" />
  <path
     d="M713.458 518.424C713.233 518.51 713.655 519.967 714.386 521.683C715.134 523.395 715.91 524.727 716.154 524.651C716.381 524.579 715.958 523.122 715.225 521.393C714.475 519.667 713.682 518.339 713.458 518.424Z"
     fill="#00205C"
     id="path75" />
  <path
     d="M706.787 506.467C706.568 506.58 707.201 507.968 708.186 509.577C709.171 511.187 710.152 512.423 710.358 512.327C710.579 512.228 709.964 510.837 708.959 509.217C707.974 507.607 707.009 506.368 706.787 506.467Z"
     fill="#00205C"
     id="path77" />
  <path
     d="M698.268 495.429C698.069 495.551 698.908 496.857 700.145 498.347C701.38 499.824 702.544 500.941 702.747 500.831C702.949 500.722 702.109 499.417 700.87 497.913C699.646 496.406 698.468 495.306 698.268 495.429Z"
     fill="#00205C"
     id="path79" />
  <path
     d="M688.034 485.463C687.856 485.609 688.898 486.804 690.36 488.126C691.822 489.447 693.164 490.417 693.361 490.281C693.558 490.145 692.5 488.952 691.035 487.618C689.554 486.287 688.215 485.33 688.034 485.463Z"
     fill="#00205C"
     id="path81" />
  <path
     d="M676.152 476.833C675.996 477.002 677.249 478.045 678.933 479.184C680.617 480.322 682.132 481.12 682.291 480.963C682.466 480.804 681.213 479.761 679.51 478.613C677.823 477.461 676.309 476.663 676.152 476.833Z"
     fill="#00205C"
     id="path83" />
  <path
     d="M662.715 469.827C662.594 470.003 664.036 470.87 665.932 471.773C667.828 472.675 669.49 473.263 669.63 473.097C669.77 472.93 668.328 472.063 666.413 471.151C664.498 470.239 662.835 469.651 662.715 469.827Z"
     fill="#00205C"
     id="path85" />
  <path
     d="M647.854 464.863C647.772 465.059 649.392 465.697 651.47 466.3C653.548 466.902 655.335 467.244 655.436 467.058C655.537 466.871 653.917 466.234 651.819 465.621C649.706 465.011 647.939 464.68 647.854 464.863Z"
     fill="#00205C"
     id="path87" />
  <path
     d="M631.879 462.379C631.85 462.579 633.605 462.94 635.836 463.18C638.05 463.424 639.916 463.472 639.982 463.279C640.047 463.086 638.275 462.728 636.025 462.478C633.776 462.228 631.926 462.176 631.879 462.379Z"
     fill="#00205C"
     id="path89" />
  <path
     d="M619.461 462.345C619.465 462.538 620.383 462.663 621.543 462.615C622.686 462.57 623.627 462.371 623.64 462.175C623.653 461.978 622.719 461.857 621.559 461.905C620.416 461.949 619.474 462.148 619.461 462.345Z"
     fill="#00205C"
     id="path91" />
  <path
     d="M662.898 1085.54C662.725 1085.4 662.028 1085.89 661.335 1086.64C660.643 1087.39 660.239 1088.13 660.404 1088.29C660.577 1088.43 661.274 1087.94 661.967 1087.19C662.659 1086.43 663.077 1085.7 662.898 1085.54Z"
     fill="#00205C"
     id="path93" />
  <path
     d="M672.674 1074.64C672.501 1074.5 671.275 1075.6 669.924 1077.11C668.574 1078.62 667.627 1079.96 667.8 1080.11C667.973 1080.25 669.2 1079.15 670.55 1077.64C671.9 1076.13 672.848 1074.78 672.674 1074.64Z"
     fill="#00205C"
     id="path95" />
  <path
     d="M682.217 1063.54C682.044 1063.4 680.837 1064.53 679.527 1066.07C678.217 1067.6 677.297 1068.96 677.483 1069.11C677.657 1069.26 678.864 1068.13 680.174 1066.59C681.484 1065.05 682.398 1063.67 682.217 1063.54Z"
     fill="#00205C"
     id="path97" />
  <path
     d="M691.408 1052.14C691.227 1052.01 690.066 1053.19 688.81 1054.76C687.56 1056.35 686.694 1057.74 686.867 1057.88C687.04 1058.03 688.201 1056.85 689.465 1055.27C690.715 1053.68 691.581 1052.28 691.408 1052.14Z"
     fill="#00205C"
     id="path99" />
  <path
     d="M700.017 1040.33C699.836 1040.2 698.735 1041.43 697.565 1043.07C696.396 1044.71 695.611 1046.15 695.792 1046.28C695.973 1046.41 697.074 1045.18 698.243 1043.54C699.413 1041.9 700.211 1040.47 700.017 1040.33Z"
     fill="#00205C"
     id="path101" />
  <path
     d="M707.881 1028C707.692 1027.88 706.678 1029.18 705.608 1030.9C704.561 1032.62 703.856 1034.11 704.045 1034.23C704.234 1034.35 705.249 1033.05 706.318 1031.33C707.379 1029.62 708.07 1028.12 707.881 1028Z"
     fill="#00205C"
     id="path103" />
  <path
     d="M714.739 1015.1C714.534 1015.01 713.628 1016.38 712.736 1018.17C711.823 1019.97 711.256 1021.51 711.453 1021.62C711.649 1021.72 712.556 1020.35 713.455 1018.55C714.368 1016.75 714.936 1015.2 714.739 1015.1Z"
     fill="#00205C"
     id="path105" />
  <path
     d="M720.355 1001.59C720.143 1001.51 719.385 1002.97 718.649 1004.84C717.927 1006.72 717.497 1008.32 717.715 1008.42C717.919 1008.51 718.678 1007.05 719.421 1005.16C720.151 1003.27 720.568 1001.67 720.355 1001.59Z"
     fill="#00205C"
     id="path107" />
  <path
     d="M724.421 987.476C724.193 987.422 723.626 988.966 723.137 990.923C722.648 992.88 722.424 994.532 722.631 994.591C722.851 994.658 723.432 993.122 723.915 991.144C724.404 989.187 724.641 987.543 724.421 987.476Z"
     fill="#00205C"
     id="path109" />
  <path
     d="M726.585 972.884C726.363 972.85 725.995 974.465 725.761 976.493C725.535 978.508 725.519 980.184 725.734 980.23C725.948 980.276 726.317 978.662 726.558 976.622C726.814 974.589 726.808 972.917 726.585 972.884Z"
     fill="#00205C"
     id="path111" />
  <path
     d="M726.829 958.022C726.604 958.022 726.45 959.682 726.488 961.722C726.527 963.762 726.736 965.438 726.966 965.458C727.196 965.479 727.337 963.811 727.306 961.759C727.262 959.698 727.045 958.034 726.829 958.022Z"
     fill="#00205C"
     id="path113" />
  <path
     d="M725.008 943.15C724.781 943.183 724.878 944.859 725.197 946.899C725.515 948.938 725.964 950.589 726.182 950.568C726.414 950.555 726.318 948.879 725.993 946.819C725.682 944.767 725.234 943.116 725.008 943.15Z"
     fill="#00205C"
     id="path115" />
  <path
     d="M720.978 928.56C720.771 928.623 721.121 930.282 721.751 932.271C722.381 934.259 723.079 935.838 723.292 935.796C723.505 935.754 723.155 934.096 722.519 932.086C721.883 930.077 721.185 928.498 720.978 928.56Z"
     fill="#00205C"
     id="path117" />
  <path
     d="M714.53 914.68C714.334 914.785 714.968 916.376 715.935 918.243C716.902 920.11 717.86 921.572 718.061 921.488C718.263 921.405 717.628 919.813 716.656 917.925C715.67 916.029 714.718 914.588 714.53 914.68Z"
     fill="#00205C"
     id="path119" />
  <path
     d="M705.558 902.071C705.395 902.213 706.318 903.67 707.647 905.344C708.962 907.01 710.184 908.288 710.366 908.175C710.548 908.062 709.612 906.596 708.277 904.901C706.942 903.206 705.735 901.937 705.558 902.071Z"
     fill="#00205C"
     id="path121" />
  <path
     d="M697.227 893.804C697.091 893.963 697.62 894.673 698.435 895.404C699.236 896.126 700.011 896.589 700.161 896.439C700.31 896.288 699.768 895.57 698.953 894.839C698.152 894.117 697.377 893.654 697.227 893.804Z"
     fill="#00205C"
     id="path123" />
  <path
     d="M592.763 494.31C592.967 494.34 593.055 495.159 592.967 496.168C592.865 497.177 592.617 497.967 592.412 497.953C592.208 497.938 592.12 497.104 592.208 496.095C592.31 495.086 592.559 494.296 592.763 494.31Z"
     fill="#00205C"
     id="path125" />
  <path
     d="M594.705 480.064C594.91 480.093 594.837 481.716 594.545 483.676C594.253 485.636 593.829 487.202 593.625 487.172C593.42 487.143 593.493 485.534 593.785 483.559C594.092 481.599 594.501 480.034 594.705 480.064Z"
     fill="#00205C"
     id="path127" />
  <path
     d="M597.583 465.978C597.787 466.021 597.612 467.63 597.174 469.576C596.75 471.507 596.224 473.043 596.02 472.999C595.815 472.955 595.991 471.346 596.429 469.4C596.867 467.455 597.378 465.934 597.583 465.978Z"
     fill="#00205C"
     id="path129" />
  <path
     d="M601.467 452.14C601.672 452.199 601.365 453.793 600.796 455.695C600.226 457.596 599.598 459.088 599.394 459.03C599.189 458.971 599.496 457.377 600.065 455.475C600.65 453.559 601.278 452.067 601.467 452.14Z"
     fill="#00205C"
     id="path131" />
  <path
     d="M606.477 438.669C606.667 438.756 606.229 440.307 605.498 442.15C604.768 443.993 604.009 445.426 603.819 445.353C603.629 445.28 604.052 443.715 604.797 441.872C605.542 440.014 606.287 438.581 606.477 438.669Z"
     fill="#00205C"
     id="path133" />
  <path
     d="M612.699 425.724C612.888 425.826 612.304 427.333 611.399 429.088C610.493 430.843 609.617 432.204 609.427 432.116C609.237 432.028 609.821 430.521 610.727 428.752C611.632 426.967 612.523 425.621 612.699 425.724Z"
     fill="#00205C"
     id="path135" />
  <path
     d="M620.205 413.466C620.381 413.583 619.621 415.017 618.526 416.655C617.474 418.337 616.467 419.595 616.291 419.493C616.116 419.39 616.832 417.927 617.898 416.245C618.993 414.592 620.045 413.349 620.205 413.466Z"
     fill="#00205C"
     id="path137" />
  <path
     d="M629.056 402.145C629.217 402.291 628.311 403.637 627.055 405.158C625.799 406.679 624.631 407.805 624.47 407.674C624.309 407.542 625.2 406.196 626.471 404.661C627.741 403.125 628.895 401.998 629.056 402.145Z"
     fill="#00205C"
     id="path139" />
  <path
     d="M639.177 391.95C639.323 392.11 638.272 393.339 636.826 394.699C635.394 396.06 634.109 397.04 633.963 396.894C633.817 396.747 634.869 395.519 636.314 394.144C637.746 392.769 639.031 391.789 639.177 391.95Z"
     fill="#00205C"
     id="path141" />
  <path
     d="M650.481 383.085C650.598 383.261 649.4 384.343 647.808 385.514C646.216 386.684 644.814 387.503 644.683 387.327C644.552 387.166 645.749 386.069 647.356 384.899C648.962 383.729 650.364 382.91 650.481 383.085Z"
     fill="#00205C"
     id="path143" />
  <path
     d="M662.851 375.801C662.939 375.991 661.61 376.913 659.872 377.849C658.134 378.785 656.644 379.414 656.527 379.224C656.425 379.048 657.754 378.127 659.507 377.176C661.259 376.24 662.764 375.611 662.851 375.801Z"
     fill="#00205C"
     id="path145" />
  <path
     d="M676.142 370.389C676.2 370.594 674.754 371.296 672.9 371.969C671.045 372.642 669.482 373.037 669.394 372.832C669.307 372.642 670.767 371.925 672.637 371.252C674.521 370.579 676.083 370.199 676.142 370.389Z"
     fill="#00205C"
     id="path147" />
  <path
     d="M690.118 367.142C690.148 367.347 688.6 367.771 686.657 368.107C684.729 368.517 683.123 368.678 683.079 368.473C683.035 368.268 684.569 367.771 686.526 367.361C688.468 367.01 690.089 366.923 690.118 367.142Z"
     fill="#00205C"
     id="path149" />
  <path
     d="M704.446 366.337C704.431 366.542 702.839 366.732 700.868 366.762C698.896 366.791 697.289 366.63 697.275 366.425C697.26 366.22 698.867 366.03 700.853 366.001C702.839 365.986 704.446 366.133 704.446 366.337Z"
     fill="#00205C"
     id="path151" />
  <path
     d="M718.686 368.02C718.642 368.224 717.021 368.137 715.078 367.829C713.136 367.508 711.573 367.083 711.588 366.879C711.617 366.674 713.223 366.762 715.195 367.069C717.167 367.391 718.729 367.815 718.686 368.02Z"
     fill="#00205C"
     id="path153" />
  <path
     d="M732.429 372.13C732.356 372.32 730.778 371.954 728.909 371.311C727.039 370.667 725.579 369.98 725.637 369.775C725.696 369.57 727.273 369.936 729.157 370.594C731.056 371.252 732.516 371.94 732.429 372.13Z"
     fill="#00205C"
     id="path155" />
  <path
     d="M745.208 378.653C745.091 378.829 743.616 378.185 741.907 377.205C740.198 376.225 738.884 375.275 738.972 375.099C739.059 374.909 740.549 375.567 742.272 376.547C744.01 377.542 745.325 378.478 745.208 378.653Z"
     fill="#00205C"
     id="path157" />
  <path
     d="M756.468 387.561C756.322 387.708 754.993 386.772 753.518 385.484C752.043 384.183 750.947 382.998 751.064 382.822C751.196 382.661 752.51 383.583 754.014 384.914C755.519 386.216 756.614 387.415 756.468 387.561Z"
     fill="#00205C"
     id="path159" />
  <path
     d="M763.551 395.753C763.376 395.87 762.748 395.329 762.135 394.539C761.521 393.749 761.156 392.988 761.317 392.857C761.477 392.725 762.12 393.266 762.733 394.071C763.361 394.875 763.727 395.621 763.551 395.753Z"
     fill="#00205C"
     id="path161" />
  <path
     d="M655.011 883.705C655.064 883.505 655.888 883.512 656.88 883.715C657.871 883.933 658.627 884.27 658.589 884.472C658.551 884.673 657.713 884.664 656.72 884.461C655.729 884.243 654.973 883.906 655.011 883.705Z"
     fill="#00205C"
     id="path163" />
  <path
     d="M641.083 880.136C641.135 879.936 642.74 880.196 644.653 880.711C646.566 881.227 648.072 881.828 648.02 882.027C647.967 882.227 646.377 881.97 644.449 881.452C642.538 880.922 641.03 880.336 641.083 880.136Z"
     fill="#00205C"
     id="path165" />
  <path
     d="M627.421 875.657C627.488 875.459 629.066 875.818 630.949 876.477C632.818 877.12 634.283 877.819 634.216 878.017C634.149 878.215 632.571 877.856 630.688 877.197C628.806 876.538 627.354 875.855 627.421 875.657Z"
     fill="#00205C"
     id="path167" />
  <path
     d="M614.123 870.206C614.204 870.01 615.753 870.498 617.576 871.283C619.4 872.067 620.809 872.863 620.728 873.059C620.646 873.255 619.098 872.767 617.274 871.983C615.438 871.182 614.028 870.386 614.123 870.206Z"
     fill="#00205C"
     id="path169" />
  <path
     d="M601.317 863.68C601.426 863.502 602.916 864.115 604.662 865.053C606.409 865.99 607.746 866.909 607.651 867.09C607.557 867.27 606.051 866.669 604.306 865.717C602.546 864.763 601.208 863.859 601.317 863.68Z"
     fill="#00205C"
     id="path171" />
  <path
     d="M589.174 856.01C589.297 855.834 590.727 856.587 592.366 857.689C594.006 858.79 595.256 859.817 595.147 859.996C595.038 860.174 593.609 859.42 591.955 858.317C590.286 857.213 589.052 856.173 589.174 856.01Z"
     fill="#00205C"
     id="path173" />
  <path
     d="M577.861 847.143C577.998 846.983 579.334 847.902 580.836 849.178C582.385 850.417 583.519 851.562 583.397 851.725C583.275 851.887 581.905 851.008 580.356 849.755C578.841 848.477 577.726 847.289 577.861 847.143Z"
     fill="#00205C"
     id="path175" />
  <path
     d="M567.633 837.049C567.797 836.906 569.03 837.96 570.396 839.383C571.763 840.806 572.747 842.096 572.598 842.24C572.449 842.385 571.214 841.345 569.835 839.906C568.456 838.467 567.469 837.192 567.633 837.049Z"
     fill="#00205C"
     id="path177" />
  <path
     d="M558.67 825.822C558.847 825.695 559.946 826.881 561.131 828.474C562.318 830.052 563.144 831.442 562.982 831.57C562.819 831.698 561.72 830.512 560.52 828.918C559.319 827.338 558.494 825.949 558.67 825.822Z"
     fill="#00205C"
     id="path179" />
  <path
     d="M551.166 813.573C551.353 813.477 552.291 814.792 553.27 816.507C554.249 818.223 554.902 819.71 554.712 819.821C554.537 819.933 553.585 818.617 552.608 816.887C551.63 815.156 550.978 813.669 551.166 813.573Z"
     fill="#00205C"
     id="path181" />
  <path
     d="M545.353 800.447C545.552 800.382 546.314 801.808 547.044 803.642C547.774 805.476 548.228 807.028 548.025 807.123C547.839 807.204 547.077 805.778 546.334 803.927C545.606 802.079 545.154 800.512 545.353 800.447Z"
     fill="#00205C"
     id="path183" />
  <path
     d="M541.506 786.622C541.716 786.588 542.247 788.105 542.702 790.025C543.157 791.944 543.37 793.542 543.156 793.606C542.957 793.671 542.413 792.138 541.96 790.203C541.508 788.254 541.31 786.658 541.506 786.622Z"
     fill="#00205C"
     id="path185" />
  <path
     d="M539.888 772.365C540.095 772.359 540.338 773.946 540.449 775.914C540.634 777.876 540.609 779.491 540.401 779.511C540.192 779.531 539.875 777.95 539.693 775.959C539.568 773.989 539.667 772.369 539.888 772.365Z"
     fill="#00205C"
     id="path187" />
  <path
     d="M540.738 758.04C540.939 758.078 540.945 759.681 540.747 761.643C540.549 763.605 540.205 765.182 540 765.173C539.795 765.164 539.79 763.547 539.99 761.57C540.204 759.595 540.534 758.016 540.738 758.04Z"
     fill="#00205C"
     id="path189" />
  <path
     d="M544.047 744.088C544.245 744.155 543.971 745.756 543.443 747.65C542.9 749.542 542.299 751.046 542.097 751.008C541.897 750.955 542.169 749.369 542.701 747.446C543.247 745.525 543.848 744.021 544.047 744.088Z"
     fill="#00205C"
     id="path191" />
  <path
     d="M549.711 730.909C549.891 731.004 549.347 732.528 548.492 734.311C547.638 736.094 546.787 737.466 546.59 737.384C546.394 737.303 546.938 735.778 547.809 733.982C548.681 732.172 549.532 730.8 549.711 730.909Z"
     fill="#00205C"
     id="path193" />
  <path
     d="M557.662 718.966C557.822 719.102 557.013 720.493 555.843 722.078C554.673 723.662 553.578 724.859 553.413 724.751C553.234 724.643 554.06 723.238 555.231 721.639C556.419 720.027 557.501 718.829 557.662 718.966Z"
     fill="#00205C"
     id="path195" />
  <path
     d="M567.806 708.805C567.934 708.967 566.852 710.179 565.403 711.497C563.94 712.812 562.637 713.764 562.476 713.628C562.332 713.478 563.398 712.279 564.894 710.938C566.36 709.593 567.677 708.643 567.806 708.805Z"
     fill="#00205C"
     id="path197" />
  <path
     d="M576.758 702.711C576.854 702.899 576.244 703.46 575.389 703.979C574.534 704.497 573.736 704.772 573.624 704.598C573.511 704.423 574.123 703.847 574.993 703.33C575.864 702.799 576.647 702.522 576.758 702.711Z"
     fill="#00205C"
     id="path199" />
  <path
     d="M657.309 71.8863C657.012 71.9843 656.309 70.9205 655.767 69.494C655.226 68.0675 655.024 66.8079 655.316 66.6883C655.602 66.5471 656.289 67.6379 656.858 69.0806C657.41 70.5503 657.611 71.8099 657.309 71.8863Z"
     fill="#00205C"
     id="path201" />
  <path
     d="M660.275 93.9252C659.951 93.9152 659.851 91.4115 659.729 88.3616C659.606 85.3118 659.512 82.8297 659.841 82.7695C660.149 82.7147 660.773 85.201 660.89 88.3211C661.007 91.4413 660.578 93.9408 660.275 93.9252Z"
     fill="#00205C"
     id="path203" />
  <path
     d="M655.585 115.689C655.282 115.581 655.938 113.163 656.831 110.225C657.724 107.287 658.482 104.912 658.801 104.992C659.114 105.051 658.852 107.577 657.949 110.563C657.045 113.55 655.887 115.796 655.585 115.689Z"
     fill="#00205C"
     id="path205" />
  <path
     d="M645.225 135.412C644.95 135.229 646.167 133.037 647.756 130.406C649.345 127.775 650.729 125.702 650.994 125.841C651.28 125.976 650.338 128.351 648.733 131.009C647.133 133.688 645.479 135.6 645.225 135.412Z"
     fill="#00205C"
     id="path207" />
  <path
     d="M630.957 152.534C630.741 152.313 632.228 150.283 634.302 148.035C636.377 145.788 638.252 144.119 638.506 144.307C638.765 144.518 637.251 146.531 635.161 148.806C633.054 151.108 631.179 152.777 630.957 152.534Z"
     fill="#00205C"
     id="path209" />
  <path
     d="M613.837 166.789C613.659 166.535 615.496 164.808 617.921 162.954C620.367 161.096 622.496 159.799 622.718 160.042C622.918 160.29 621.102 162.012 618.634 163.877C616.15 165.768 614.021 167.064 613.837 166.789Z"
     fill="#00205C"
     id="path211" />
  <path
     d="M594.706 178.24C594.565 177.954 596.613 176.518 599.313 175.032C601.991 173.552 604.314 172.575 604.476 172.855C604.639 173.135 602.591 174.571 599.869 176.063C597.169 177.549 594.846 178.526 594.706 178.24Z"
     fill="#00205C"
     id="path213" />
  <path
     d="M574.372 187.374C574.253 187.082 576.446 185.862 579.292 184.684C582.132 183.485 584.52 182.767 584.661 183.052C584.801 183.338 582.581 184.542 579.741 185.742C576.901 186.941 574.491 187.665 574.372 187.374Z"
     fill="#00205C"
     id="path215" />
  <path
     d="M553.378 194.88C553.28 194.583 555.56 193.526 558.476 192.537C561.391 191.548 563.839 190.976 563.942 191.294C564.039 191.591 561.781 192.643 558.844 193.638C555.928 194.626 553.475 195.177 553.378 194.88Z"
     fill="#00205C"
     id="path217" />
  <path
     d="M537.431 199.848C537.333 199.551 538.459 198.922 539.931 198.482C541.403 198.041 542.659 197.931 542.756 198.227C542.854 198.524 541.728 199.153 540.256 199.594C538.79 200.056 537.512 200.172 537.431 199.848Z"
     fill="#00205C"
     id="path219" />
  <path
     d="M782.159 345.411C782.401 345.452 782.274 347.373 781.854 349.728C781.451 352.078 780.915 353.931 780.673 353.889C780.43 353.847 780.57 351.906 780.977 349.572C781.385 347.238 781.905 345.39 782.159 345.411Z"
     fill="#00205C"
     id="path221" />
  <path
     d="M783.398 328.275C783.644 328.262 783.771 330.203 783.697 332.59C783.607 334.981 783.35 336.883 783.096 336.862C782.842 336.842 782.719 334.917 782.797 332.547C782.88 330.194 783.153 328.287 783.398 328.275Z"
     fill="#00205C"
     id="path223" />
  <path
     d="M781.618 311.202C781.855 311.156 782.352 313.016 782.715 315.374C783.079 317.732 783.168 319.666 782.927 319.695C782.686 319.725 782.185 317.848 781.831 315.523C781.472 313.181 781.382 311.247 781.618 311.202Z"
     fill="#00205C"
     id="path225" />
  <path
     d="M776.672 294.765C776.896 294.67 777.72 296.424 778.515 298.667C779.293 300.914 779.744 302.804 779.512 302.866C779.28 302.928 778.46 301.191 777.67 298.965C776.896 296.734 776.445 294.844 776.672 294.765Z"
     fill="#00205C"
     id="path227" />
  <path
     d="M769.265 279.276C769.48 279.147 770.58 280.738 771.726 282.832C772.81 284.961 773.455 286.781 773.237 286.893C773.001 287.009 772.008 285.354 770.933 283.259C769.808 281.176 769.067 279.4 769.265 279.276Z"
     fill="#00205C"
     id="path229" />
  <path
     d="M759.047 265.485C759.231 265.311 760.606 266.667 762.126 268.5C763.646 270.333 764.717 271.949 764.523 272.09C764.33 272.231 762.939 270.879 761.444 269.075C759.95 267.271 758.862 265.659 759.047 265.485Z"
     fill="#00205C"
     id="path231" />
  <path
     d="M746.147 254.212C746.29 254.014 747.994 254.943 749.878 256.41C751.762 257.878 753.071 259.323 752.903 259.492C752.739 259.679 751.177 258.551 749.319 257.112C747.473 255.652 746.005 254.41 746.147 254.212Z"
     fill="#00205C"
     id="path233" />
  <path
     d="M731.04 246.166C731.119 245.931 733.008 246.419 735.174 247.418C737.341 248.418 738.948 249.515 738.827 249.726C738.71 249.953 736.93 249.205 734.805 248.229C732.663 247.258 730.944 246.405 731.04 246.166Z"
     fill="#00205C"
     id="path235" />
  <path
     d="M714.386 242.289C714.411 242.052 716.348 241.993 718.704 242.372C721.06 242.752 722.901 243.395 722.842 243.642C722.784 243.888 720.883 243.618 718.569 243.262C716.25 242.89 714.365 242.544 714.386 242.289Z"
     fill="#00205C"
     id="path237" />
  <path
     d="M697.374 243.58C697.312 243.348 699.131 242.646 701.499 242.277C703.863 241.89 705.823 241.985 705.831 242.214C705.843 242.46 703.956 242.771 701.646 243.161C699.328 243.517 697.436 243.812 697.374 243.58Z"
     fill="#00205C"
     id="path239" />
  <path
     d="M681.686 250.355C681.562 250.157 683.08 248.931 685.196 247.812C687.311 246.692 689.181 246.118 689.26 246.346C689.355 246.569 687.669 247.502 685.604 248.608C683.534 249.698 681.814 250.569 681.686 250.355Z"
     fill="#00205C"
     id="path241" />
  <path
     d="M668.762 261.568C668.58 261.421 669.652 259.781 671.347 258.081C673.041 256.38 674.646 255.273 674.803 255.462C674.96 255.651 673.643 257.036 671.977 258.711C670.327 260.382 668.96 261.71 668.762 261.568Z"
     fill="#00205C"
     id="path243" />
  <path
     d="M660.031 276.248C659.797 276.168 660.282 274.259 661.325 272.11C662.364 269.945 663.566 268.394 663.781 268.532C663.995 268.67 663.157 270.39 662.139 272.496C661.103 274.607 660.27 276.343 660.031 276.248Z"
     fill="#00205C"
     id="path245" />
  <path
     d="M657.336 293.116C657.091 293.129 656.768 291.187 656.908 288.782C657.048 286.378 657.592 284.488 657.817 284.534C658.06 284.575 657.928 286.479 657.791 288.829C657.655 291.18 657.582 293.103 657.336 293.116Z"
     fill="#00205C"
     id="path247" />
  <path
     d="M662.009 309.519C661.795 309.648 660.64 308.054 659.742 305.821C658.827 303.593 658.503 301.651 658.736 301.589C658.984 301.522 659.659 303.316 660.556 305.478C661.454 307.639 662.24 309.385 662.009 309.519Z"
     fill="#00205C"
     id="path249" />
  <path
     d="M673.834 321.684C673.73 321.89 671.887 321.176 669.978 319.679C668.073 318.2 666.903 316.611 667.071 316.441C667.255 316.267 668.678 317.539 670.516 318.965C672.357 320.409 673.951 321.457 673.834 321.684Z"
     fill="#00205C"
     id="path251" />
  <path
     d="M690.442 324.256C690.487 324.493 688.605 325.088 686.19 325.15C683.774 325.213 681.857 324.68 681.899 324.438C681.936 324.179 683.839 324.325 686.162 324.251C688.495 324.211 690.392 324.003 690.442 324.256Z"
     fill="#00205C"
     id="path253" />
  <path
     d="M705.64 316.707C705.809 316.875 704.502 318.364 702.503 319.719C700.504 321.075 698.656 321.732 698.548 321.53C698.432 321.294 700.067 320.303 702.005 318.982C703.942 317.662 705.467 316.523 705.64 316.707Z"
     fill="#00205C"
     id="path255" />
  <path
     d="M715.062 302.554C715.297 302.633 714.849 304.55 713.768 306.691C712.692 308.848 711.427 310.363 711.229 310.22C711.015 310.082 711.932 308.394 712.967 306.284C714.011 304.206 714.807 302.462 715.062 302.554Z"
     fill="#00205C"
     id="path257" />
  <path
     d="M717.753 285.669C717.998 285.656 718.251 287.599 718.089 289.991C717.928 292.384 717.401 294.269 717.159 294.228C716.917 294.186 717.027 292.27 717.185 289.932C717.359 287.589 717.508 285.681 717.753 285.669Z"
     fill="#00205C"
     id="path259" />
  <path
     d="M714.919 268.772C715.146 268.693 715.959 270.468 716.509 272.794C717.076 275.116 717.191 277.078 716.95 277.107C716.697 277.158 716.2 275.298 715.642 273.009C715.084 270.721 714.674 268.855 714.919 268.772Z"
     fill="#00205C"
     id="path261" />
  <path
     d="M707.553 253.307C707.747 253.166 708.987 254.683 710.166 256.769C711.345 258.854 711.978 260.695 711.755 260.79C711.536 260.903 710.543 259.248 709.39 257.191C708.237 255.134 707.339 253.436 707.553 253.307Z"
     fill="#00205C"
     id="path263" />
  <path
     d="M696.654 240.091C696.818 239.904 698.278 241.184 699.901 242.936C701.523 244.688 702.68 246.227 702.491 246.385C702.302 246.542 700.842 245.263 699.245 243.54C697.631 241.821 696.47 240.265 696.654 240.091Z"
     fill="#00205C"
     id="path265" />
  <path
     d="M683.224 229.422C683.362 229.207 685.038 230.162 686.974 231.562C688.907 232.946 690.35 234.229 690.191 234.432C690.028 234.618 688.352 233.664 686.441 232.293C684.53 230.921 683.086 229.638 683.224 229.422Z"
     fill="#00205C"
     id="path267" />
  <path
     d="M668.096 221.364C668.196 221.141 670 221.776 672.159 222.814C674.314 223.835 675.953 224.852 675.831 225.063C675.71 225.273 673.89 224.643 671.768 223.613C669.651 222.6 667.995 221.587 668.096 221.364Z"
     fill="#00205C"
     id="path269" />
  <path
     d="M651.844 215.938C651.902 215.691 653.804 216.033 656.09 216.681C658.38 217.345 660.168 218.055 660.089 218.29C660.009 218.525 658.107 218.183 655.842 217.548C653.577 216.912 651.785 216.185 651.844 215.938Z"
     fill="#00205C"
     id="path271" />
  <path
     d="M634.911 213.276C634.932 213.022 636.853 213.038 639.216 213.309C641.591 213.559 643.47 214.014 643.416 214.277C643.386 214.499 641.455 214.449 639.118 214.207C636.772 213.931 634.886 213.514 634.911 213.276Z"
     fill="#00205C"
     id="path273" />
  <path
     d="M617.788 212.89C617.776 212.644 619.689 212.432 622.08 212.411C624.454 212.395 626.383 212.57 626.362 212.824C626.358 213.074 624.444 213.287 622.07 213.303C619.716 213.331 617.784 213.14 617.788 212.89Z"
     fill="#00205C"
     id="path275" />
  <path
     d="M600.7 214.363C600.672 214.122 602.549 213.706 604.91 213.445C607.272 213.183 609.202 213.162 609.218 213.424C609.231 213.67 607.354 214.085 605.008 214.343C602.663 214.6 600.746 214.599 600.7 214.363Z"
     fill="#00205C"
     id="path277" />
  <path
     d="M583.816 217.259C583.77 217.022 585.607 216.457 587.941 216.026C590.271 215.578 592.198 215.415 592.231 215.673C592.277 215.909 590.423 216.478 588.106 216.906C585.788 217.333 583.861 217.495 583.816 217.259Z"
     fill="#00205C"
     id="path279" />
  <path
     d="M567.131 221.169C567.069 220.937 568.88 220.273 571.178 219.709C573.477 219.144 575.389 218.861 575.439 219.115C575.501 219.347 573.674 220.015 571.392 220.575C569.098 221.156 567.198 221.418 567.131 221.169Z"
     fill="#00205C"
     id="path281" />
  <path
     d="M550.608 225.749C550.546 225.516 552.322 224.79 554.615 224.139C556.892 223.492 558.791 223.159 558.853 223.391C558.915 223.623 557.122 224.354 554.846 225.001C552.569 225.648 550.67 225.981 550.608 225.749Z"
     fill="#00205C"
     id="path283" />
  <path
     d="M540.487 228.716C540.425 228.484 540.781 228.157 541.307 227.997C541.832 227.838 542.312 227.905 542.374 228.137C542.436 228.37 542.079 228.697 541.554 228.856C541.032 229.031 540.553 228.965 540.487 228.716Z"
     fill="#00205C"
     id="path285" />
  <path
     d="M551.749 696.809C551.603 696.911 550.69 695.859 549.705 694.434C548.714 693.02 548.046 691.794 548.191 691.692C548.337 691.59 549.255 692.659 550.235 694.067C551.215 695.475 551.89 696.69 551.749 696.809Z"
     fill="#00205C"
     id="path287" />
  <path
     d="M559.847 706.252C559.727 706.384 558.672 705.45 557.493 704.186C556.321 702.91 555.483 701.801 555.625 701.682C555.766 701.563 556.81 702.49 557.978 703.749C559.135 705.001 559.966 706.12 559.847 706.252Z"
     fill="#00205C"
     id="path289" />
  <path
     d="M569.465 714.123C569.366 714.268 568.163 713.565 566.774 712.537C565.385 711.51 564.353 710.561 564.462 710.423C564.571 710.285 565.785 710.995 567.153 712.01C568.531 713.031 569.563 713.979 569.465 714.123Z"
     fill="#00205C"
     id="path291" />
  <path
     d="M580.386 720.054C580.32 720.217 579.002 719.735 577.45 718.987C575.905 718.228 574.709 717.486 574.797 717.336C574.884 717.186 576.192 717.661 577.733 718.403C579.267 719.155 580.463 719.897 580.386 720.054Z"
     fill="#00205C"
     id="path293" />
  <path
     d="M592.09 724.242C592.046 724.418 590.669 724.161 589.012 723.668C587.37 723.126 586.11 722.52 586.166 722.35C586.227 722.17 587.581 722.515 589.203 723.045C590.842 723.542 592.129 724.078 592.09 724.242Z"
     fill="#00205C"
     id="path295" />
  <path
     d="M604.374 726.125C604.368 726.308 602.97 726.312 601.254 726.144C599.538 725.976 598.164 725.691 598.192 725.52C598.219 725.349 599.624 725.335 601.312 725.501C603 725.667 604.381 725.941 604.374 726.125Z"
     fill="#00205C"
     id="path297" />
  <path
     d="M616.754 725.346C616.781 725.52 615.432 725.911 613.715 726.117C611.998 726.322 610.588 726.247 610.588 726.074C610.577 725.895 611.955 725.679 613.644 725.471C615.338 725.281 616.726 725.171 616.754 725.346Z"
     fill="#00205C"
     id="path299" />
  <path
     d="M628.623 721.782C628.702 721.943 627.482 722.655 625.859 723.246C624.235 723.836 622.849 724.091 622.804 723.921C622.749 723.745 624.045 723.222 625.635 722.64C627.231 722.048 628.551 721.61 628.623 721.782Z"
     fill="#00205C"
     id="path301" />
  <path
     d="M639.162 715.286C639.271 715.421 638.304 716.439 636.899 717.445C635.495 718.45 634.221 719.058 634.125 718.901C634.029 718.745 635.144 717.915 636.515 716.918C637.897 715.928 639.043 715.144 639.162 715.286Z"
     fill="#00205C"
     id="path303" />
  <path
     d="M647.251 705.951C647.402 706.039 646.825 707.326 645.795 708.724C644.777 710.127 643.72 711.078 643.6 710.964C643.468 710.844 644.28 709.722 645.269 708.344C646.279 706.979 647.101 705.863 647.251 705.951Z"
     fill="#00205C"
     id="path305" />
  <path
     d="M651.865 694.47C652.03 694.509 651.874 695.913 651.357 697.567C650.84 699.221 650.171 700.469 650.014 700.392C649.851 700.326 650.243 698.987 650.741 697.365C651.25 695.75 651.69 694.425 651.865 694.47Z"
     fill="#00205C"
     id="path307" />
  <path
     d="M652.795 682.117C652.963 682.1 653.247 683.489 653.243 685.227C653.238 686.966 652.978 688.353 652.801 688.336C652.624 688.318 652.595 686.935 652.598 685.224C652.594 683.524 652.62 682.144 652.795 682.117Z"
     fill="#00205C"
     id="path309" />
  <path
     d="M649.801 670.118C649.962 670.04 650.686 671.269 651.244 672.905C651.814 674.548 651.986 675.958 651.806 675.997C651.625 676.035 651.179 674.724 650.629 673.121C650.086 671.508 649.629 670.191 649.801 670.118Z"
     fill="#00205C"
     id="path311" />
  <path
     d="M642.588 660.071C642.708 659.939 643.864 660.773 645.017 662.081C646.171 663.389 646.855 664.638 646.715 664.729C646.57 664.831 645.667 663.785 644.539 662.507C643.411 661.229 642.468 660.203 642.588 660.071Z"
     fill="#00205C"
     id="path313" />
  <path
     d="M631.824 654.019C631.869 653.843 633.275 654.074 634.875 654.764C636.481 655.443 637.637 656.277 637.55 656.428C637.456 656.589 636.194 656.01 634.631 655.356C633.068 654.702 631.773 654.205 631.824 654.019Z"
     fill="#00205C"
     id="path315" />
  <path
     d="M619.543 653.792C619.492 653.632 620.803 653.06 622.547 652.856C624.281 652.646 625.693 652.867 625.693 653.04C625.687 653.223 624.307 653.295 622.635 653.498C620.952 653.694 619.598 653.968 619.543 653.792Z"
     fill="#00205C"
     id="path317" />
  <path
     d="M609.692 660.935C609.548 660.836 610.213 659.57 611.423 658.307C612.633 657.044 613.89 656.34 613.992 656.486C614.105 656.638 613.052 657.533 611.895 658.756C610.716 659.965 609.847 661.039 609.692 660.935Z"
     fill="#00205C"
     id="path319" />
  <path
     d="M605.725 672.563C605.553 672.563 605.466 671.131 605.803 669.415C606.14 667.699 606.756 666.419 606.914 666.469C607.093 666.53 606.758 667.873 606.435 669.54C606.112 671.207 605.909 672.57 605.725 672.563Z"
     fill="#00205C"
     id="path321" />
  <path
     d="M608.095 684.644C607.934 684.722 607.187 683.508 606.652 681.857C606.105 680.199 605.984 678.775 606.158 678.748C606.339 678.709 606.728 680.045 607.271 681.658C607.793 683.258 608.273 684.561 608.095 684.644Z"
     fill="#00205C"
     id="path323" />
  <path
     d="M615.319 694.697C615.199 694.829 614.079 693.958 612.942 692.646C611.806 691.334 611.116 690.096 611.261 689.994C611.407 689.892 612.327 690.933 613.438 692.216C614.542 693.509 615.439 694.566 615.319 694.697Z"
     fill="#00205C"
     id="path325" />
  <path
     d="M625.389 701.941C625.312 702.098 623.99 701.599 622.521 700.683C621.046 699.778 619.986 698.828 620.096 698.69C620.2 698.535 621.404 699.238 622.857 700.131C624.311 701.023 625.472 701.773 625.389 701.941Z"
     fill="#00205C"
     id="path327" />
  <path
     d="M637.06 706.138C637.032 706.309 635.621 706.161 633.952 705.69C632.282 705.219 631.018 704.595 631.084 704.432C631.14 704.263 632.494 704.608 634.135 705.077C635.777 705.547 637.104 705.962 637.06 706.138Z"
     fill="#00205C"
     id="path329" />
  <path
     d="M649.401 707.378C649.411 707.557 648.008 707.644 646.281 707.57C644.554 707.496 643.174 707.294 643.191 707.117C643.208 706.94 644.611 706.853 646.311 706.925C648.016 706.986 649.407 707.194 649.401 707.378Z"
     fill="#00205C"
     id="path331" />
  <path
     d="M661.744 706.018C661.783 706.198 660.435 706.562 658.725 706.829C657.026 707.103 655.63 707.179 655.608 706.993C655.597 706.814 656.945 706.451 658.627 706.182C660.309 705.913 661.706 705.837 661.744 706.018Z"
     fill="#00205C"
     id="path333" />
  <path
     d="M673.631 702.45C673.693 702.615 672.442 703.208 670.802 703.775C669.174 704.349 667.813 704.661 667.768 704.491C667.723 704.321 668.98 703.717 670.596 703.165C672.201 702.607 673.569 702.284 673.631 702.45Z"
     fill="#00205C"
     id="path335" />
  <path
     d="M684.753 696.955C684.849 697.112 683.697 697.906 682.191 698.738C680.675 699.564 679.394 700.11 679.315 699.949C679.236 699.788 680.388 698.994 681.877 698.166C683.365 697.338 684.657 696.798 684.753 696.955Z"
     fill="#00205C"
     id="path337" />
  <path
     d="M694.817 689.693C694.936 689.834 693.939 690.805 692.586 691.87C691.238 692.952 690.04 693.676 689.933 693.513C689.836 693.384 690.854 692.425 692.179 691.359C693.526 690.305 694.708 689.557 694.817 689.693Z"
     fill="#00205C"
     id="path339" />
  <path
     d="M703.818 681.163C703.95 681.283 703.074 682.368 701.855 683.597C700.642 684.816 699.562 685.709 699.443 685.567C699.318 685.437 700.193 684.352 701.406 683.133C702.601 681.919 703.693 681.032 703.818 681.163Z"
     fill="#00205C"
     id="path341" />
  <path
     d="M711.853 671.695C711.991 671.805 711.238 672.975 710.157 674.313C709.076 675.652 708.094 676.646 707.952 676.52C707.82 676.4 708.574 675.229 709.649 673.902C710.724 672.574 711.709 671.597 711.853 671.695Z"
     fill="#00205C"
     id="path343" />
  <path
     d="M719.059 661.6C719.203 661.698 718.546 662.925 717.566 664.336C716.597 665.754 715.689 666.82 715.541 666.705C715.397 666.606 716.06 665.369 717.033 663.968C718.007 662.567 718.915 661.501 719.059 661.6Z"
     fill="#00205C"
     id="path345" />
  <path
     d="M725.645 651.084C725.795 651.172 725.203 652.436 724.308 653.898C723.414 655.36 722.575 656.48 722.42 656.375C722.27 656.288 722.869 655.012 723.757 653.561C724.64 652.093 725.484 650.99 725.645 651.084Z"
     fill="#00205C"
     id="path347" />
  <path
     d="M731.807 640.307C731.957 640.394 731.414 641.673 730.567 643.177C729.726 644.67 728.919 645.809 728.769 645.721C728.619 645.634 729.168 644.344 730.009 642.851C730.849 641.358 731.656 640.219 731.807 640.307Z"
     fill="#00205C"
     id="path349" />
  <path
     d="M735.498 633.622C735.649 633.71 735.632 634.059 735.443 634.409C735.254 634.759 734.973 634.969 734.823 634.881C734.673 634.793 734.689 634.443 734.878 634.094C735.057 633.738 735.337 633.528 735.498 633.622Z"
     fill="#00205C"
     id="path351" />
  <path
     d="M678.065 75.4751C698.905 75.4751 715.8 58.5794 715.8 37.7375C715.8 16.8957 698.905 0 678.065 0C657.225 0 640.331 16.8957 640.331 37.7375C640.331 58.5794 657.225 75.4751 678.065 75.4751Z"
     fill="#00205C"
     id="path353" />
  <path
     d="M668.235 75.4751C689.075 75.4751 705.969 58.5794 705.969 37.7375C705.969 16.8957 689.075 0 668.235 0C647.394 0 630.5 16.8957 630.5 37.7375C630.5 58.5794 647.394 75.4751 668.235 75.4751Z"
     fill="#009ADE"
     id="path355" />
  <path
     d="M674.486 20.177V55.177H667.99V25.6278H660.582V20.177H674.486Z"
     fill="white"
     id="path357" />
  <path
     d="M795.065 408.475C815.905 408.475 832.8 391.579 832.8 370.738C832.8 349.896 815.905 333 795.065 333C774.225 333 757.331 349.896 757.331 370.738C757.331 391.579 774.225 408.475 795.065 408.475Z"
     fill="#00205C"
     id="path363" />
  <path
     d="M785.235 408.475C806.075 408.475 822.969 391.579 822.969 370.738C822.969 349.896 806.075 333 785.235 333C764.394 333 747.5 349.896 747.5 370.738C747.5 391.579 764.394 408.475 785.235 408.475Z"
     fill="#009ADE"
     id="path365" />
  <path
     d="M786.941 388.296C784.215 388.296 781.878 387.853 779.931 386.968C778.019 386.083 776.443 384.932 775.204 383.516L778.816 378.577C779.842 379.568 780.975 380.382 782.215 381.02C783.454 381.657 784.782 381.976 786.198 381.976C787.862 381.976 789.19 381.639 790.181 380.967C791.173 380.258 791.668 379.267 791.668 377.992C791.668 377.001 791.42 376.151 790.925 375.443C790.429 374.7 789.526 374.133 788.216 373.744C786.906 373.354 785.029 373.159 782.586 373.159V367.636C785.631 367.636 787.72 367.229 788.853 366.414C789.986 365.564 790.553 364.467 790.553 363.121C790.553 361.953 790.199 361.05 789.491 360.413C788.783 359.74 787.756 359.404 786.41 359.404C785.207 359.404 784.109 359.669 783.117 360.2C782.161 360.731 781.152 361.457 780.09 362.378L776.16 357.598C777.718 356.252 779.364 355.208 781.099 354.464C782.834 353.685 784.729 353.296 786.782 353.296C790.252 353.296 793.049 354.11 795.174 355.739C797.333 357.332 798.413 359.598 798.413 362.537C798.413 364.272 797.918 365.759 796.926 366.998C795.97 368.238 794.589 369.247 792.784 370.026V370.238C794.731 370.805 796.324 371.778 797.564 373.159C798.838 374.505 799.476 376.275 799.476 378.47C799.476 380.559 798.891 382.347 797.723 383.835C796.59 385.286 795.067 386.402 793.155 387.181C791.279 387.924 789.208 388.296 786.941 388.296Z"
     fill="white"
     id="path367" />
  <path
     d="M737.065 690.475C757.905 690.475 774.8 673.579 774.8 652.738C774.8 631.896 757.905 615 737.065 615C716.225 615 699.331 631.896 699.331 652.738C699.331 673.579 716.225 690.475 737.065 690.475Z"
     fill="#00205C"
     id="path373" />
  <path
     d="M727.235 690.475C748.075 690.475 764.969 673.579 764.969 652.738C764.969 631.896 748.075 615 727.235 615C706.394 615 689.5 631.896 689.5 652.738C689.5 673.579 706.394 690.475 727.235 690.475Z"
     fill="#009ADE"
     id="path375" />
  <path
     d="M727.353 670C724.54 670 722.16 669.531 720.213 668.594C718.265 667.656 716.606 666.52 715.236 665.185L718.806 660.155C719.852 661.092 720.988 661.904 722.214 662.589C723.44 663.238 724.775 663.563 726.217 663.563C727.985 663.563 729.391 663.112 730.437 662.21C731.483 661.309 732.006 659.974 732.006 658.207C732.006 656.476 731.501 655.16 730.491 654.258C729.481 653.357 728.183 652.906 726.596 652.906C725.586 652.906 724.739 653.032 724.054 653.284C723.404 653.537 722.557 653.988 721.511 654.637L717.941 652.365L718.914 635H738.389V641.708H725.785L725.19 648.145C726.38 647.604 727.66 647.334 729.03 647.334C731.014 647.334 732.817 647.713 734.44 648.47C736.099 649.227 737.433 650.399 738.443 651.986C739.453 653.537 739.958 655.538 739.958 657.991C739.958 660.515 739.363 662.679 738.173 664.482C737.019 666.285 735.486 667.656 733.574 668.594C731.663 669.531 729.589 670 727.353 670Z"
     fill="white"
     id="path377" />
  <path
     d="M676.565 942.475C697.405 942.475 714.3 925.579 714.3 904.738C714.3 883.896 697.405 867 676.565 867C655.725 867 638.831 883.896 638.831 904.738C638.831 925.579 655.725 942.475 676.565 942.475Z"
     fill="#00205C"
     id="path383" />
  <path
     d="M666.735 942.475C687.575 942.475 704.469 925.579 704.469 904.738C704.469 883.896 687.575 867 666.735 867C645.894 867 629 883.896 629 904.738C629 925.579 645.894 942.475 666.735 942.475Z"
     fill="#009ADE"
     id="path385" />
  <path
     d="M662.057 922C662.273 918.184 662.687 914.764 663.299 911.74C663.911 908.716 664.847 905.818 666.107 903.046C667.367 900.274 669.077 897.394 671.237 894.406H655.847V887.71H679.715V892.57C677.735 894.982 676.133 897.25 674.909 899.374C673.721 901.498 672.785 903.676 672.101 905.908C671.453 908.104 670.985 910.498 670.697 913.09C670.409 915.682 670.193 918.652 670.049 922H662.057Z"
     fill="white"
     id="path387" />
  <path
     d="M542.265 745.475C563.106 745.475 580 728.579 580 707.738C580 686.896 563.106 670 542.265 670C521.425 670 504.531 686.896 504.531 707.738C504.531 728.579 521.425 745.475 542.265 745.475Z"
     fill="#00205C"
     id="path397" />
  <path
     d="M532.735 745.475C553.575 745.475 570.469 728.579 570.469 707.738C570.469 686.896 553.575 670 532.735 670C511.894 670 495 686.896 495 707.738C495 728.579 511.894 745.475 532.735 745.475Z"
     fill="#009ADE"
     id="path399" />
  <path
     d="M533.636 708.712C532.736 708.712 531.818 708.982 530.882 709.522C529.982 710.026 529.172 710.89 528.452 712.114C528.812 714.814 529.496 716.686 530.504 717.73C531.512 718.738 532.61 719.242 533.798 719.242C534.986 719.242 535.994 718.81 536.822 717.946C537.686 717.046 538.118 715.624 538.118 713.68C538.118 711.88 537.686 710.602 536.822 709.846C535.994 709.09 534.932 708.712 533.636 708.712ZM533.96 725.182C531.764 725.182 529.676 724.606 527.696 723.454C525.716 722.266 524.096 720.43 522.836 717.946C521.612 715.426 521 712.168 521 708.172C521 703.888 521.648 700.378 522.944 697.642C524.276 694.906 525.986 692.89 528.074 691.594C530.198 690.262 532.466 689.596 534.878 689.596C537.146 689.596 539.108 690.01 540.764 690.838C542.42 691.63 543.788 692.584 544.868 693.7L540.71 698.452C540.134 697.804 539.342 697.246 538.334 696.778C537.362 696.274 536.372 696.022 535.364 696.022C534.104 696.022 532.952 696.364 531.908 697.048C530.864 697.696 530.018 698.812 529.37 700.396C528.758 701.944 528.398 704.05 528.29 706.714C529.19 705.562 530.288 704.68 531.584 704.068C532.916 703.42 534.104 703.096 535.148 703.096C538.1 703.096 540.53 703.96 542.438 705.688C544.382 707.38 545.354 710.044 545.354 713.68C545.354 716.056 544.832 718.108 543.788 719.836C542.744 721.528 541.358 722.842 539.63 723.778C537.938 724.714 536.048 725.182 533.96 725.182Z"
     fill="white"
     id="path401" />
  <path
     d="M632.265 1141.48C653.106 1141.48 670 1124.58 670 1103.74C670 1082.9 653.106 1066 632.265 1066C611.425 1066 594.531 1082.9 594.531 1103.74C594.531 1124.58 611.425 1141.48 632.265 1141.48Z"
     fill="#00205C"
     id="path407" />
  <path
     d="M622.735 1141.48C643.575 1141.48 660.469 1124.58 660.469 1103.74C660.469 1082.9 643.575 1066 622.735 1066C601.894 1066 585 1082.9 585 1103.74C585 1124.58 601.894 1141.48 622.735 1141.48Z"
     fill="#009ADE"
     id="path409" />
  <path
     d="M623.673 1121.65C621.405 1121.65 619.371 1121.25 617.571 1120.46C615.771 1119.67 614.349 1118.57 613.305 1117.17C612.261 1115.73 611.739 1114.09 611.739 1112.25C611.739 1110.16 612.297 1108.45 613.413 1107.12C614.565 1105.79 615.951 1104.69 617.571 1103.83V1103.61C616.239 1102.6 615.141 1101.45 614.277 1100.16C613.413 1098.86 612.981 1097.31 612.981 1095.51C612.981 1093.57 613.449 1091.89 614.385 1090.49C615.321 1089.05 616.617 1087.95 618.273 1087.2C619.929 1086.44 621.819 1086.06 623.943 1086.06C627.075 1086.06 629.595 1086.93 631.503 1088.65C633.411 1090.35 634.365 1092.61 634.365 1095.46C634.365 1097.11 633.915 1098.59 633.015 1099.89C632.115 1101.15 631.071 1102.17 629.883 1102.96V1103.18C631.539 1104.08 632.943 1105.23 634.095 1106.64C635.247 1108.04 635.823 1109.88 635.823 1112.14C635.823 1113.94 635.319 1115.56 634.311 1117C633.303 1118.44 631.881 1119.58 630.045 1120.41C628.245 1121.23 626.121 1121.65 623.673 1121.65ZM625.833 1101.02C627.237 1099.4 627.939 1097.73 627.939 1096C627.939 1094.67 627.561 1093.6 626.805 1092.81C626.085 1091.98 625.077 1091.57 623.781 1091.57C622.737 1091.57 621.837 1091.89 621.081 1092.54C620.325 1093.19 619.947 1094.18 619.947 1095.51C619.947 1096.92 620.487 1098.01 621.567 1098.81C622.647 1099.6 624.069 1100.34 625.833 1101.02ZM623.835 1116.14C625.167 1116.14 626.265 1115.8 627.129 1115.11C627.993 1114.39 628.425 1113.31 628.425 1111.87C628.425 1110.87 628.119 1110.04 627.507 1109.39C626.895 1108.71 626.049 1108.11 624.969 1107.61C623.889 1107.07 622.629 1106.49 621.189 1105.88C620.433 1106.56 619.803 1107.39 619.299 1108.36C618.795 1109.3 618.543 1110.29 618.543 1111.33C618.543 1112.85 619.065 1114.03 620.109 1114.9C621.153 1115.73 622.395 1116.14 623.835 1116.14Z"
     fill="white"
     id="path411" />
  <path
     d="M544.065 240.475C564.905 240.475 581.8 223.579 581.8 202.738C581.8 181.896 564.905 165 544.065 165C523.225 165 506.331 181.896 506.331 202.738C506.331 223.579 523.225 240.475 544.065 240.475Z"
     fill="#00205C"
     id="path417" />
  <path
     d="M534.235 240.475C555.075 240.475 571.969 223.579 571.969 202.738C571.969 181.896 555.075 165 534.235 165C513.394 165 496.5 181.896 496.5 202.738C496.5 223.579 513.394 240.475 534.235 240.475Z"
     fill="#009ADE"
     id="path419" />
  <path
     d="M522.885 220V215.456C525.859 212.679 528.484 210.173 530.76 207.937C533.073 205.665 534.872 203.591 536.156 201.716C537.441 199.804 538.084 198.037 538.084 196.414C538.084 194.719 537.625 193.439 536.707 192.573C535.826 191.672 534.633 191.221 533.128 191.221C531.88 191.221 530.742 191.582 529.714 192.303C528.722 192.988 527.786 193.8 526.905 194.737L522.5 190.464C524.225 188.66 525.988 187.308 527.786 186.406C529.585 185.469 531.733 185 534.229 185C536.542 185 538.561 185.451 540.286 186.352C542.012 187.254 543.352 188.534 544.306 190.193C545.297 191.816 545.793 193.727 545.793 195.927C545.793 197.839 545.242 199.804 544.141 201.824C543.076 203.807 541.7 205.809 540.011 207.828C538.322 209.812 536.523 211.777 534.615 213.725C535.496 213.617 536.487 213.527 537.588 213.454C538.689 213.346 539.644 213.292 540.452 213.292H547.5V220H522.885Z"
     fill="white"
     id="path421" />
  <path
     d="M610.565 508.475C631.405 508.475 648.3 491.579 648.3 470.738C648.3 449.896 631.405 433 610.565 433C589.725 433 572.831 449.896 572.831 470.738C572.831 491.579 589.725 508.475 610.565 508.475Z"
     fill="#00205C"
     id="path427" />
  <path
     d="M600.735 508.475C621.575 508.475 638.469 491.579 638.469 470.738C638.469 449.896 621.575 433 600.735 433C579.894 433 563 449.896 563 470.738C563 491.579 579.894 508.475 600.735 508.475Z"
     fill="#009ADE"
     id="path429" />
  <path
     d="M595.772 474.449H603.157V468.772C603.157 467.633 603.194 466.328 603.268 464.858C603.378 463.352 603.451 462.047 603.488 460.945H603.268C602.827 461.9 602.367 462.874 601.89 463.866C601.412 464.858 600.916 465.85 600.402 466.843L595.772 474.449ZM603.157 489V480.622H588V475.055L600.787 454H610.709V474.449H614.732V480.622H610.709V489H603.157Z"
     fill="white"
     id="path431" />
  <a
     id="a5558"
     xlink:href="">
    <text
       xmlSpace="preserve"
       style="line-height:135%;word-spacing:0px;white-space:pre;inline-size:268.663;display:inline;fill:#000000;fill-opacity:1;stroke-linecap:butt;stroke-linejoin:miter;stroke-dasharray:none;stroke-opacity:1"
       x="750.62238"
       y="69.526184"
       id="text441"><tspan
         x="750.62238"
         y="69.526184"
         id="tspan1318">To submit data to the portal, contact </tspan><tspan
         x="750.62238"
         y="91.126187"
         id="tspan1322"><tspan
   style="font-style:italic;fill:#009ade"
   id="tspan1320">tbsequencing@who.int</tspan> to request an </tspan><tspan
         x="750.62238"
         y="112.72619"
         id="tspan1324">account creation.</tspan></text>
  </a>
  <text
     xmlSpace="preserve"
     style="line-height:135%;text-align:end;text-anchor:end;white-space:pre;inline-size:209.699;display:inline;fill:#000000;fill-opacity:1;stroke:none;stroke-width:1px;stroke-linecap:butt;stroke-linejoin:miter;stroke-opacity:1"
     x="934.20642"
     y="69.526184"
     id="text441-4"
     transform="translate(-459.18405,160.56618)"><tspan
       x="934.20642"
       y="69.526184"
       id="tspan1326">Validate your email address<tspan
   y="69.526184"
   id="tspan1328"> </tspan></tspan><tspan
       x="934.20642"
       y="91.126187"
       id="tspan1330">via the received invitation.</tspan></text>
  <text
     xmlSpace="preserve"
     style="line-height:135%;-inkscape-font-specification:'Source Sans Pro';word-spacing:0px;white-space:pre;inline-size:203.493;display:inline;fill:#000000;fill-opacity:1;stroke:none;stroke-width:1px;stroke-linecap:butt;stroke-linejoin:miter;stroke-opacity:1"
     x="750.62238"
     y="69.526184"
     id="text441-4-7"
     transform="translate(116.51954,327.1816)"><tspan
       x="750.62238"
       y="69.526184"
       id="tspan1332">Create a new package using </tspan><tspan
       x="750.62238"
       y="91.126187"
       id="tspan1334">the data submission page.</tspan></text>
  <text
     xmlSpace="preserve"
     style="line-height:135%;-inkscape-font-specification:'Source Sans Pro';word-spacing:0px;white-space:pre;inline-size:394.349;display:inline;fill:#000000;fill-opacity:1;stroke:none;stroke-width:1px;stroke-linecap:butt;stroke-linejoin:miter;stroke-opacity:1"
     x="750.62238"
     y="69.526184"
     id="text441-4-7-9"
     transform="translate(57.107947,602.45945)"><tspan
       x="750.62238"
       y="69.526184"
       id="tspan1336">Using the provided template, upload your Minimum </tspan><tspan
       x="750.62238"
       y="91.126187"
       id="tspan1338">Inhibitory Concentration  (MIC) values or phenotypic </tspan><tspan
       x="750.62238"
       y="112.72619"
       id="tspan1342">Drug Resistance Test (pDST) results. Use <tspan
   style="fill:#009ade"
   id="tspan1340">NCBI/EBI </tspan></tspan><tspan
       x="750.62238"
       y="134.32618"
       id="tspan1348"><tspan
   style="fill:#009ade"
   id="tspan1344">identification </tspan><tspan
   style="fill:#009ade"
   id="tspan1346">labels</tspan> if the sequencing data is publicly </tspan><tspan
       x="750.62238"
       y="155.92619"
       id="tspan1350">available.</tspan></text>
  <text
     xmlSpace="preserve"
     style="font-size:24px;line-height:135%;-inkscape-font-specification:'Source Sans Pro';text-align:end;word-spacing:0px;text-anchor:end;fill:#00205c;fill-opacity:1;stroke:none;stroke-width:1px;stroke-linecap:butt;stroke-linejoin:miter;stroke-opacity:1"
     x="536.65717"
     y="474.81232"
     id="text2351"><tspan
       sodipodiRole="line"
       id="tspan2349"
       x="537.00714"
       y="474.81232"
       style="font-weight:bold;font-size:24px;text-align:end;text-anchor:end">Sequencing data information</tspan></text>
  <text
     xmlSpace="preserve"
     style="font-size:24px;line-height:135%;-inkscape-font-specification:'Source Sans Pro';text-align:end;word-spacing:0px;text-anchor:end;fill:#00205c;fill-opacity:1;stroke:none;stroke-width:1px;stroke-linecap:butt;stroke-linejoin:miter;stroke-opacity:1"
     x="476.81299"
     y="208.02869"
     id="text2351-0"><tspan
       sodipodiRole="line"
       id="tspan2349-6"
       x="477.16299"
       y="208.02869"
       style="font-weight:bold;font-size:24px;text-align:end;text-anchor:end">Profile validation</tspan></text>
  <text
     xmlSpace="preserve"
     style="font-size:24px;line-height:135%;-inkscape-font-specification:'Source Sans Pro';text-align:start;word-spacing:0px;text-anchor:start;fill:#00205c;fill-opacity:1;stroke:none;stroke-width:1px;stroke-linecap:butt;stroke-linejoin:miter;stroke-opacity:1"
     x="749.15906"
     y="40.910458"
     id="text2351-0-7"><tspan
       sodipodiRole="line"
       id="tspan2349-6-1"
       x="749.15906"
       y="40.910458"
       style="font-weight:bold;font-size:24px;text-align:start;text-anchor:start">Registration</tspan></text>
  <text
     xmlSpace="preserve"
     style="font-size:24px;line-height:135%;-inkscape-font-specification:'Source Sans Pro';text-align:start;word-spacing:0px;text-anchor:start;fill:#00205c;fill-opacity:1;stroke:none;stroke-width:1px;stroke-linecap:butt;stroke-linejoin:miter;stroke-opacity:1"
     x="865.67859"
     y="366.90826"
     id="text2351-0-7-8"><tspan
       sodipodiRole="line"
       id="tspan2349-6-1-6"
       x="865.67859"
       y="366.90826"
       style="font-weight:bold;font-size:24px;text-align:start;text-anchor:start">Package creation</tspan></text>
  <text
     xmlSpace="preserve"
     style="font-size:24px;line-height:135%;-inkscape-font-specification:'Source Sans Pro';text-align:start;word-spacing:0px;text-anchor:start;fill:#00205c;fill-opacity:1;stroke:none;stroke-width:1px;stroke-linecap:butt;stroke-linejoin:miter;stroke-opacity:1"
     x="806.71497"
     y="643.10626"
     id="text2351-0-7-8-1"><tspan
       sodipodiRole="line"
       id="tspan2349-6-1-6-3"
       x="806.71497"
       y="643.10626"
       style="font-weight:bold;font-size:24px;text-align:start;text-anchor:start">Resistance data uploading</tspan></text>
  <text
     xmlSpace="preserve"
     style="font-size:24px;line-height:135%;-inkscape-font-specification:'Source Sans Pro';text-align:start;word-spacing:0px;text-anchor:start;fill:#00205c;fill-opacity:1;stroke:none;stroke-width:1px;stroke-linecap:butt;stroke-linejoin:miter;stroke-opacity:1"
     x="745.40979"
     y="899.97821"
     id="text2351-0-7-8-1-3"><tspan
       sodipodiRole="line"
       id="tspan2349-6-1-6-3-3"
       x="745.40979"
       y="899.97821"
       style="font-weight:bold;font-size:24px;text-align:start;text-anchor:start">Package sending</tspan></text>
  <text
     xmlSpace="preserve"
     style="font-size:24px;line-height:135%;-inkscape-font-specification:'Source Sans Pro';text-align:end;word-spacing:0px;text-anchor:end;fill:#00205c;fill-opacity:1;stroke:none;stroke-width:1px;stroke-linecap:butt;stroke-linejoin:miter;stroke-opacity:1"
     x="552.21283"
     y="1099.2985"
     id="text2351-0-7-8-1-3-9"><tspan
       sodipodiRole="line"
       id="tspan2349-6-1-6-3-3-2"
       x="552.56287"
       y="1099.2985"
       style="font-weight:bold;font-size:24px;text-align:end;text-anchor:end">Package approval</tspan></text>
  <text
     xmlSpace="preserve"
     style="font-size:24px;line-height:135%;-inkscape-font-specification:'Source Sans Pro';text-align:end;word-spacing:0px;text-anchor:end;fill:#00205c;fill-opacity:1;stroke:none;stroke-width:1px;stroke-linecap:butt;stroke-linejoin:miter;stroke-opacity:1"
     x="469.0105"
     y="707.50073"
     id="text2351-5"><tspan
       sodipodiRole="line"
       id="tspan2349-8"
       x="469.3605"
       y="707.50073"
       style="font-weight:bold;font-size:24px;text-align:end;text-anchor:end">Data matching</tspan></text>
  <text
     xmlSpace="preserve"
     style="text-align:end;text-anchor:end;fill:#000000;"
     x="1179.2783"
     y="69.526184"
     id="text441-4-7-6"
     transform="translate(-644.49217,428.34441)"><tspan
       x="1179.2783"
       y="69.526184"
       id="tspan1352">Our database is synchronized daily with the<tspan
   y="69.526184"
   id="tspan1354"> </tspan></tspan><tspan
       x="1179.2783"
       y="91.126187"
       id="tspan1356">submissions available at the NCBI/EBI. Thus if<tspan
   y="91.126187"
   id="tspan1358"> </tspan></tspan><tspan
       x="1179.2783"
       y="112.72619"
       id="tspan1360">the sequencing data you want to submit is<tspan
   y="112.72619"
   id="tspan1362"> </tspan></tspan><tspan
       x="1179.2783"
       y="134.32618"
       id="tspan1364">already publicly available there, you do not<tspan
   y="134.32618"
   id="tspan1366"> </tspan></tspan><tspan
       x="1179.2783"
       y="155.92619"
       id="tspan1368">need to upload it again. Otherwise provide all<tspan
   y="155.92619"
   id="tspan1370"> </tspan></tspan><tspan
       x="1179.2783"
       y="177.5262"
       id="tspan1374"><tspan
   style="fill:#009ade"
   id="tspan1372">fastq.gz</tspan> files through the package entry.</tspan></text>
  <text
     xmlSpace="preserve"
     style="text-align:end;word-spacing:0px;text-anchor:end;white-space:pre;inline-size:371.85;display:inline;fill:#000000;fill-opacity:1;stroke:none;stroke-width:1px;stroke-linecap:butt;stroke-linejoin:miter;stroke-opacity:1"
     x="1141.9506"
     y="69.526184"
     id="text441-4-7-9-4"
     transform="translate(-673.73267,662.50421)"><tspan
       x="1141.9506"
       y="69.526184"
       id="tspan1376">Sample labels in the rows of your MIC or pDST data<tspan
   y="69.526184"
   id="tspan1378"> </tspan></tspan><tspan
       x="1141.9506"
       y="91.126187"
       id="tspan1380">will need to be matched to the sequencing data.<tspan
   y="91.126187"
   id="tspan1382"> </tspan></tspan><tspan
       x="1141.9506"
       y="112.72619"
       id="tspan1384">NCBI/EBI identifiers will be matched automatically if<tspan
   y="112.72619"
   id="tspan1386"> </tspan></tspan><tspan
       x="1141.9506"
       y="134.32618"
       id="tspan1388">they are available in the public record. If the sample<tspan
   y="134.32618"
   id="tspan1390"> </tspan></tspan><tspan
       x="1141.9506"
       y="155.92619"
       id="tspan1394">labels you used are<tspan
   dx="0 0 0 0 -0.34999999 0.34999695"
   id="tspan1392"> different than the file</tspan> names of<tspan
   y="155.92619"
   id="tspan1396"> </tspan></tspan><tspan
       x="1141.9506"
       y="177.5262"
       id="tspan1398">the sequencing data you uploaded, you can use the<tspan
   y="177.5262"
   id="tspan1400"> </tspan></tspan><tspan
       x="1141.9506"
       y="199.1262"
       id="tspan1404"><tspan
   style="fill:#009ade"
   id="tspan1402">FASTQ Prefix</tspan> column from the MIC/pDST template to<tspan
   y="199.1262"
   id="tspan1406"> </tspan></tspan><tspan
       x="1141.9506"
       y="220.72621"
       id="tspan1408">match them appropriately. Use the Match button on<tspan
   y="220.72621"
   id="tspan1410"> </tspan></tspan><tspan
       x="1141.9506"
       y="242.32621"
       id="tspan1412">the package entry to perform the matching.</tspan></text>
  <text
     xmlSpace="preserve"
     style="line-height:135%;word-spacing:0px;white-space:pre;inline-size:394.349;display:inline;fill:#000000;fill-opacity:1;stroke:none;stroke-width:1px;stroke-linecap:butt;stroke-linejoin:miter;stroke-opacity:1"
     x="750.62238"
     y="69.526184"
     id="text441-4-7-9-49"
     transform="translate(-3.5572636,858.40922)"><tspan
       x="750.62238"
       y="69.526184"
       id="tspan1414">Once matching has been performed, you can submit </tspan><tspan
       x="750.62238"
       y="91.126187"
       id="tspan1416">your package entry. Before sending it to admin review, </tspan><tspan
       x="750.62238"
       y="112.72619"
       id="tspan1418">you can provide collaborators names to be credited for </tspan><tspan
       x="750.62238"
       y="134.32618"
       id="tspan1420">their contribution to the data generation and data </tspan><tspan
       x="750.62238"
       y="155.92619"
       id="tspan1422">sharing. </tspan></text>
  <text
     xmlSpace="preserve"
     style="line-height:135%;-inkscape-font-specification:'Source Sans Pro';text-align:end;word-spacing:0px;text-anchor:end;white-space:pre;inline-size:280.301;display:inline;fill:#000000;fill-opacity:1;stroke:none;stroke-width:1px;stroke-linecap:butt;stroke-linejoin:miter;stroke-opacity:1"
     x="1128.5586"
     y="69.526184"
     id="text441-4-7-9-49-8"
     transform="translate(-576.98377,1057.4247)"><tspan
       x="1128.5586"
       y="69.526184"
       id="tspan1424">Your package will now go through<tspan
   y="69.526184"
   id="tspan1426"> </tspan></tspan><tspan
       x="1128.5586"
       y="91.126187"
       id="tspan1428">admin review, and you will be notified<tspan
   y="91.126187"
   id="tspan1430"> </tspan></tspan><tspan
       x="1128.5586"
       y="112.72619"
       id="tspan1432">via email upon acceptance or rejection.</tspan></text>
  <text
     xmlSpace="preserve"
     style="line-height:135%;-inkscape-font-specification:'Source Sans Pro';word-spacing:0px;white-space:pre;inline-size:268.663;display:inline;fill:none;fill-opacity:1;stroke:none;stroke-width:4.15748;stroke-linecap:butt;stroke-linejoin:miter;stroke-dasharray:none;stroke-opacity:1"
     x="750.62238"
     y="69.526184"
     id="text8834"><tspan
       x="750.62238"
       y="69.526184"
       id="tspan1434">If you want to submit data to the </tspan><tspan
       x="750.62238"
       y="91.126187"
       id="tspan1438">portal, contact <tspan
   style="font-style:italic"
   id="tspan1436">tbsequencing@who.int</tspan> </tspan><tspan
       x="750.62238"
       y="112.72619"
       id="tspan1440">to request an account creation.</tspan></text>
  <text
     xmlSpace="preserve"
     style="font-size:14.6667px;line-height:135%;-inkscape-font-specification:'Source Sans Pro';word-spacing:0px;fill:none;stroke:#000000;stroke-width:1px;stroke-linecap:butt;stroke-linejoin:miter;stroke-opacity:1"
     x="44.985172"
     y="49.37397"
     id="text990"><tspan
       sodipodiRole="line"
       id="tspan988"
       x="44.985172"
       y="49.37397" /></text>
</svg>
