<svg
   width="220"
   height="176"
   viewBox="0 0 220 176"
   fill="none"
   version="1.1"
   id="svg162"
   xmlns="http://www.w3.org/2000/svg"
>
  <g
     clip-path="url(#clip0_2706_13136)"
     id="g155">
    <path
       d="M78.7155 70.6716L28.6743 103.589C27.4057 104.425 28.0498 106.429 29.5721 106.332L105.532 101.313"
       fill="#00A9CE"
       id="path149"
       style="fill:#0066ff;fill-opacity:1" />
    <path
       d="M83.1068 67.6951L35.1734 77.0527C33.6511 77.3445 33.534 79.5429 35.0173 80.0098L108.518 103.375"
       fill="#3A697E"
       id="path151"
       style="fill:#212e92;fill-opacity:1" />
    <path
       d="M117.125 60.4385C116.812 60.1856 116.773 59.7187 117.027 59.4269L117.047 59.4074L128.562 46.0422C129.791 44.6025 131.645 43.8438 133.538 44.0189L191.308 48.9992C192.186 49.0771 192.206 50.3611 191.328 50.4583L156.9 54.5438C154.714 54.9912 153.699 55.3803 152.099 57.1507L81.643 141.486C80.6086 142.712 78.6374 141.642 79.1058 140.105L93.1775 96.2932C93.3922 95.6123 93.0799 94.8925 92.4554 94.5618C85.605 91.0016 48.1717 70.1852 39.916 35.9258C39.8184 35.5172 40.0722 35.1281 40.482 35.0309C40.6577 34.992 40.8528 35.0114 41.0285 35.1087C51.3334 41.2369 107.62 73.6676 133.773 70.3798C133.773 70.3798 136.524 69.9713 135.451 69.018C125.439 66.4305 119.311 62.1505 117.125 60.4385Z"
       fill="#A6192E"
       id="path153"
       style="fill:#cc0033;fill-opacity:1" />
  </g>
  <defs
     id="defs160">
    <clipPath
       id="clip0_2706_13136">
      <rect
         width="164"
         height="107"
         fill="white"
         transform="translate(28 35)"
         id="rect157" />
    </clipPath>
  </defs>
</svg>
