<svg width="220" height="176" viewBox="0 0 220 176" fill="none" xmlns="http://www.w3.org/2000/svg">
<g clip-path="url(#clip0_2706_13160)">
<path d="M160.744 43.0333C163.841 46.7411 169.241 48.8711 172.418 52.5788C170.115 41.6922 161.697 32.7777 151.691 30.6477C156.615 34.2766 157.647 39.3255 160.744 43.0333ZM40.6735 70.6444C47.5824 55.7344 57.8265 58.89 62.1941 44.7688C59.6529 49.0288 48.4559 50.8433 43.2941 61.9666C45.9941 55.34 44.6441 45.2422 49.0912 39.72C35.6706 49.66 41.3882 65.5955 40.6735 70.6444ZM53.0618 106.302C54.3324 112.061 50.6794 120.502 56.4765 128.47C50.5206 121.843 37.8147 120.108 32.6529 110.01C39.0853 134.702 55.9206 129.653 63.4647 135.018C57.2706 126.103 62.3529 120.187 53.0618 106.302ZM51.1559 121.843C47.4235 108.038 54.0147 103.226 49.0118 89.9722C48.5353 97.4666 43.4529 101.096 46.8676 114.743C40.9118 103.147 31.7 98.8077 29 90.9188C29.1588 112.613 46.7088 115.848 51.1559 121.843ZM78.0765 144.958C72.9147 137.858 76.4088 133.834 61.9559 120.976C65.0529 125.709 61.8765 131.626 71.6441 140.777C62.1147 135.175 48.8529 137.542 42.5 130.048C53.4588 150.874 72.6765 142.354 78.0765 144.958ZM148.356 140.777C158.124 131.547 154.947 125.63 158.044 120.976C143.512 133.834 147.085 137.858 141.844 144.958C147.324 142.354 166.541 150.874 177.421 130.048C171.147 137.621 157.885 135.175 148.356 140.777ZM163.524 128.47C169.321 120.502 165.668 112.14 166.859 106.302C157.568 120.187 162.65 126.103 156.456 135.018C164.079 129.653 180.835 134.702 187.268 110.01C182.106 120.108 169.479 121.843 163.524 128.47ZM140.335 145.983C135.174 144.642 129.853 143.774 124.453 143.617C119.529 143.538 114.606 144.327 110 146.062C105.394 144.327 100.471 143.538 95.5471 143.617C90.1471 143.774 84.8265 144.642 79.6647 145.983C70.9294 148.271 63.3853 150.086 56.7941 146.772C63.0676 152.294 70.4529 154.346 81.0941 153.162C89.9088 152.216 97.0559 147.798 105.394 147.877H105.712C100.471 150.48 95.7853 154.109 91.9735 158.527L96.0235 159.079C96.0235 159.079 100.232 150.638 110 148.429C119.768 150.638 123.976 159.079 123.976 159.079L128.026 158.527C124.215 154.109 119.529 150.48 114.288 147.877H114.606C122.944 147.798 130.091 152.216 138.906 153.162C149.547 154.267 156.853 152.294 163.206 146.772C156.615 150.086 149.071 148.271 140.335 145.983ZM49.6471 74.9833C46.0735 81.8466 40.4353 83.4244 41.0706 97.5455C38.0529 85.0022 30.8265 80.2688 30.9059 72.3011C25.9029 93.2855 39.2441 95.7311 42.7382 104.567C42.1824 91.9444 50.2824 89.42 49.6471 74.9833ZM54.65 58.8111C53.3794 60.5466 52.5059 61.3355 49.1706 64.0177C44.1676 67.9622 40.6735 73.5633 39.4824 79.7955C39.8 72.0644 35.0353 61.02 38.2118 52.9733C25.9029 70.25 38.9265 80.5844 39.4029 86.8955C42.5 74.8255 49.8853 74.7466 54.65 58.8111ZM180.518 79.7955C179.247 73.5633 175.832 67.9622 170.829 64.0177C167.494 61.2566 166.621 60.5466 165.35 58.8111C170.115 74.7466 177.5 74.8255 180.676 86.8955C181.153 80.6633 194.176 70.3288 181.868 52.9733C185.044 61.02 180.279 72.0644 180.518 79.7955ZM191 90.9188C188.3 98.8866 179.088 103.147 173.132 114.743C176.547 101.096 171.465 97.4666 170.988 89.9722C165.985 103.226 172.576 108.038 168.844 121.843C173.291 115.848 190.841 112.613 191 90.9188ZM170.353 74.9833C169.638 89.42 177.818 91.9444 177.262 104.567C180.676 95.81 194.097 93.2855 189.094 72.3011C189.174 80.3477 181.947 85.0022 178.929 97.6244C179.565 83.3455 174.006 81.8466 170.353 74.9833ZM59.2559 43.0333C62.3529 39.3255 63.3853 34.2766 68.3088 30.6477C58.2235 32.7777 49.8059 41.6133 47.5029 52.5C50.6794 48.7922 56.1588 46.6622 59.2559 43.0333ZM157.885 44.6111C162.253 58.8111 172.497 55.6555 179.406 70.4866C178.691 65.5166 184.409 49.5022 170.988 39.72C175.515 45.1633 174.165 55.34 176.785 61.9666C171.544 50.8433 160.347 49.0288 157.885 44.6111ZM122.944 52.7366C120.324 51.6322 117.544 50.9222 114.765 50.5277C114.765 51.1588 114.765 51.7111 114.765 52.3422C117.385 52.7366 119.926 53.4466 122.309 54.3933C122.626 53.8411 122.865 53.2888 122.944 52.7366ZM120.879 35.1444L121.435 34.6711L120.403 34.1977L117.624 34.1188L116.909 34.5922L115.321 34.4344V34.8288C116.353 34.9077 117.385 34.9866 118.179 35.1444L119.529 35.0655L120.879 35.1444ZM115.638 93.9955C115.638 93.5222 115.003 93.0488 114.129 92.6544H113.971C113.971 93.0488 113.891 94.8633 113.891 95.81C114.924 95.2577 115.638 94.7844 115.638 93.9955ZM83.7941 59.3633C83.8735 59.0477 83.9529 58.6533 84.0324 58.3377C83.6353 58.4166 83.3176 58.4955 82.9206 58.4166L83.7941 59.3633ZM71.0088 46.6622L77.5206 53.1311C69.6588 61.2566 65.2118 72.1433 65.0529 83.4244H55.8412C56 69.6188 61.4 56.5233 71.0088 46.6622ZM67.0382 96.9933L66.4824 96.9144L65.9265 96.3622L63.3059 96.1255L64.1 97.2299L61.7176 96.7566L62.3529 96.2044L61.7971 95.6522L60.05 96.3622L59.4147 97.4666L59.6529 100.07L61.6382 104.803L62.5912 106.302L63.1471 106.46L61.6382 103.62L61.3206 102.2L61.6382 101.884L61.4 101.096L62.2735 101.253L63.7029 103.304L64.0206 103.462V101.963L64.5765 102.279L64.7353 103.068L66.1647 103.462L66.8 102.989L67.0382 103.147V104.251L67.6735 105.04L68.4676 105.198L70.2147 108.038L71.2471 108.353L71.5647 107.012C73.3912 109.931 75.4559 112.692 77.9176 115.138L71.4059 121.607C61.7176 111.903 56.1588 98.8866 55.8412 85.2388H65.0529C65.1324 89.1833 65.8471 93.2066 67.0382 96.9933ZM76.0912 85.16C76.0912 86.0277 76.1706 86.8955 76.3294 87.8422L75.2176 88.0788L74.9794 89.1833L72.5971 92.1811L72.6765 96.2833L70.2941 97.0722H68.9441C67.6735 93.2066 67.0382 89.2622 66.8794 85.16H76.0912ZM78.1559 110.957L80.2206 112.14L80.6176 112.456L79.1088 113.954C78.3941 113.244 77.7588 112.534 77.1235 111.746L78.1559 110.957ZM86.5735 62.1244L93.0853 68.5933C91.7353 70.0922 90.5441 71.7488 89.6706 73.5633H89.1941L88.2412 73.8H87.9235L86.9706 74.6677L88.2412 74.51L89.3529 74.2733L89.1147 74.5888L88.1618 75.22H87.6853L86.2559 76.3244L84.9059 76.1666L82.9206 79.8744L83.3176 80.5844L82.2059 81.8466L82.0471 83.4244H77.9176C77.9971 75.4566 81.0941 67.8833 86.5735 62.1244ZM93.2441 88.8677L93.7206 88.6311L94.9118 89.4988L94.3559 89.8933L95.7059 90.7611L95.6265 89.8144L96.3412 88.6311L97.1353 89.42L97.9294 90.5244L96.5 90.9188L97.1353 92.1811L98.0882 91.6288L97.9294 91.2344L98.6441 90.7611L99.0412 88.7888C99.5971 89.9722 100.312 91.0766 101.185 92.0233L94.6735 98.4922C91.4971 95.1788 89.5118 90.9188 88.9559 86.3433L90.3059 87.7633H91.5765L93.2441 88.8677ZM83.8735 82.0044L84.0324 80.19L85.1441 79.5588L87.1294 79.8744L87.4471 80.19C87.2882 81.2155 87.2088 82.32 87.1294 83.3455H84.9059L83.8735 82.0044ZM80.8559 88.3155L79.9823 89.6566H78.4735L78.3941 89.5777C78.1559 88.1577 77.9971 86.6588 77.9176 85.2388H80.6971L80.0618 87.4477L80.8559 88.3155ZM86.9706 106.144C86.3353 105.434 85.6206 104.724 85.0647 104.014L85.3824 101.727L84.4294 99.5177L84.1912 96.0466L83.0794 93.9166L83.3176 92.5755L81.9676 90.0511L80.8559 89.4988L81.3324 88.1577L80.8559 87.1322L81.3324 85.9488H82.6029L83.0794 85.2388H85.2235L85.5412 85.87L85.0647 88L84.8265 88.3944L85.6206 90.13L85.0647 90.4455L84.6676 89.9722L84.5088 90.13L84.9059 91.1555L85.5412 92.3388H85.8588L86.0176 91.2344L85.7 90.84V90.13L85.6206 88.6311L86.0971 85.9488L85.6206 85.2388H87.1294C87.4471 90.6822 89.6706 95.81 93.4823 99.7544L86.9706 106.144ZM142.4 114.98C150.262 106.933 154.788 96.2833 155.026 85.16H164.238C163.921 98.7288 158.441 111.746 148.832 121.449L142.4 114.98ZM139.859 112.456L140.574 111.667L139.859 108.117L139.382 107.959L139.7 107.328L138.191 106.854L137.874 108.117L137.715 109.694L137.397 110.01L134.618 107.249C140.415 101.253 143.75 93.4433 144.068 85.16H153.279C152.962 95.8888 148.674 106.066 141.129 113.718L139.859 112.456ZM131.759 121.054L132.632 119.24L132.315 118.451L133.585 117.347V116.716L132.474 116.006L133.347 114.191L134.697 112.456L133.347 111.036H132.315L131.679 110.01C132.235 109.537 132.791 109.063 133.268 108.59L139.779 115.059C137.397 117.347 134.697 119.398 131.759 121.054ZM130.488 103.226L129.615 102.358L130.25 101.49L131.124 99.7544L130.806 99.2811L131.362 98.0188L131.282 96.8355L130.965 95.6522L130.171 95.4155L129.853 96.0466L129.376 95.8888C130.091 94.8633 130.726 93.68 131.282 92.5755L132.076 92.26L132.553 91.6288L132.791 91.8655L133.347 91.2344L132.871 90.6822L133.268 90.6033L133.982 90.9188H135.412L136.285 90.4455L138.509 89.8144L138.112 89.1044L137.953 88.2366L139.144 88.7888L139.621 88.5522L139.382 87.6055L137.874 88.1577L136.285 87.8422L135.015 85.3177H142.082C141.765 93.1277 138.588 100.543 133.188 106.144L132.235 105.198L132.632 103.936L131.918 101.096L130.488 103.226ZM127.153 68.83L133.665 62.3611C135.174 64.0177 136.524 65.8322 137.715 67.7255L136.921 67.9622L137 69.3822L139.382 70.8811C140.018 72.2222 140.494 73.5633 140.891 74.9833L140.494 75.6144L139.621 76.2455L139.382 77.5866L138.747 77.9022L138.271 78.5333L137.794 78.2966H136.921L137.397 77.5866L137.794 75.7722L138.429 75.3777L136.682 73.7211L135.412 74.1944L135.094 75.4566L134.3 76.3244L133.426 75.6144L133.109 74.8255L133.585 74.51L133.824 74.9833L134.221 74.8255L134.062 74.0366H133.506V74.3522L133.109 74.4311L131.124 72.0644L130.409 71.5122L130.647 71.2755L131.282 71.0388L130.647 70.8022C130.647 70.8022 129.932 70.96 129.853 70.96L130.25 71.5122H129.218C128.582 70.4866 127.947 69.6188 127.153 68.83ZM128.185 104.093L126.2 103.541L125.565 103.778L124.453 102.91L123.421 102.516C123.976 102.121 124.453 101.727 124.929 101.332L126.597 102.516L127.868 103.147L128.503 103.778L128.185 104.093ZM124.691 73.7211L125.485 73.5633V73.4055L124.691 72.8533L124.929 71.1177L125.882 70.0922C126.518 70.8022 127.074 71.5122 127.629 72.3011L127.312 73.3266L126.438 72.6955L125.724 72.8533L126.041 73.4844H126.359L125.962 74.4311L125.724 74.0366L124.691 73.7211ZM135.729 80.0322L137.397 79.1644L139.065 78.9277L139.462 78.1388L140.415 77.5866L140.812 76.7977L141.129 75.4566C141.288 75.93 141.368 76.4033 141.526 76.8766L140.653 79.4799V80.3477L141.765 78.5333C142.003 80.1111 142.162 81.7677 142.241 83.3455H134.141L133.982 82.6355L134.935 81.9255L135.094 81.4522L135.491 81.1366L136.603 80.9788L136.682 80.5055L135.729 80.0322ZM137.556 58.5744L139.779 58.6533L140.335 59.2844L140.097 60.2311L143.194 62.1244L143.829 62.0455L147.721 66.5422L149.309 65.99C151.85 71.4333 153.2 77.4288 153.279 83.4244H144.068C144.068 81.0577 143.75 78.77 143.194 76.4822L143.591 75.93L144.147 73.0111L143.75 69.9344L142.638 66.3844L140.097 62.6766L140.732 62.9922L141.05 62.6766L138.985 61.2566L138.826 61.73L140.891 64.6488L142.082 67.0155L142.876 69.3822L143.115 70.96L143.512 73.6422L142.718 73.7211C142.718 73.7211 141.844 72.0644 141.526 71.3544L141.924 70.7233L141.129 69.6188V68.5933L140.574 67.8833L139.859 67.9622C139.621 67.4888 139.382 67.0155 139.065 66.6211L139.541 66.8577L139.7 66.7L139.462 66.1477L140.097 65.8322L139.859 65.5166L138.985 65.8322L139.303 64.4122L138.747 64.0966L138.271 65.2011C137.238 63.7022 136.126 62.2822 134.935 60.9411L137.556 58.5744ZM149.309 46.82C158.838 56.6811 164.159 69.7766 164.318 83.4244H155.106C155.026 76.6399 153.438 69.9344 150.341 63.86L150.421 63.7022L151.056 64.0177L151.215 63.5444L149.547 60.7044L147.562 58.0222L145.259 56.1288C144.465 55.1822 143.671 54.2355 142.797 53.2888L149.309 46.82ZM110.079 139.593C141.05 139.593 166.144 114.586 166.065 83.8188C166.065 55.2611 144.306 31.3577 115.718 28.4388L115.638 28.7544C115.559 29.3066 115.4 29.78 115.321 30.2533C127.629 31.4366 139.144 36.8011 147.959 45.4L141.765 51.5533L142.003 50.4488L141.209 50.0544L140.176 50.1333L140.415 49.4233L139.7 46.8988L138.191 45.2422L133.347 42.7177L132.95 43.1911L132.076 43.4277C133.744 45.7944 134.618 48.6344 134.618 51.4744C134.618 51.8688 134.618 52.1844 134.618 52.5788L137 55.5766L135.888 55.8133L136.603 56.9177L134.459 59.0477L133.585 57.47C133.188 58.5744 132.632 59.6788 131.997 60.6255L132.474 61.02L125.882 67.4888C125.485 67.0944 125.088 66.7788 124.691 66.3844C124.056 66.7 123.421 66.9366 122.785 67.1733L123.341 67.5677L123.024 67.8833L122.229 68.2777L121.912 69.0666L121.435 68.5933L120.085 69.0666L120.482 69.6977L121.435 69.4611L122.071 69.54L122.15 69.2244L122.626 68.9877L122.785 68.7511L123.659 68.5144H124.294L124.691 68.83L122.15 71.4333L121.991 71.1966L119.291 71.67L118.656 72.3011L118.1 72.38L119.768 70.8022L119.132 70.4866L117.544 72.5377L118.021 72.4588V73.2477L118.576 73.4844L118.656 74.2733L117.703 74.1155L116.75 74.2733L114.368 73.09C114.368 73.09 114.209 79.4011 114.209 82.5566C119.768 84.45 125.724 87.1322 125.724 94.2322C125.803 97.2299 124.215 100.07 121.674 101.727L121.515 101.806L121.356 101.963C119.132 103.462 116.194 104.251 113.653 105.04L113.574 110.01C117.624 111.982 122.468 114.901 121.991 123.106C121.912 125.157 121.118 125.709 120.482 125.867C118.1 126.419 115.638 126.813 113.256 126.971C113.256 127.602 113.256 128.233 113.256 128.786C123.738 128.076 133.585 123.737 141.209 116.558L147.721 123.027C126.835 143.064 93.7206 143.064 72.7559 123.184L79.2676 116.716C86.8118 123.737 96.5794 127.997 106.903 128.786C106.903 128.233 106.903 127.602 106.903 126.971C97.0559 126.182 87.8441 122.159 80.6971 115.374L82.3647 113.639L84.7471 113.876L86.0176 112.534L89.3529 112.692L89.8294 111.509L89.6706 111.036C94.5941 114.743 100.471 117.11 106.665 117.741C106.665 117.031 106.665 116.4 106.665 115.927C99.8353 115.138 93.4824 112.298 88.4 107.643L94.9118 101.174C96.5 102.594 98.2471 103.778 100.232 104.724C100.391 104.093 100.55 103.541 100.868 102.989C99.2 102.121 97.6118 101.096 96.2618 99.9122L102.774 93.4433C103.806 94.2322 104.997 94.9422 106.188 95.3366C106.188 94.7055 106.188 93.9955 106.188 93.3644C105.394 93.0488 104.679 92.5755 104.044 92.1022L105.871 90.2877C105.235 90.13 104.6 89.8933 103.965 89.6566L102.694 90.9188C102.059 90.2088 101.503 89.42 101.106 88.6311C99.9941 88.1577 98.8823 87.6055 97.85 86.8955C94.0382 84.6077 91.7353 80.4266 91.8147 75.93C91.7353 72.9322 92.6088 69.9344 94.4353 67.5677L87.9235 61.0988C92.6882 56.5233 98.8029 53.6044 105.315 52.5788C105.315 51.9477 105.315 51.3166 105.315 50.7644C98.3265 51.79 91.7353 54.9455 86.6529 59.8366L85.5412 58.7322C85.3029 59.1266 84.9853 59.6788 84.6676 60.3888L85.3824 61.0988C79.5853 67.1733 76.3294 75.22 76.1706 83.5822H66.8794C67.0382 72.7744 71.2471 62.44 78.7912 54.5511L81.7294 57.47C81.8882 57.47 81.9676 57.47 82.1265 57.47C82.6824 57.3911 83.3176 57.2333 83.7941 56.9966L80.0618 53.2888C82.0471 51.3955 84.1912 49.66 86.4941 48.1611C86.6529 47.6877 86.7324 47.2144 86.9706 46.82C87.3676 46.1888 87.8441 45.5577 88.4 44.9266C84.9059 46.82 81.7294 49.1866 78.8706 51.9477L72.3588 45.4788C81.0941 37.0377 92.45 31.7522 104.679 30.49C104.679 30.2533 104.6 30.0955 104.6 30.0955C104.521 29.6222 104.441 29.2277 104.362 28.6755C73.4706 31.8311 51.1559 59.2055 54.4118 89.8144C57.4294 118.136 81.4118 139.672 110.079 139.593ZM137.635 43.27L137.079 42.4022L135.888 41.7711L134.935 42.4811L136.126 43.1122L137.476 44.0588L137.635 43.27ZM132.076 69.1455L132.156 69.8555L133.744 69.3822L134.221 68.4355L133.109 67.0155L133.665 66.1477L135.174 67.1733L135.412 66.9366L135.094 66.7L134.776 66.0688L135.412 65.7533L134.776 64.9644L133.347 65.6744L132.871 66.5422L132.553 67.3311L133.188 68.3566L132.95 68.83L132.076 69.1455ZM65.5294 110.168L65.6088 109.773L64.8147 107.959L63.8618 107.564L65.5294 110.168ZM103.091 75.7722C103.091 77.35 104.044 78.3755 105.712 79.3222C105.712 79.3222 105.712 79.0855 105.712 78.6122L104.679 77.5077L105.235 76.4822L105.712 76.3244C105.632 74.5099 105.632 72.5377 105.632 72.2222H105.553C103.965 73.1688 103.171 74.2733 103.091 75.7722Z" fill="#00205C"/>
<path d="M113.415 115.453C116.273 116.873 118.973 118.924 120.085 122.711C120.562 116.4 116.988 113.718 113.494 111.824L113.415 115.453Z" fill="#00205C"/>
<path d="M132.632 51.4745C132.632 45.7156 128.423 39.4045 118.179 37.1956C117.147 37.0378 116.115 36.88 115.082 36.8011C115.082 37.6689 115.003 39.6411 115.003 39.6411C115.003 40.2723 114.923 42.56 114.923 43.0334C115.559 43.1123 116.273 43.1911 116.909 43.27C122.865 44.69 125.009 48.0823 125.009 51.3956C125.009 56.8389 120.323 58.89 114.606 60.4678L112.7 60.9411C110.953 61.3356 109.126 61.8089 107.379 62.2823C106.744 62.44 106.109 62.5978 105.473 62.8345C99.1205 64.7278 93.6411 67.8045 93.6411 75.6145C93.6411 83.4245 99.9146 86.2645 106.029 88.1578C106.029 85.9489 105.95 83.6611 105.871 81.4523C103.091 80.19 101.265 78.5334 101.265 75.7723C101.265 73.0111 103.012 71.4334 105.632 70.25C106.188 70.0134 106.823 69.7767 107.538 69.54C109.047 68.9878 110.794 68.5934 112.541 68.12L114.447 67.6467C123.023 65.5956 132.712 62.9134 132.632 51.4745Z" fill="#00205C"/>
<path d="M101.741 106.144C101.741 109.3 104.044 110.957 106.347 112.298C106.347 111.746 106.268 106.933 106.268 106.854C106.347 105.908 107.221 105.277 108.015 104.961C109.206 104.409 110.477 103.936 111.747 103.541C112.462 103.304 113.018 103.068 113.653 102.91C118.338 101.49 123.738 99.7544 123.738 94.0744C123.738 88.3944 119.132 86.1066 114.05 84.3711C113.971 86.1855 113.971 88.7889 113.891 90.6033C116.035 91.3922 117.465 92.4178 117.465 94.0744C117.465 96.1255 115.321 97.23 113.732 97.8611C113.097 98.0978 112.144 98.4133 111.827 98.4922C110.556 98.8867 109.285 99.2811 108.015 99.7544C107.379 99.9911 106.744 100.228 106.109 100.543C104.044 101.648 101.741 103.304 101.741 106.144Z" fill="#00205C"/>
<path d="M104.918 37.6688C103.012 38.2999 101.106 39.0099 99.2793 39.9566C97.294 40.5877 94.4352 40.7455 91.497 43.901C90.544 45.0055 89.6705 46.1888 88.797 47.3722C87.9234 48.6344 87.844 50.6855 87.2087 51.711C86.2558 53.2888 86.494 54.2355 86.494 54.2355C86.3352 54.9455 85.9381 55.6555 85.4617 56.2077C84.5087 57.3122 83.0793 57.8644 81.6499 57.6277C82.9999 58.2588 84.8264 57.391 84.8264 57.391C84.5087 58.2588 84.2705 59.1266 84.1117 59.9944C85.6205 56.6022 86.9705 55.4188 87.447 55.0244C88.0823 55.1822 89.4323 55.1033 91.894 53.6833C94.6734 52.1055 98.8823 49.5022 100.073 47.8455C101.344 46.1888 103.012 44.8477 104.997 44.1377C104.997 41.771 104.918 39.5622 104.918 37.6688ZM93.1646 48.161L91.7352 48.4766L93.4823 45.6366L95.4675 45.7155L93.1646 48.161Z" fill="#00205C"/>
<path d="M110.715 105.75C110.476 105.829 109.762 106.144 109.285 106.302C108.809 106.46 108.253 106.697 108.253 106.854C108.253 106.854 108.729 131.152 108.729 131.626C108.729 136.596 111.27 136.674 111.27 131.626C111.27 131.31 111.826 105.356 111.826 105.356C111.826 105.356 111.112 105.592 110.715 105.75Z" fill="#00205C"/>
<path d="M108.015 97.7034C108.809 97.4667 109.603 97.1512 110.318 96.9934C110.874 96.8356 111.35 96.6778 111.906 96.5201C111.906 95.0212 112.382 73.879 112.462 70.0923C110.794 70.4867 109.126 70.9601 107.538 71.5123C107.618 74.3523 108.015 95.4156 108.015 97.7034Z" fill="#00205C"/>
<path d="M110.159 17C103.012 17 106.029 27.5711 106.585 31.0422C106.585 31.2 107.141 54.9456 107.3 60.3889C108.412 60.0733 109.444 59.8367 110.556 59.6L112.7 59.0478C112.779 53.7622 113.335 31.1211 113.335 30.9633C113.812 27.3344 117.544 17 110.159 17Z" fill="#00205C"/>
</g>
<defs>
<clipPath id="clip0_2706_13160">
<rect width="162" height="142" fill="white" transform="translate(29 17)"/>
</clipPath>
</defs>
</svg>
