<svg width="228" height="70" viewBox="0 0 228 70" fill="none" xmlns="http://www.w3.org/2000/svg">
<g clip-path="url(#clip0_2718_13256)">
<path d="M64.3725 12.8241C65.8916 14.6316 68.531 15.6971 70.0881 17.5047C68.9678 12.1391 64.8472 7.7629 59.967 6.71642C62.3596 8.52397 62.8723 10.9975 64.3725 12.8241ZM5.67769 26.4093C9.03873 19.0839 14.0518 20.6251 16.1786 13.6422C14.9823 15.7923 9.49446 16.6865 6.94995 22.1853C8.24119 18.9127 7.59557 13.9276 9.79828 11.2258C3.24711 16.0777 6.03848 23.9358 5.67769 26.4093ZM11.7731 43.9901C12.3808 46.8442 10.5958 50.973 13.4252 54.9116C10.5009 51.639 4.32947 50.8018 1.80395 45.8167C4.95611 57.9939 13.1593 55.4824 16.8812 58.1462C13.8239 53.7509 16.3115 50.8398 11.7731 43.9901ZM10.8237 51.639C9.00075 44.8273 12.2289 42.487 9.7793 35.9417C9.51345 39.6139 7.08287 41.4215 8.73491 48.157C5.81061 42.449 1.31024 40.337 0 36.4174C0.0949446 47.1105 8.65895 48.6898 10.8237 51.639ZM24.002 63.0741C21.4765 59.5732 23.2045 57.5944 16.1026 51.2394C17.6027 53.5607 16.0646 56.4718 20.8309 61.0192C16.1596 58.2603 9.70334 59.44 6.58916 55.7488C11.944 65.9852 21.3436 61.7993 24.002 63.0741ZM58.315 61.0002C63.1002 56.4528 61.5431 53.5416 63.0622 51.2204C55.9793 57.5753 57.6884 59.5541 55.1628 63.0551C57.8213 61.7803 67.2208 65.9662 72.5567 55.7297C69.4425 59.421 62.9863 58.2413 58.315 61.0002ZM65.7207 54.9116C68.531 50.973 66.7651 46.8442 67.3727 43.9901C62.8343 50.8398 65.3219 53.7509 62.2837 58.1271C65.9865 55.4824 74.2087 57.9939 77.3609 45.7977C74.8354 50.8018 68.645 51.639 65.7207 54.9116ZM54.4033 63.5498C51.6309 62.8077 48.7825 62.4462 46.6558 62.3892C43.9973 62.313 41.6427 62.8268 39.5919 63.5878C37.5411 62.8268 35.1675 62.313 32.528 62.3892C30.4013 62.4462 27.5529 62.8077 24.7805 63.5498C20.508 64.6914 16.8242 65.5667 13.6151 63.9494C16.6913 66.6892 20.2992 67.6596 25.4831 67.1078C29.8126 66.6322 33.2876 64.4821 37.3702 64.5011C37.4272 64.5011 37.4841 64.5011 37.5221 64.5011C33.2306 66.6702 30.8 69.7335 30.8 69.7335L32.7749 69.9999C32.7749 69.9999 34.8447 65.833 39.6109 64.7485C44.3771 65.833 46.4469 69.9999 46.4469 69.9999L48.4218 69.7335C48.4218 69.7335 45.9912 66.6702 41.6997 64.5011C41.7566 64.5011 41.8136 64.5011 41.8516 64.5011C45.9342 64.4821 49.4092 66.6322 53.7387 67.1078C58.9226 67.6596 62.5305 66.6892 65.6067 63.9494C62.3596 65.5667 58.6568 64.6914 54.4033 63.5498ZM10.0831 28.5783C8.31715 31.9651 5.58274 32.7262 5.88657 39.7091C4.40543 33.5063 0.892479 31.2041 0.930457 27.2274C-1.51911 37.559 5.03206 38.7958 6.70309 43.1339C6.45623 36.9312 10.4059 35.6754 10.0831 28.5783ZM12.5327 20.587C11.925 21.4432 11.4883 21.8048 9.85525 23.1557C7.63355 25.0013 5.84859 27.4177 5.10802 30.9377C5.27892 27.1513 2.94328 21.6906 4.50037 17.733C-1.51911 26.2571 4.84218 31.3563 5.07004 34.4386C6.60815 28.4832 10.1971 28.4451 12.5327 20.587ZM74.0378 30.9377C73.2972 27.4177 71.5123 25.0013 69.2906 23.1557C67.6575 21.8048 67.2208 21.4432 66.6132 20.587C68.9488 28.4451 72.5377 28.4832 74.0948 34.4196C74.3226 31.3372 80.6839 26.238 74.6645 17.714C76.2215 21.6906 73.8859 27.1323 74.0378 30.9377ZM79.1458 36.4174C77.8356 40.337 73.3162 42.449 70.4109 48.157C72.063 41.4215 69.6134 39.633 69.3665 35.9417C66.917 42.487 70.1451 44.8273 68.3222 51.639C70.4869 48.6898 79.0509 47.1105 79.1458 36.4174ZM69.0817 28.5783C68.7399 35.6754 72.7086 36.9312 72.4617 43.153C74.1517 38.8148 80.6839 37.5971 78.2344 27.2465C78.2723 31.2041 74.7594 33.5253 73.2783 39.7281C73.5631 32.7262 70.8287 31.9461 69.0817 28.5783ZM14.7734 12.8241C16.2925 11.0165 16.8052 8.52397 19.1788 6.73544C14.2987 7.7629 10.1591 12.1391 9.05772 17.5047C10.6148 15.6971 13.2543 14.6316 14.7734 12.8241ZM62.9483 13.6422C65.075 20.6251 70.0881 19.0839 73.4492 26.4093C73.0884 23.9358 75.8987 16.0777 69.3286 11.2258C71.5313 13.9276 70.8667 18.9127 72.1769 22.1853C69.6514 16.6865 64.1636 15.7732 62.9483 13.6422ZM45.9152 17.5998C44.643 17.0861 43.3137 16.7055 41.9086 16.5153C41.9086 16.8197 41.8896 17.1241 41.8896 17.4095C43.1808 17.5998 44.4151 17.9423 45.5734 18.437C45.7443 18.1706 45.8583 17.9042 45.9152 17.5998ZM44.8898 8.96159L45.1557 8.71424L44.643 8.50495L43.2947 8.48592L42.9529 8.73327L42.1554 8.67619L42.1364 8.86646C42.6491 8.90451 43.1238 8.94257 43.5226 9.01867L44.1682 8.96159H44.8898ZM42.3073 37.9586C42.3073 37.7303 42.0035 37.502 41.5668 37.2927H41.4908C41.4908 37.4829 41.4718 38.3962 41.4528 38.8338C42.0035 38.5865 42.3073 38.3201 42.3073 37.9586ZM26.7554 20.8724C26.7934 20.6822 26.8124 20.549 26.8693 20.3777C26.6984 20.4158 26.5085 20.4348 26.3186 20.4348L26.7554 20.8724ZM39.6109 60.4294C54.7071 60.4294 66.9929 48.119 66.9929 32.9926C66.9929 18.7985 56.1882 7.09696 42.3833 5.68896C42.3643 5.74605 42.3643 5.80313 42.3453 5.84118C42.2883 6.10756 42.2504 6.35491 42.1934 6.5642C48.3838 7.17306 53.9285 9.91294 58.1441 14.0418L55.1248 17.0671L55.2388 16.5343L54.84 16.3631L54.3083 16.344L54.4223 16.0015L54.0615 14.7648L53.3019 13.9466L50.9473 12.6909L50.7384 12.9192L50.3017 13.0524C51.1182 14.2511 51.5549 15.64 51.5549 17.029C51.5549 17.2193 51.5549 17.3905 51.5359 17.5618L52.7133 19.0268L52.1626 19.16L52.5234 19.7118L51.498 20.7392L51.0802 19.9401C50.8903 20.4919 50.6245 21.0056 50.3017 21.4813C50.3776 21.5574 50.4536 21.6145 50.5295 21.6906L47.3584 24.8871C47.1685 24.6968 46.9596 24.5256 46.7507 24.3544C46.4469 24.4876 46.1431 24.6207 45.8203 24.7539C45.9152 24.83 46.0102 24.8871 46.0861 24.9632L45.9152 25.1345L45.5354 25.3438L45.4025 25.7243L45.1747 25.496L44.51 25.7243L44.6999 26.0097L45.1557 25.8765L45.4595 25.8955L45.4785 25.7243L45.7063 25.6101L45.7823 25.477L46.2001 25.3628L46.5229 25.3438C46.5798 25.4008 46.6558 25.4579 46.7128 25.515L45.4405 26.7708L45.3456 26.6376L44.0353 26.8659L43.7505 27.1513L43.4656 27.1894L44.2822 26.4093L43.9973 26.2571L43.2378 27.2845L43.4656 27.2655L43.4467 27.646L43.7315 27.7602L43.7885 28.1597L43.3327 28.0646L42.858 28.1597L41.6997 27.5699C41.6997 27.5699 41.6427 30.6903 41.6047 32.2505C44.3391 33.1638 47.2444 34.4957 47.2444 37.9967C47.2444 39.5378 46.5798 40.7746 45.2696 41.6879H45.2886C45.2696 41.7069 45.2506 41.7069 45.2316 41.7259C45.2126 41.745 45.1747 41.764 45.1367 41.783C44.0353 42.5251 42.6111 42.9056 41.3769 43.2861L41.3389 45.7406C43.2947 46.711 45.6684 48.138 45.4595 52.1907C45.4405 53.1992 45.0417 53.4655 44.7189 53.5607C43.5796 53.8461 42.3833 54.0363 41.168 54.1124C41.168 54.4359 41.149 54.7213 41.149 55.0067C46.4279 54.6452 51.1941 52.4191 54.802 48.9562L57.9922 52.1527C53.226 56.7382 46.7507 59.5732 39.6489 59.5732C32.566 59.5732 26.1288 56.7762 21.3815 52.2288L24.5717 49.0323C28.1416 52.4191 32.8319 54.6071 38.0348 54.9877C38.0348 54.7023 38.0158 54.4169 38.0158 54.0934C33.0787 53.7129 28.6163 51.6199 25.1983 48.4044L26.0528 47.5482L27.2111 47.6814L27.8378 47.0154L29.4708 47.0725L29.7177 46.5017L29.6607 46.2734C32.0153 48.0619 34.8637 49.2416 37.9589 49.565C37.9589 49.2225 37.9399 48.9181 37.9399 48.6708C34.5219 48.2902 31.4267 46.8061 29.0341 44.599L32.2242 41.4025C33.0028 42.0874 33.8573 42.6773 34.8067 43.1339C34.8827 42.8295 34.9776 42.5441 35.1295 42.2967C34.313 41.8781 33.5344 41.3644 32.8508 40.7746L36.041 37.5781C36.5537 37.9776 37.1233 38.3011 37.75 38.5294C37.75 38.206 37.731 37.8825 37.731 37.559C37.3512 37.3878 36.9904 37.1785 36.6676 36.9311L37.5601 36.0369C37.2373 35.9418 36.9335 35.8466 36.6106 35.7325L36.003 36.3413C35.6992 35.9988 35.4333 35.6183 35.2434 35.1997C34.6928 34.9524 34.1611 34.686 33.6674 34.3625C31.7115 33.0687 30.7051 31.2421 30.7051 28.9398C30.7051 27.1894 31.1988 25.8575 31.9963 24.811L28.8252 21.6335C31.1039 19.4454 34.0471 17.9423 37.3132 17.4476C37.3132 17.1432 37.2942 16.8387 37.2942 16.5533C33.7813 17.0671 30.6291 18.6653 28.1986 21.0056L27.6669 20.4729C27.5529 20.6822 27.401 20.9676 27.2491 21.3101L27.5909 21.6525C24.8565 24.5637 23.1665 28.4642 23.0905 32.7643H18.4952C18.5712 27.2274 20.7739 22.2043 24.3058 18.475L25.73 19.9021C25.787 19.9021 25.8629 19.9021 25.9389 19.9021C26.1857 19.883 26.4706 19.8069 26.7554 19.6737L24.9325 17.8472C25.9009 16.9148 26.9453 16.0777 28.0656 15.3356C28.1606 15.0312 28.2365 14.7648 28.2935 14.6697C28.3505 14.5555 28.6353 14.175 28.9771 13.7373C27.2681 14.6887 25.692 15.8493 24.3058 17.2002L21.1347 14.0037C25.3122 9.93196 30.8 7.23014 36.9145 6.60226C36.8955 6.4881 36.8765 6.41199 36.8765 6.41199C36.8385 6.18366 36.7815 5.93631 36.7436 5.70799C22.9766 7.13501 12.2289 18.8366 12.2289 32.9926C12.2289 48.119 24.4957 60.4294 39.6109 60.4294ZM45.5164 41.4786V41.4596V41.4786ZM58.7707 14.6887C63.2521 19.3883 66.0245 25.7433 66.1004 32.7262H61.6001C61.5621 29.2633 60.7076 25.9907 59.2454 23.0986L59.2834 23.0225L59.5872 23.1937L59.6632 22.9654L58.8657 21.5194L57.9162 20.2065L56.7959 19.2742C56.4161 18.7985 56.0173 18.3228 55.5806 17.8852L58.7707 14.6887ZM53.0361 20.4538L54.1184 20.5109L54.3653 20.8154L54.2324 21.272L55.7325 22.2043L56.0173 22.1663L57.9352 24.3734L58.7138 24.107C59.929 26.7327 60.6316 29.6438 60.6696 32.7072H56.2072C56.1882 31.5275 56.0363 30.3859 55.7895 29.2823L55.9983 28.9969L56.2832 27.5889L56.0743 26.0668L55.5236 24.3163L54.2703 22.4707L54.5742 22.6419L54.7261 22.4897L53.7197 21.8048L53.6437 22.0331L54.6501 23.4791L55.2198 24.6588L55.6186 25.8385L55.7515 26.6186L55.9604 27.9504L55.5806 27.9695C55.5806 27.9695 55.1438 27.1513 55.0109 26.8279L55.2198 26.5234L54.84 25.9716V25.4199L54.5552 25.0774L54.2134 25.1154C54.0805 24.8871 53.9665 24.6588 53.8336 24.4495L54.0805 24.5827L54.1374 24.5066L54.0045 24.2212L54.2893 24.0499L54.1564 23.8787L53.7197 24.0499L53.8716 23.365L53.6247 23.2127L53.3969 23.7645C52.9031 23.0225 52.3525 22.3375 51.7638 21.6716L53.0361 20.4538ZM52.1436 31.0328L52.9411 30.5952L53.7576 30.462L53.9475 30.0624L54.4033 29.777L54.5742 29.3965L54.7261 28.7306C54.783 28.9589 54.859 29.2062 54.916 29.4345L54.4792 30.7474L54.4602 31.185L55.0869 30.3478C55.2198 31.1279 55.2957 31.908 55.3147 32.7262H51.365L51.2701 32.3837L51.7258 32.0222L51.8208 31.7939L52.0297 31.6417L52.5613 31.5846L52.6183 31.3563L52.1436 31.0328ZM46.7317 27.9314L47.1305 27.8363L47.1115 27.7412L46.7128 27.4748L46.8457 26.6186L47.3204 26.1429C47.6242 26.4854 47.9091 26.8469 48.1559 27.2274L47.985 27.7412L47.5483 27.4367L47.2065 27.5319L47.3774 27.8363H47.5483L47.3584 28.2929L47.2255 28.1027L46.7317 27.9314ZM48.4597 42.9056L47.4913 42.6202L47.2065 42.7344L46.6558 42.3158L46.1431 42.1255C46.3899 41.9352 46.6558 41.745 46.8837 41.5357L47.6812 42.1065L48.2888 42.4299L48.5927 42.7344L48.4597 42.9056ZM47.966 25.515L51.1562 22.3185C51.8967 23.1366 52.5613 24.0119 53.131 24.9632L52.7322 25.0774L52.7512 25.8004L53.9475 26.5615C54.2324 27.2084 54.4982 27.8934 54.6881 28.5783L54.4792 28.8828L54.0425 29.1491L53.9285 29.8151L53.6437 29.9863L53.3969 30.2717L53.15 30.1766L52.7133 30.1576L52.9601 29.8151L53.15 28.9208L53.4348 28.7306L52.5803 27.9124L51.9347 28.1407L51.7828 28.7496L51.384 29.1872L50.9663 28.8447L50.8144 28.4832L51.0612 28.331L51.1941 28.5403L51.384 28.4642L51.3081 28.0646L51.0232 28.0456L51.0042 28.2168L50.8144 28.2549L49.8269 27.0942L49.4851 26.8279L49.6181 26.6947L49.9219 26.5805L49.637 26.4663C49.637 26.4663 49.2952 26.5425 49.2573 26.5425L49.4472 26.7898L48.9534 26.7708C48.6496 26.3522 48.3268 25.9146 47.966 25.515ZM49.5991 42.487L49.1623 42.0494L49.4851 41.6118L49.9029 40.7556L49.751 40.5272L50.0358 39.8993L49.9978 39.3285L49.8269 38.7387L49.4282 38.6055L49.2763 38.929L49.0484 38.8719C49.3902 38.3391 49.751 37.8254 49.9788 37.2166L50.3776 37.0453L50.6055 36.7409L50.7194 36.8741L50.9853 36.5506L50.7574 36.2652L50.9663 36.2081L51.3271 36.3603L52.0297 36.3794L52.4474 36.151L53.5488 35.8656L53.3399 35.5041L53.2639 35.0665L53.8526 35.3139L54.0805 35.1807L53.9665 34.724L53.2449 34.9904L52.4474 34.8382L51.8398 33.6014H55.2768C55.1248 37.5781 53.4918 41.1741 50.9283 43.8569L50.4536 43.3813L50.6624 42.7534L50.3017 41.3644L49.5991 42.487ZM50.2067 51.2774L50.6245 50.3641L50.4536 49.9646L51.0802 49.4128V49.0893L50.5485 48.7659L50.9853 47.8906L51.6499 47.0344L50.9853 46.3114H50.4916L50.1877 45.8167C50.4536 45.5884 50.7194 45.3791 50.9663 45.1317L54.1564 48.3283C52.9601 49.4509 51.6309 50.4403 50.2067 51.2774ZM54.1564 47.0725L54.4982 46.6729L54.1754 44.9225L53.9475 44.8273L54.0805 44.5419L53.3209 44.3136L53.169 44.9415L53.093 45.7216L52.9411 45.8738L51.5739 44.5039C54.3083 41.6498 56.0173 37.8254 56.1692 33.6205H60.6696C60.5177 39.0812 58.277 44.0282 54.7451 47.7004L54.1564 47.0725ZM55.4097 48.3092C59.1125 44.4848 61.4482 39.3095 61.6001 33.6014H66.1004C65.9485 40.5463 63.1002 46.8442 58.5998 51.4867L55.4097 48.3092ZM28.3125 43.9331C27.9897 43.5906 27.6859 43.2481 27.382 42.8866L27.5149 41.745L27.0402 40.6604L26.9263 38.948L26.3946 37.9015L26.5085 37.2546L25.8629 36.0179L25.2932 35.7325L25.5211 35.0665L25.2932 34.5528L25.5211 33.963H26.1477L26.3566 33.6014H27.401L27.5719 33.9059L27.382 34.9714L27.2491 35.1616L27.6479 36.0179L27.382 36.151L27.1921 35.9227L27.1162 35.9988L27.3061 36.5126L27.6099 37.1024L27.7618 37.0834L27.8568 36.5506L27.7048 36.3603L27.6859 35.9988L27.6479 35.2568L27.8757 33.9439L27.6669 33.5824H28.4264C28.5783 36.3413 29.7177 38.8529 31.5216 40.7365L28.3125 43.9331ZM25.3502 35.1236L24.9135 35.7895H24.1919L24.1349 35.7515C24.002 35.0475 23.926 34.3435 23.9071 33.6014H25.2743L24.9514 34.686L25.3502 35.1236ZM26.8124 32.0222L26.8883 31.1279L27.42 30.8235L28.3695 30.9948L28.5024 31.166C28.4264 31.6797 28.3695 32.1935 28.3505 32.7262H27.2681L26.8124 32.0222ZM31.3887 35.39L31.6166 35.2758L32.2052 35.7134L31.9394 35.9227L32.604 36.3603L32.566 35.8847L32.9078 35.2948L33.2686 35.6944L33.6484 36.2462L32.9648 36.3984L33.2686 37.0073L33.7433 36.7599L33.6864 36.5696L34.0471 36.3223L34.256 35.3519C34.5219 35.9417 34.8637 36.4745 35.2814 36.9311L32.0913 40.1086C30.5722 38.5104 29.5658 36.4365 29.2999 34.1152L29.9455 34.8192L30.5532 34.8001L31.3887 35.39ZM28.1226 22.2424L31.2937 25.4389C30.6291 26.1619 30.0595 26.9801 29.6037 27.8743L29.3759 27.8553L28.9201 27.9885L28.7682 27.9695L28.2935 28.4071L28.9011 28.312L29.4328 28.1788C29.3949 28.2549 29.3759 28.312 29.3379 28.3881L28.8632 28.6735H28.6733L27.9707 29.2062L27.3061 29.1491L26.3186 30.9757L26.5085 31.3372L25.9768 31.9271L25.9009 32.6882H23.8881C23.964 28.6735 25.5591 25.0013 28.1226 22.2424ZM24.021 46.2924L25.0274 46.8822L25.2363 47.0154L24.4957 47.7384C24.1539 47.3769 23.8311 47.0154 23.5083 46.6349L24.021 46.2924ZM23.0146 33.6014C23.0336 34.0391 23.0715 34.4767 23.1095 34.8953L22.5588 35.0285L22.4449 35.5802L21.2866 37.0453L21.3056 39.0622L20.1283 39.4617H19.4826C18.875 37.6161 18.5332 35.6373 18.4762 33.6014H23.0146ZM18.5712 39.4427L18.3053 39.3856L18.0585 39.1002L16.8052 38.9861L17.204 39.5188L16.0267 39.2905L16.3305 39.0051L16.0456 38.7197L15.1911 39.1002L14.8873 39.652L15.0013 40.9458L15.9697 43.2671L16.4444 43.9901L16.7103 44.0853L15.9697 42.6773L15.8178 41.9733L15.9887 41.802L15.8937 41.4025L16.3305 41.4596L17.0141 42.487L17.185 42.5631L17.166 41.8211L17.4318 41.9733L17.4888 42.3919L18.2104 42.5821L18.5142 42.3728L18.6091 42.449L18.5902 43.0007L18.913 43.3813L19.2927 43.4574L20.1283 44.8654L20.622 44.9986L20.7739 44.3326C21.6474 45.7787 22.6918 47.1296 23.8691 48.3473L20.6979 51.5438C16.1406 46.8822 13.2733 40.5653 13.1213 33.5824H17.6217C17.6787 35.6183 18.0015 37.5781 18.5712 39.4427ZM20.508 14.6126L23.6792 17.8091C19.9763 21.7096 17.6787 26.9611 17.6027 32.7262H13.1024C13.1783 25.6862 15.9887 19.3122 20.508 14.6126ZM53.093 12.9572L52.8272 12.5196L52.2195 12.2342L51.7638 12.5767L52.3525 12.8811L53.0171 13.3568L53.093 12.9572ZM50.3586 25.6862L50.3776 26.0287L51.1562 25.8004L51.384 25.3247L50.8523 24.6207L51.1372 24.1831L51.8587 24.6968L51.9917 24.5827L51.8398 24.4876L51.6689 24.1831L51.9727 24.0119L51.6879 23.6313L51.0042 23.9738L50.7764 24.3924L50.6435 24.773L50.9473 25.2867L50.8334 25.515L50.3586 25.6862ZM17.8116 45.9118L17.8686 45.7026L17.4698 44.8273L16.9951 44.6561L17.8116 45.9118ZM36.2119 28.9589C36.2119 29.72 36.6676 30.2527 37.5031 30.7093C37.5031 30.7093 37.5031 30.5762 37.5031 30.3669L36.9714 29.8341L37.2563 29.3204L37.4841 29.2633C37.4651 28.3881 37.4462 27.3987 37.4462 27.2655H37.4082C36.6486 27.7031 36.2119 28.2168 36.2119 28.9589Z" fill="white"/>
<path d="M41.244 48.4995C42.6491 49.2225 43.9594 50.2119 44.5101 52.0765C44.7379 48.9751 43.0099 47.6242 41.2819 46.7109C41.2819 46.73 41.244 48.4995 41.244 48.4995Z" fill="white"/>
<path d="M50.6244 16.991C50.6244 14.175 48.5736 11.0355 43.5796 9.93198C43.2188 9.85588 42.6491 9.7988 42.0604 9.76074C42.0415 10.1793 42.0225 11.1687 42.0225 11.1687C42.0225 11.4732 41.9845 12.5958 41.9845 12.8431C42.4402 12.8812 42.782 12.9382 42.9529 12.9763C45.8582 13.6803 46.9026 15.3356 46.9026 16.991C46.9026 19.6738 44.6239 20.6822 41.8136 21.4433C41.5098 21.5194 41.187 21.6145 40.8831 21.6906C40.0286 21.8999 39.1551 22.1092 38.2816 22.3375C37.9778 22.4136 37.655 22.5088 37.3512 22.6039C34.237 23.5553 31.5596 25.0584 31.5596 28.9018C31.5596 32.7262 34.6168 34.1532 37.598 35.0665C37.5791 33.963 37.5601 32.8594 37.5411 31.7558C36.2308 31.147 35.3004 30.3288 35.3004 28.9589C35.3004 27.627 36.1359 26.8089 37.4271 26.219C37.712 26.0858 38.0158 25.9717 38.3386 25.8575C39.0792 25.6102 39.9147 25.3818 40.7882 25.1725C41.092 25.0964 41.3958 25.0203 41.7186 24.9442C45.9342 23.9548 50.6244 22.642 50.6244 16.991Z" fill="white"/>
<path d="M35.5472 43.9141C35.5472 45.4552 36.6866 46.2924 37.8259 46.9393C37.8259 46.673 37.7689 44.2946 37.7689 44.2565C37.7879 43.7809 38.2627 43.4955 38.6234 43.3242C39.1741 43.0578 39.7248 42.8866 40.4274 42.6392C40.7692 42.5251 41.054 42.4109 41.3768 42.3158C43.6555 41.6308 46.295 40.7556 46.295 37.9777C46.295 35.1997 44.0353 34.0581 41.5667 33.2019C41.5477 34.0962 41.5288 35.371 41.5098 36.2652C42.5542 36.6838 43.2378 37.1785 43.2378 37.9777C43.2378 38.9671 42.1744 39.5379 41.4338 39.8233C41.13 39.9374 40.6363 40.1087 40.5034 40.1467C39.8957 40.337 39.2501 40.5463 38.6424 40.7746C38.3196 40.8888 38.0158 41.022 37.712 41.1742C36.6486 41.7069 35.5472 42.5061 35.5472 43.9141Z" fill="white"/>
<path d="M37.0853 10.1985C35.5662 10.6361 34.6737 11.2069 34.3509 11.3211C33.3635 11.6445 31.9773 11.7016 30.5532 13.2618C30.3063 13.5472 29.6797 14.3273 29.2429 14.9552C28.8062 15.5831 28.7872 16.5725 28.4834 17.1243C28.0276 17.9044 28.1416 18.342 28.1416 18.342L28.1605 18.361C28.1416 18.4562 28.0466 18.8748 27.6289 19.3314C27.1541 19.8642 26.5275 20.1496 25.7679 20.0354C26.4136 20.3589 27.325 19.9022 27.325 19.9022C27.325 19.9022 27.1541 20.3969 26.9832 21.196C27.7238 19.5407 28.3884 18.9318 28.5973 18.7606C28.9201 18.8367 29.5657 18.7986 30.762 18.1137C32.1292 17.3336 34.18 16.0397 34.7687 15.2406C35.3953 14.3654 36.2498 13.7946 37.1803 13.414C37.1423 12.1963 37.1233 11.1118 37.0853 10.1985ZM31.3317 15.3738L30.6291 15.526L31.4646 14.1371L32.452 14.1751L31.3317 15.3738Z" fill="white"/>
<path d="M39.9147 43.7237C39.7818 43.7618 39.44 43.914 39.2311 43.9901C39.0032 44.0662 38.7184 44.1804 38.7184 44.2755C38.7184 44.2945 38.9273 56.2434 38.9273 56.4908C38.9273 58.9453 40.1805 58.9643 40.1805 56.4908C40.1805 56.3195 40.4274 43.5525 40.4274 43.5525C40.4274 43.5525 40.1236 43.6476 39.9147 43.7237Z" fill="white"/>
<path d="M38.6234 39.7854C39.0032 39.6522 39.402 39.538 39.7628 39.4238C40.0286 39.3287 40.2945 39.2526 40.5223 39.1765C40.5413 38.4154 40.7502 28.0267 40.7882 26.1431C39.8577 26.3714 39.0412 26.5997 38.3766 26.8471C38.3956 28.2741 38.6045 38.6628 38.6234 39.7854Z" fill="white"/>
<path d="M39.6679 0C36.1549 0 37.655 5.21337 37.9209 6.9258C37.9399 7.0019 38.2057 18.7035 38.2627 21.3862C38.7944 21.2531 39.3261 21.1199 39.8388 20.9867C40.1996 20.8915 40.5604 20.8154 40.9022 20.7203C40.9591 18.1326 41.225 6.96385 41.225 6.88774C41.4149 5.08018 43.2568 0 39.6679 0Z" fill="white"/>
<path d="M97.0144 16.6295H96.9574L93.9952 32.8785H89.9125L86.0958 13.0334H89.3429L91.9823 28.3311H92.0393L94.8876 13.0334H99.1032L101.914 28.3311H101.971L104.724 13.0334H107.857L103.964 32.8785H99.8248L97.0144 16.6295Z" fill="white"/>
<path d="M113.611 18.0186C116.44 18.0186 119.725 19.5788 119.725 25.5532C119.725 31.6989 116.459 33.1069 113.611 33.1069C110.781 33.1069 107.477 31.6799 107.477 25.5532C107.477 19.5788 110.781 18.0186 113.611 18.0186ZM113.611 30.6144C115.775 30.6144 116.25 27.9887 116.25 25.5532C116.25 23.0987 115.756 20.5111 113.611 20.5111C111.446 20.5111 110.933 23.0987 110.933 25.5532C110.933 27.9887 111.446 30.6144 113.611 30.6144Z" fill="white"/>
<path d="M121.795 20.6633C121.795 19.75 121.776 18.8938 121.681 18.2469H124.7C124.719 19.1221 124.814 20.0354 124.814 20.9106H124.871C125.27 19.769 126.333 18.0186 128.403 18.0186C128.612 18.0186 128.783 18.0756 128.973 18.1137V21.4053C128.669 21.3292 128.384 21.2722 128.023 21.2722C126.637 21.2722 125.137 22.1474 125.137 24.8873V32.8976H121.795V20.6633Z" fill="white"/>
<path d="M134.461 11.5684H131.099V32.8975H134.461V11.5684Z" fill="white"/>
<path d="M148.436 11.5684V30.386C148.436 31.4325 148.455 32.3457 148.55 32.8975H145.417C145.36 32.4789 145.303 31.6227 145.303 30.6333H145.227C144.696 31.8891 143.689 33.1258 141.524 33.1258C138.068 33.1258 136.625 29.663 136.625 25.5912C136.625 20.8154 138.429 18.0185 141.429 18.0185C143.423 18.0185 144.544 19.2172 145.018 20.3588H145.075V11.5684H148.436ZM142.436 30.5192C144.411 30.5192 145.075 28.274 145.075 25.5151C145.075 22.661 144.316 20.5871 142.474 20.5871C140.613 20.5871 139.967 22.4898 139.967 25.4199C139.967 28.8258 140.48 30.5192 142.436 30.5192Z" fill="white"/>
<path d="M159.469 13.0334H162.925V21.1199H168.527V13.0334H171.983V32.8785H168.527V24.1261H162.925V32.8785H159.469V13.0334Z" fill="white"/>
<path d="M184.819 32.1746C184.117 32.479 182.654 33.1069 180.661 33.1069C176.179 33.1069 174.223 29.7201 174.223 25.7815C174.223 21.4053 176.407 18.0186 179.958 18.0186C182.958 18.0186 185.522 19.8642 185.522 25.8386V26.5236H177.47C177.47 29.0351 178.42 30.5383 181.002 30.5383C183.053 30.5383 184.022 29.8913 184.648 29.3966L184.819 32.1746ZM182.275 24.2974C182.275 21.7098 181.458 20.3969 179.958 20.3969C178.211 20.3969 177.47 22.3567 177.47 24.2974H182.275Z" fill="white"/>
<path d="M188.522 19.1031C189.471 18.6464 190.801 18.0186 192.927 18.0186C197.257 18.0186 198.244 20.2447 198.244 23.8979V30.2909C198.244 31.3374 198.358 32.3078 198.434 32.8786H195.415C195.244 32.3078 195.225 31.6038 195.225 30.8807H195.168C194.333 32.0794 193.269 33.1069 191.275 33.1069C189.111 33.1069 187.117 31.5467 187.117 28.8068C187.117 24.8302 190.193 23.8218 194.447 23.8218H195.13V23.289C195.13 21.843 194.447 20.5111 192.529 20.5111C190.858 20.5111 189.376 21.3673 188.712 21.9381L188.522 19.1031ZM195.111 25.7245H194.807C191.94 25.7245 190.25 26.3523 190.25 28.4834C190.25 29.8152 191.085 30.7285 192.377 30.7285C194.371 30.7285 195.111 29.1683 195.111 26.5426V25.7245Z" fill="white"/>
<path d="M204.91 11.5684H201.548V32.8975H204.91V11.5684Z" fill="white"/>
<path d="M209.087 15.2405L212.429 14.156V18.2468H215.22V20.8345H212.429V28.4262C212.429 29.9864 212.961 30.443 213.948 30.443C214.537 30.443 214.974 30.2718 215.22 30.1386V32.6502C214.708 32.8975 213.986 33.1258 212.98 33.1258C210.492 33.1258 209.087 31.9271 209.087 28.8638V20.8535H206.865V18.2468H209.087V15.2405Z" fill="white"/>
<path d="M216.948 11.5684H220.29V20.1305H220.366C220.955 19.2172 221.753 18.0185 223.822 18.0185C226.975 18.0185 227.924 20.492 227.924 23.4411V32.8785H224.563V24.0881C224.563 21.8429 224.031 20.9106 222.645 20.9106C220.879 20.9106 220.271 22.4708 220.271 24.3544V32.8785H216.929V11.5684H216.948Z" fill="white"/>
<path d="M93.4824 38.168C97.3942 38.168 101.002 41.2313 101.002 48.3854C101.002 55.5205 97.4131 58.5838 93.4824 58.5838C89.5707 58.5838 85.9628 55.5205 85.9628 48.3854C85.9628 41.2313 89.5517 38.168 93.4824 38.168ZM93.4824 55.8059C95.6662 55.8059 97.4321 53.8461 97.4321 48.3854C97.4321 42.9247 95.6852 40.9649 93.4824 40.9649C91.2987 40.9649 89.5327 42.9247 89.5327 48.3854C89.5327 53.8271 91.2797 55.8059 93.4824 55.8059Z" fill="white"/>
<path d="M103.243 46.0642C103.243 45.1509 103.205 44.2947 103.129 43.6477H106.148C106.167 44.523 106.262 45.4363 106.262 46.3115H106.338C106.737 45.1699 107.8 43.4004 109.87 43.4004C110.079 43.4004 110.25 43.4575 110.44 43.4955V46.7872C110.136 46.7111 109.851 46.654 109.49 46.654C108.104 46.654 106.604 47.5292 106.604 50.2691V58.2794H103.262V46.0642H103.243Z" fill="white"/>
<path d="M112.509 60.5817C113.288 61.0384 114.864 61.8375 116.611 61.8375C119.782 61.8375 120.276 59.5352 120.276 57.233V55.844H120.219C119.668 56.9856 118.738 58.3175 116.535 58.3175C114.598 58.3175 111.674 56.9476 111.674 51.0302C111.674 46.9965 113.06 43.4385 116.706 43.4385C118.738 43.4385 119.687 44.6562 120.39 45.931H120.504C120.504 45.1699 120.58 44.4279 120.618 43.6478H123.637C123.58 44.4089 123.523 45.189 123.523 45.95V56.7573C123.523 61.3428 122.194 64.5964 117.086 64.5964C114.864 64.5964 113.117 64.0066 112.3 63.6831L112.509 60.5817ZM117.731 55.7108C119.839 55.7108 120.675 54.1126 120.675 50.8019C120.675 47.7386 119.573 46.0832 117.978 46.1022C116.212 46.1213 115.548 47.8337 115.548 50.8209C115.529 54.2648 116.592 55.7108 117.731 55.7108Z" fill="white"/>
<path d="M127.169 44.504C128.118 44.0473 129.448 43.4194 131.574 43.4194C135.904 43.4194 136.891 45.6456 136.891 49.2987V55.6918C136.891 56.7383 137.005 57.7086 137.081 58.2794H134.062C133.91 57.7086 133.872 57.0046 133.872 56.2816H133.815C132.979 57.4803 131.916 58.5078 129.922 58.5078C127.757 58.5078 125.764 56.9476 125.764 54.2077C125.764 50.2311 128.84 49.2226 133.093 49.2226H133.777V48.6899C133.777 47.2438 133.093 45.912 131.176 45.912C129.504 45.912 128.023 46.7682 127.359 47.339L127.169 44.504ZM133.758 51.1444H133.454C130.587 51.1444 128.878 51.7722 128.878 53.9033C128.878 55.2351 129.713 56.1484 131.005 56.1484C132.998 56.1484 133.739 54.5882 133.739 51.9625V51.1444H133.758Z" fill="white"/>
<path d="M140.271 46.0642C140.271 45.1509 140.233 44.2947 140.157 43.6478H143.29C143.309 44.3898 143.404 45.1509 143.404 45.8929H143.48H143.461C143.955 45.0177 144.885 43.4194 147.164 43.4194C150.316 43.4194 151.266 45.8929 151.266 48.8611V58.2985H147.924V49.508C147.924 47.2629 147.373 46.3306 146.006 46.3306C144.24 46.3306 143.632 47.8908 143.632 49.7744V58.2985H140.29V46.0642H140.271Z" fill="white"/>
<path d="M154.285 37.426H157.741V40.8889H154.285V37.426ZM154.342 43.6669H157.703V58.3176H154.342V43.6669Z" fill="white"/>
<path d="M160.817 55.2541L166.761 46.3305H161.007V43.6667H170.103V46.673L164.273 55.6347H170.293V58.2984H160.817V55.2541Z" fill="white"/>
<path d="M173.464 44.504C174.413 44.0473 175.742 43.4194 177.869 43.4194C182.199 43.4194 183.186 45.6456 183.186 49.2987V55.6918C183.186 56.7383 183.3 57.7086 183.376 58.2794H180.357C180.186 57.7086 180.167 57.0046 180.167 56.2816H180.11C179.274 57.4803 178.211 58.5078 176.217 58.5078C174.052 58.5078 172.059 56.9476 172.059 54.2077C172.059 50.2311 175.135 49.2226 179.388 49.2226H180.072V48.6899C180.072 47.2438 179.388 45.912 177.47 45.912C175.799 45.912 174.318 46.7682 173.654 47.339L173.464 44.504ZM180.072 51.1444H179.768C176.901 51.1444 175.192 51.7722 175.192 53.9033C175.192 55.2351 176.027 56.1484 177.319 56.1484C179.312 56.1484 180.053 54.5882 180.053 51.9625V51.1444H180.072Z" fill="white"/>
<path d="M187.06 40.6414L190.402 39.5569V43.6477H193.193V46.2353H190.402V53.8271C190.402 55.3873 190.934 55.8439 191.921 55.8439C192.51 55.8439 192.946 55.6727 193.193 55.5395V58.051C192.681 58.2984 191.959 58.5267 190.953 58.5267C188.465 58.5267 187.06 57.328 187.06 54.2647V46.2544H184.838V43.6667H187.06V40.6414Z" fill="white"/>
<path d="M195.491 37.426H198.947V40.8889H195.491V37.426ZM195.909 43.6669H199.27V58.3176H195.909V43.6669Z" fill="white"/>
<path d="M207.967 43.4385C210.796 43.4385 214.081 44.9987 214.081 50.9731C214.081 57.1188 210.815 58.5268 207.967 58.5268C205.118 58.5268 201.833 57.0998 201.833 50.9731C201.833 44.9987 205.137 43.4385 207.967 43.4385ZM207.967 56.0343C210.131 56.0343 210.606 53.4086 210.606 50.9731C210.606 48.5187 210.112 45.931 207.967 45.931C205.802 45.931 205.289 48.5187 205.289 50.9731C205.289 53.4086 205.802 56.0343 207.967 56.0343Z" fill="white"/>
<path d="M217.005 46.0642C217.005 45.1509 216.967 44.2947 216.891 43.6478H220.025C220.044 44.3898 220.139 45.1509 220.139 45.8929H220.215H220.196C220.689 45.0177 221.62 43.4194 223.898 43.4194C227.07 43.4194 228 45.8929 228 48.8611V58.2985H224.658V49.508C224.658 47.2629 224.107 46.3306 222.74 46.3306C220.993 46.3306 220.366 47.8908 220.366 49.7744V58.2985H217.024V46.0642H217.005Z" fill="white"/>
</g>
<defs>
<clipPath id="clip0_2718_13256">
<rect width="228" height="70" fill="white"/>
</clipPath>
</defs>
</svg>
