<svg width="1113" height="512" viewBox="0 0 1113 512" fill="none" xmlns="http://www.w3.org/2000/svg">
<path d="M990.045 299.797L837.16 334.712L860.711 437.692L1013.6 402.777L990.045 299.797Z" fill="#E6E7E8"/>
<path d="M990.789 300.93C990.823 300.965 990.445 301.549 989.671 302.631C988.812 303.817 987.677 305.38 986.267 307.339C983.172 311.514 978.84 317.338 973.527 324.486C962.575 338.987 947.582 358.848 930.956 380.841L930.612 381.304L930.079 381.047C929.684 380.858 929.237 380.652 928.807 380.428C903.704 368.247 880.992 357.233 864.383 349.175C856.268 345.172 849.665 341.891 844.937 339.554C842.754 338.437 841 337.544 839.676 336.874C838.49 336.238 837.871 335.894 837.888 335.86C837.905 335.808 838.576 336.083 839.796 336.616C841.155 337.234 842.943 338.042 845.161 339.056C849.94 341.289 856.611 344.433 864.813 348.265C881.473 356.22 904.237 367.113 929.408 379.14C929.838 379.346 930.285 379.552 930.681 379.758L929.804 379.964C946.55 358.075 961.663 338.3 972.702 323.867C978.169 316.84 982.622 311.102 985.803 306.995C987.299 305.105 988.502 303.593 989.414 302.459C990.29 301.429 990.755 300.896 990.789 300.93Z" fill="#79B5E3"/>
<path d="M861.46 438.81C861.116 438.638 869.386 421.887 879.926 401.424C890.483 380.944 899.303 364.501 899.664 364.69C900.008 364.862 891.738 381.614 881.198 402.077C870.641 422.54 861.804 438.999 861.46 438.81Z" fill="#79B5E3"/>
<path d="M950.178 351.787C950.419 351.478 964.999 362.903 982.708 377.284C1000.43 391.682 1014.58 403.589 1014.34 403.898C1014.1 404.207 999.54 392.782 981.814 378.401C964.088 364.02 949.937 352.096 950.178 351.787Z" fill="#79B5E3"/>
<path d="M308.982 19.846L294.959 80.5338L385.058 101.324L399.081 40.6363L308.982 19.846Z" fill="#E6E7E8"/>
<path d="M399.197 41.4584C399.214 41.4756 398.853 41.6989 398.166 42.0769C397.409 42.4893 396.395 43.0219 395.157 43.692C392.44 45.1008 388.64 47.0767 383.981 49.5164C374.439 54.3959 361.372 61.0794 346.895 68.4674L346.585 68.622L346.379 68.3471C346.224 68.141 346.035 67.9176 345.863 67.6942C335.685 54.7739 326.469 43.0906 319.729 34.5515C316.462 30.3421 313.797 26.9059 311.889 24.4489C311.012 23.2978 310.324 22.37 309.791 21.6827C309.327 21.047 309.086 20.7034 309.104 20.6862C309.121 20.669 309.413 20.9783 309.929 21.5797C310.496 22.2497 311.236 23.1432 312.147 24.2599C314.107 26.6825 316.841 30.05 320.193 34.1907C326.985 42.6955 336.252 54.3272 346.516 67.1788C346.688 67.4022 346.877 67.6255 347.032 67.8317L346.516 67.7114C361.028 60.4094 374.146 53.7946 383.723 48.9838C388.434 46.6643 392.268 44.7572 395.019 43.3999C396.309 42.7814 397.323 42.3003 398.114 41.9223C398.819 41.5787 399.197 41.424 399.197 41.4584Z" fill="#79B5E3"/>
<path d="M295.091 81.3362C294.953 81.1472 303.653 74.395 314.52 66.2511C325.386 58.1071 334.309 51.647 334.447 51.836C334.584 52.0249 325.884 58.7772 315.018 66.9211C304.152 75.0822 295.229 81.5252 295.091 81.3362Z" fill="#79B5E3"/>
<path d="M364.57 57.9869C364.776 57.8838 369.573 67.6943 375.264 79.8759C380.955 92.0746 385.408 102.023 385.202 102.126C384.995 102.229 380.198 92.4182 374.507 80.2367C368.799 68.0551 364.346 58.09 364.57 57.9869Z" fill="#79B5E3"/>
<path d="M880.103 35.0305L814.276 63.296L833.343 107.639L899.171 79.3739L880.103 35.0305Z" fill="#E6E7E8"/>
<path d="M880.51 35.4449C880.528 35.4621 880.407 35.7542 880.149 36.304C879.857 36.9054 879.479 37.6957 879.015 38.6922C877.966 40.8227 876.504 43.7951 874.699 47.4375C870.968 54.8598 865.862 65.014 860.222 76.2677L860.102 76.5082L859.844 76.4395C859.655 76.388 859.431 76.3192 859.225 76.2677C846.949 72.8658 835.825 69.7732 827.692 67.5224C823.72 66.3885 820.471 65.4607 818.167 64.8078C817.101 64.4813 816.241 64.2236 815.588 64.0346C815.003 63.8456 814.694 63.7425 814.694 63.7254C814.694 63.7082 815.021 63.7769 815.622 63.9144C816.276 64.0862 817.153 64.2923 818.236 64.5672C820.574 65.1858 823.824 66.0448 827.83 67.0929C835.962 69.2921 847.103 72.316 859.397 75.6492C859.603 75.7007 859.827 75.7695 860.016 75.821L859.638 75.9928C865.363 64.7734 870.521 54.6536 874.286 47.2485C876.16 43.6404 877.691 40.7024 878.791 38.5891C879.307 37.6098 879.719 36.8366 880.046 36.2525C880.338 35.7198 880.493 35.4449 880.51 35.4449Z" fill="#79B5E3"/>
<path d="M833.761 108.053C833.589 108.002 835.928 99.7889 838.971 89.7378C842.031 79.6696 844.645 71.56 844.817 71.6116C844.989 71.6631 842.65 79.8586 839.59 89.9268C836.547 99.9951 833.933 108.105 833.761 108.053Z" fill="#79B5E3"/>
<path d="M866.463 61.6465C866.549 61.4919 874.028 65.4264 883.175 70.4261C892.322 75.4431 899.664 79.6181 899.578 79.7728C899.492 79.9274 892.013 75.9929 882.866 70.9931C873.719 65.9934 866.377 61.8011 866.463 61.6465Z" fill="#79B5E3"/>
<path d="M444.21 373.985L688.047 371.717L695.199 537.362L442.697 535.558L444.21 373.985Z" fill="#79B5E3"/>
<path d="M444.21 373.985L559.423 280.433C564.306 276.464 571.286 276.481 576.169 280.45L688.064 371.717" fill="#79B5E3"/>
<g opacity="0.3">
<path d="M444.21 373.985L559.423 280.433C564.306 276.464 571.286 276.481 576.169 280.45L688.064 371.717" fill="#00205C"/>
</g>
<path d="M442.697 535.558C442.387 535.266 461.867 513.927 486.196 487.897C510.525 461.85 530.504 440.975 530.796 441.267C531.105 441.559 511.625 462.881 487.296 488.928C462.968 514.958 442.989 535.833 442.697 535.558Z" fill="#00205C"/>
<path d="M695.199 537.362C694.89 537.637 675.84 516.813 652.646 490.835C629.452 464.857 610.9 443.587 611.209 443.312C611.519 443.037 630.569 463.861 653.763 489.839C676.957 515.817 695.509 537.087 695.199 537.362Z" fill="#00205C"/>
<g opacity="0.5">
<path d="M688.047 371.717L565.802 469.719L444.21 373.985" fill="#00205C"/>
</g>
<path d="M456.503 383.005L455.97 306.909L669.478 303.937L672.057 384.019L565.784 468.431L456.503 383.005Z" fill="white"/>
<path d="M456.503 383.005C456.503 383.005 457.208 383.521 458.532 384.517C459.856 385.548 461.816 387.043 464.36 389.002C469.467 392.953 476.929 398.743 486.454 406.149C505.521 420.993 532.842 442.281 566.025 468.121H565.578C596.182 443.776 632.495 414.894 671.799 383.641L671.627 384.002C671.129 368.728 670.613 352.698 670.097 336.392C669.753 325.414 669.392 314.572 669.048 303.937L669.495 304.367C583.459 305.501 507.567 306.497 455.97 307.167L456.245 306.875C456.348 330.809 456.434 349.811 456.503 362.852C456.52 369.363 456.52 374.38 456.537 377.799C456.537 379.483 456.537 380.772 456.52 381.665C456.52 382.559 456.503 383.005 456.503 383.005C456.503 383.005 456.469 382.576 456.451 381.717C456.434 380.84 456.417 379.552 456.383 377.885C456.348 374.483 456.279 369.466 456.211 362.972C456.09 349.897 455.901 330.86 455.678 306.892V306.6H455.97C507.55 305.844 583.442 304.727 669.478 303.473H669.908L669.925 303.903C670.269 314.538 670.613 325.379 670.974 336.358C671.49 352.663 672.005 368.693 672.504 383.967V384.191L672.332 384.328C633.011 415.53 596.664 444.377 566.025 468.688L565.802 468.877L565.578 468.706C532.446 442.728 505.143 421.302 486.11 406.372C476.636 398.915 469.226 393.074 464.171 389.088C461.678 387.112 459.752 385.583 458.446 384.552C457.139 383.555 456.503 383.005 456.503 383.005Z" fill="#00205C"/>
<path d="M635.813 342.337C635.813 342.578 603.163 343.059 562.896 343.385C522.612 343.712 489.961 343.78 489.961 343.54C489.961 343.299 522.612 342.818 562.896 342.492C603.163 342.148 635.813 342.08 635.813 342.337Z" fill="#00205C"/>
<path d="M635.865 363.831C635.865 364.072 603.215 364.553 562.948 364.879C522.663 365.206 490.013 365.274 490.013 365.034C490.013 364.793 522.663 364.312 562.948 363.986C603.197 363.642 635.865 363.573 635.865 363.831Z" fill="#00205C"/>
<path d="M635.916 388.606C635.916 388.847 603.266 389.328 562.999 389.655C522.715 389.981 490.065 390.05 490.065 389.809C490.065 389.569 522.715 389.088 562.999 388.761C603.249 388.417 635.916 388.366 635.916 388.606Z" fill="#00205C"/>
<path d="M635.968 413.382C635.968 413.622 604.814 414.086 566.403 414.396C527.976 414.705 496.822 414.756 496.822 414.516C496.822 414.275 527.959 413.811 566.403 413.502C604.814 413.193 635.968 413.141 635.968 413.382Z" fill="#00205C"/>
<path d="M608.699 435.185C608.699 435.219 608.407 435.254 607.84 435.288C607.169 435.322 606.361 435.357 605.381 435.391C603.111 435.443 600.068 435.529 596.354 435.614C588.617 435.752 578.147 435.941 566.593 436.147C554.97 436.37 544.43 436.439 536.814 436.422C533.1 436.405 530.056 436.37 527.787 436.37C526.807 436.353 525.999 436.319 525.328 436.302C524.761 436.285 524.469 436.25 524.469 436.216C524.469 436.181 524.761 436.147 525.328 436.113C525.999 436.078 526.807 436.044 527.787 436.01C530.056 435.958 533.1 435.872 536.814 435.786C544.551 435.649 555.021 435.46 566.575 435.254C578.198 435.03 588.72 434.962 596.337 434.979C600.051 434.996 603.094 435.03 605.364 435.03C606.344 435.047 607.152 435.082 607.822 435.099C608.407 435.133 608.699 435.151 608.699 435.185Z" fill="#00205C"/>
<path d="M581.258 456.146C581.258 456.387 574.295 456.61 565.716 456.627C557.119 456.644 550.173 456.455 550.173 456.215C550.173 455.974 557.136 455.751 565.716 455.734C574.295 455.717 581.258 455.906 581.258 456.146Z" fill="#00205C"/>
<path d="M610.023 303.267C610.264 303.301 610.367 304.264 610.264 305.449C610.144 306.635 609.851 307.562 609.611 307.545C609.37 307.528 609.267 306.549 609.37 305.363C609.49 304.178 609.783 303.25 610.023 303.267Z" fill="#00205C"/>
<path d="M612.31 286.532C612.551 286.567 612.465 288.474 612.121 290.776C611.777 293.079 611.278 294.917 611.038 294.883C610.797 294.848 610.883 292.958 611.227 290.639C611.588 288.336 612.069 286.498 612.31 286.532Z" fill="#00205C"/>
<path d="M615.697 269.987C615.938 270.038 615.731 271.928 615.216 274.213C614.717 276.481 614.098 278.285 613.857 278.234C613.617 278.182 613.823 276.292 614.339 274.007C614.855 271.722 615.456 269.935 615.697 269.987Z" fill="#00205C"/>
<path d="M620.271 253.733C620.511 253.802 620.15 255.675 619.48 257.908C618.809 260.142 618.07 261.894 617.829 261.826C617.588 261.757 617.949 259.884 618.62 257.651C619.308 255.4 620.047 253.647 620.271 253.733Z" fill="#00205C"/>
<path d="M626.168 237.909C626.391 238.012 625.875 239.834 625.016 241.999C624.156 244.163 623.262 245.847 623.039 245.761C622.815 245.675 623.314 243.837 624.191 241.672C625.067 239.49 625.944 237.806 626.168 237.909Z" fill="#00205C"/>
<path d="M633.492 222.704C633.716 222.824 633.028 224.594 631.962 226.656C630.896 228.717 629.864 230.315 629.641 230.212C629.417 230.109 630.105 228.339 631.171 226.26C632.237 224.164 633.286 222.584 633.492 222.704Z" fill="#00205C"/>
<path d="M642.33 208.306C642.536 208.443 641.642 210.127 640.352 212.051C639.115 214.027 637.928 215.505 637.722 215.385C637.516 215.264 638.358 213.546 639.613 211.57C640.903 209.629 642.141 208.169 642.33 208.306Z" fill="#00205C"/>
<path d="M652.749 195.008C652.938 195.179 651.872 196.76 650.393 198.547C648.915 200.334 647.539 201.657 647.35 201.502C647.161 201.348 648.21 199.767 649.706 197.963C651.201 196.159 652.56 194.836 652.749 195.008Z" fill="#00205C"/>
<path d="M664.664 183.032C664.836 183.221 663.598 184.665 661.896 186.262C660.211 187.86 658.698 189.011 658.526 188.84C658.354 188.668 659.592 187.225 661.294 185.609C662.979 183.994 664.492 182.843 664.664 183.032Z" fill="#00205C"/>
<path d="M677.972 172.62C678.109 172.827 676.699 174.098 674.825 175.473C672.951 176.847 671.301 177.809 671.146 177.603C670.991 177.414 672.401 176.125 674.292 174.751C676.184 173.376 677.834 172.414 677.972 172.62Z" fill="#00205C"/>
<path d="M692.535 164.064C692.638 164.288 691.073 165.37 689.027 166.47C686.981 167.569 685.227 168.308 685.09 168.085C684.969 167.878 686.534 166.796 688.597 165.679C690.66 164.58 692.431 163.841 692.535 164.064Z" fill="#00205C"/>
<path d="M708.181 157.707C708.249 157.948 706.547 158.772 704.364 159.563C702.18 160.353 700.34 160.817 700.237 160.576C700.134 160.353 701.853 159.511 704.054 158.721C706.272 157.93 708.112 157.484 708.181 157.707Z" fill="#00205C"/>
<path d="M724.635 153.893C724.669 154.133 722.846 154.632 720.56 155.027C718.29 155.508 716.399 155.697 716.347 155.456C716.296 155.216 718.101 154.632 720.405 154.151C722.692 153.738 724.6 153.635 724.635 153.893Z" fill="#00205C"/>
<path d="M741.501 152.948C741.484 153.188 739.61 153.412 737.289 153.446C734.968 153.48 733.077 153.291 733.059 153.051C733.042 152.81 734.934 152.587 737.272 152.553C739.61 152.536 741.501 152.707 741.501 152.948Z" fill="#00205C"/>
<path d="M758.265 154.924C758.213 155.164 756.305 155.061 754.018 154.7C751.732 154.322 749.892 153.824 749.909 153.584C749.943 153.343 751.835 153.446 754.156 153.807C756.477 154.185 758.317 154.683 758.265 154.924Z" fill="#00205C"/>
<path d="M774.444 159.752C774.358 159.975 772.501 159.545 770.3 158.79C768.1 158.034 766.38 157.226 766.449 156.985C766.518 156.745 768.375 157.174 770.593 157.948C772.828 158.721 774.547 159.528 774.444 159.752Z" fill="#00205C"/>
<path d="M789.488 167.415C789.351 167.621 787.614 166.865 785.603 165.714C783.591 164.562 782.044 163.446 782.147 163.24C782.25 163.016 784.004 163.789 786.032 164.94C788.078 166.109 789.626 167.208 789.488 167.415Z" fill="#00205C"/>
<path d="M802.744 177.878C802.573 178.05 801.008 176.95 799.271 175.438C797.535 173.909 796.245 172.517 796.383 172.311C796.538 172.122 798.085 173.205 799.856 174.768C801.627 176.297 802.916 177.706 802.744 177.878Z" fill="#00205C"/>
<path d="M811.083 187.499C810.877 187.637 810.138 187.001 809.415 186.073C808.693 185.146 808.264 184.252 808.453 184.098C808.642 183.943 809.398 184.579 810.12 185.524C810.86 186.469 811.29 187.345 811.083 187.499Z" fill="#00205C"/>
<path d="M890.603 291.017C890.5 291.24 888.677 290.622 886.511 289.608C884.344 288.611 882.694 287.615 882.797 287.392C882.9 287.168 884.74 287.804 886.889 288.8C889.038 289.797 890.689 290.776 890.603 291.017Z" fill="#00205C"/>
<path d="M906.833 296.652C906.782 296.893 904.873 296.515 902.587 295.828C900.3 295.123 898.529 294.384 898.615 294.144C898.701 293.903 900.592 294.281 902.862 294.968C905.114 295.656 906.885 296.412 906.833 296.652Z" fill="#00205C"/>
<path d="M923.786 299.35C923.769 299.59 921.844 299.59 919.471 299.333C917.098 299.075 915.207 298.662 915.241 298.422C915.276 298.181 917.218 298.181 919.557 298.439C921.912 298.697 923.803 299.109 923.786 299.35Z" fill="#00205C"/>
<path d="M940.945 298.817C940.98 299.058 939.071 299.401 936.699 299.59C934.326 299.762 932.383 299.711 932.383 299.47C932.383 299.229 934.274 298.886 936.63 298.697C938.985 298.525 940.928 298.577 940.945 298.817Z" fill="#00205C"/>
<path d="M957.829 295.656C957.898 295.896 956.075 296.549 953.754 297.116C951.416 297.614 949.49 297.769 949.439 297.528C949.387 297.271 951.244 296.738 953.548 296.24C955.852 295.69 957.761 295.432 957.829 295.656Z" fill="#00205C"/>
<path d="M973.802 289.333C973.922 289.556 972.255 290.536 970.088 291.532C967.922 292.529 966.082 293.147 965.996 292.924C965.91 292.701 967.578 291.704 969.71 290.725C971.842 289.745 973.682 289.11 973.802 289.333Z" fill="#00205C"/>
<path d="M988.038 279.763C988.193 279.952 986.852 281.361 984.943 282.804C983.035 284.247 981.298 285.141 981.178 284.935C981.04 284.728 982.536 283.509 984.41 282.082C986.302 280.674 987.883 279.574 988.038 279.763Z" fill="#00205C"/>
<path d="M999.73 267.221C999.936 267.358 998.973 269.059 997.443 270.897C995.913 272.736 994.434 274.007 994.262 273.835C994.073 273.664 995.259 272.134 996.755 270.33C998.251 268.509 999.523 267.066 999.73 267.221Z" fill="#00205C"/>
<path d="M1007.79 252.101C1008.02 252.187 1007.57 254.077 1006.59 256.259C1005.61 258.441 1004.51 260.056 1004.29 259.936C1004.06 259.815 1004.82 258.046 1005.76 255.898C1006.73 253.75 1007.55 252.015 1007.79 252.101Z" fill="#00205C"/>
<path d="M1010.96 235.298C1011.2 235.298 1011.4 237.239 1011.15 239.628C1010.91 242.016 1010.3 243.889 1010.08 243.837C1009.84 243.785 1010.03 241.878 1010.25 239.542C1010.51 237.205 1010.72 235.298 1010.96 235.298Z" fill="#00205C"/>
<path d="M1008.48 218.357C1008.7 218.288 1009.5 220.075 1010.03 222.412C1010.56 224.748 1010.63 226.707 1010.39 226.724C1010.15 226.759 1009.68 224.886 1009.15 222.601C1008.64 220.316 1008.24 218.426 1008.48 218.357Z" fill="#00205C"/>
<path d="M1001 202.945C1001.19 202.808 1002.5 204.268 1003.7 206.347C1004.9 208.426 1005.56 210.265 1005.33 210.368C1005.11 210.471 1004.11 208.839 1002.93 206.794C1001.74 204.767 1000.81 203.1 1001 202.945Z" fill="#00205C"/>
<path d="M989.087 190.695C989.224 190.489 990.944 191.451 992.749 193.015C994.572 194.578 995.758 196.142 995.569 196.313C995.38 196.485 993.935 195.231 992.165 193.702C990.394 192.156 988.932 190.901 989.087 190.695Z" fill="#00205C"/>
<path d="M973.493 183.72C973.544 183.479 975.504 183.668 977.791 184.424C980.078 185.18 981.763 186.194 981.659 186.4C981.556 186.623 979.751 186.005 977.516 185.266C975.281 184.527 973.441 183.96 973.493 183.72Z" fill="#00205C"/>
<path d="M956.437 183.995C956.368 183.754 958.207 183.05 960.597 182.757C962.987 182.448 964.947 182.637 964.947 182.878C964.947 183.135 963.039 183.324 960.718 183.634C958.397 183.943 956.505 184.252 956.437 183.995Z" fill="#00205C"/>
<path d="M941.616 192.293C941.444 192.138 942.613 190.541 944.556 189.08C946.482 187.62 948.321 186.898 948.442 187.104C948.562 187.328 946.963 188.376 945.106 189.785C943.232 191.193 941.805 192.465 941.616 192.293Z" fill="#00205C"/>
<path d="M934.824 207.705C934.584 207.687 934.498 205.712 935.065 203.358C935.632 201.004 936.647 199.286 936.87 199.389C937.111 199.492 936.475 201.296 935.942 203.564C935.375 205.832 935.082 207.722 934.824 207.705Z" fill="#00205C"/>
<path d="M938.177 224.371C937.971 224.491 936.87 222.841 936.08 220.556C935.289 218.271 935.134 216.312 935.357 216.261C935.615 216.209 936.148 218.048 936.922 220.264C937.696 222.481 938.401 224.25 938.177 224.371Z" fill="#00205C"/>
<path d="M949.404 237.153C949.267 237.36 947.53 236.432 945.742 234.834C943.937 233.236 942.802 231.621 942.991 231.466C943.18 231.295 944.573 232.617 946.344 234.164C948.081 235.71 949.559 236.93 949.404 237.153Z" fill="#00205C"/>
<path d="M965.016 244.129C964.965 244.37 963.022 244.112 960.752 243.339C958.483 242.566 956.798 241.569 956.901 241.346C957.004 241.122 958.826 241.724 961.044 242.48C963.262 243.253 965.068 243.888 965.016 244.129Z" fill="#00205C"/>
<path d="M982.072 245.761C982.089 246.002 980.164 246.328 977.774 246.259C975.384 246.208 973.458 245.813 973.493 245.572C973.51 245.314 975.435 245.315 977.791 245.366C980.146 245.418 982.055 245.503 982.072 245.761Z" fill="#00205C"/>
<path d="M998.921 242.634C999.007 242.858 997.219 243.665 994.898 244.266C992.577 244.868 990.634 245.005 990.6 244.765C990.548 244.524 992.405 243.992 994.692 243.407C996.979 242.823 998.853 242.394 998.921 242.634Z" fill="#00205C"/>
<path d="M1014.52 235.504C1014.65 235.71 1013.04 236.793 1010.92 237.909C1008.81 239.026 1007.02 239.748 1006.92 239.524C1006.81 239.301 1008.43 238.219 1010.51 237.119C1012.59 236.002 1014.4 235.281 1014.52 235.504Z" fill="#00205C"/>
<path d="M1028.31 225.264C1028.48 225.453 1027.12 226.827 1025.26 228.339C1023.42 229.851 1021.81 230.917 1021.65 230.71C1021.51 230.504 1022.87 229.13 1024.69 227.635C1026.52 226.14 1028.13 225.075 1028.31 225.264Z" fill="#00205C"/>
<path d="M1040.01 212.704C1040.2 212.859 1039.12 214.44 1037.56 216.261C1036.01 218.082 1034.6 219.405 1034.43 219.233C1034.25 219.061 1035.34 217.464 1036.88 215.677C1038.41 213.89 1039.82 212.55 1040.01 212.704Z" fill="#00205C"/>
<path d="M1049.47 198.375C1049.69 198.495 1048.87 200.248 1047.65 202.293C1046.41 204.337 1045.26 205.883 1045.05 205.746C1044.85 205.609 1045.67 203.856 1046.87 201.829C1048.08 199.801 1049.25 198.255 1049.47 198.375Z" fill="#00205C"/>
<path d="M1056.43 182.672C1056.67 182.757 1056.16 184.613 1055.28 186.829C1054.42 189.063 1053.49 190.764 1053.25 190.644C1053.05 190.558 1053.6 188.702 1054.44 186.503C1055.32 184.304 1056.21 182.586 1056.43 182.672Z" fill="#00205C"/>
<path d="M1061.25 166.195C1061.49 166.246 1061.2 168.153 1060.59 170.473C1059.99 172.775 1059.32 174.596 1059.08 174.51C1058.84 174.442 1059.13 172.535 1059.73 170.232C1060.32 167.947 1061.01 166.126 1061.25 166.195Z" fill="#00205C"/>
<path d="M1064.26 149.271C1064.5 149.305 1064.41 151.23 1064.05 153.584C1063.69 155.937 1063.21 157.81 1062.95 157.759C1062.71 157.707 1062.8 155.783 1063.16 153.446C1063.52 151.11 1064.02 149.254 1064.26 149.271Z" fill="#00205C"/>
<path d="M1065.84 132.176C1066.08 132.193 1066.15 134.117 1065.96 136.488C1065.79 138.859 1065.44 140.766 1065.19 140.732C1064.94 140.715 1064.88 138.773 1065.06 136.419C1065.25 134.066 1065.6 132.158 1065.84 132.176Z" fill="#00205C"/>
<path d="M1066.39 115.012C1066.63 115.012 1066.8 116.936 1066.75 119.307C1066.7 121.678 1066.47 123.602 1066.22 123.585C1065.98 123.585 1065.8 121.644 1065.86 119.29C1065.89 116.919 1066.13 115.012 1066.39 115.012Z" fill="#00205C"/>
<path d="M1066.25 97.8303C1066.49 97.8303 1066.73 99.7374 1066.77 102.126C1066.8 104.497 1066.63 106.421 1066.39 106.421C1066.15 106.421 1065.91 104.497 1065.87 102.126C1065.84 99.7546 1066.01 97.8303 1066.25 97.8303Z" fill="#00205C"/>
<path d="M1066.01 87.2638C1066.25 87.2638 1066.47 87.6933 1066.49 88.2431C1066.51 88.7929 1066.32 89.2396 1066.08 89.2396C1065.84 89.2396 1065.61 88.8101 1065.6 88.2603C1065.56 87.7105 1065.75 87.2638 1066.01 87.2638Z" fill="#00205C"/>
<path d="M1103.72 36.258L986.85 48.9446L995.408 127.674L1112.28 114.987L1103.72 36.258Z" fill="#79B5E3"/>
<path d="M995.328 127.743V127.709L986.766 48.9496H986.8L1103.72 36.2698V36.3041L1112.28 115.063H1112.24L995.328 127.743ZM986.852 49.0183L995.397 127.657L1112.17 114.977L1103.63 36.3385L986.852 49.0183Z" fill="#00205C"/>
<path d="M1104.15 37.1975C1104.18 37.2147 1103.84 37.627 1103.17 38.3658C1102.43 39.1734 1101.45 40.2386 1100.23 41.5616C1097.56 44.3965 1093.83 48.3482 1089.24 53.2105C1079.82 63.0554 1066.92 76.5427 1052.63 91.4732L1052.32 91.7825L1051.95 91.5419C1051.67 91.3701 1051.36 91.164 1051.05 90.975C1033.43 79.7212 1017.47 69.5327 1005.82 62.0932C1000.13 58.3992 995.5 55.3925 992.182 53.2448C990.651 52.2311 989.431 51.4064 988.502 50.7879C987.66 50.2209 987.23 49.8945 987.264 49.8773C987.282 49.8429 987.746 50.1007 988.623 50.6161C989.568 51.1831 990.841 51.9562 992.405 52.9012C995.775 54.9802 1000.47 57.901 1006.23 61.4747C1017.94 68.8455 1033.94 78.9481 1051.64 90.0987C1051.95 90.2877 1052.26 90.4939 1052.53 90.6657L1051.86 90.7516C1066.23 75.907 1079.21 62.5056 1088.69 52.7122C1093.37 47.953 1097.18 44.07 1099.92 41.2867C1101.21 40.0152 1102.22 39.0015 1103.01 38.2284C1103.73 37.524 1104.13 37.1803 1104.15 37.1975Z" fill="#00205C"/>
<path d="M995.844 128.602C995.603 128.43 1003.22 116.695 1012.85 102.366C1022.49 88.0369 1030.51 76.5598 1030.75 76.7316C1030.99 76.9035 1023.37 88.6383 1013.74 102.967C1004.1 117.279 996.085 128.774 995.844 128.602Z" fill="#00205C"/>
<path d="M1069.48 71.5429C1069.69 71.3367 1079.54 81.1129 1091.47 93.3631C1103.41 105.613 1112.91 115.716 1112.71 115.922C1112.5 116.128 1102.65 106.352 1090.72 94.1019C1078.79 81.8517 1069.28 71.7491 1069.48 71.5429Z" fill="#00205C"/>
<path d="M569.997 274.952C570.238 274.918 570.599 275.828 570.805 276.997C571.011 278.165 570.96 279.144 570.719 279.196C570.478 279.23 570.117 278.32 569.911 277.151C569.705 275.983 569.739 275.004 569.997 274.952Z" fill="#00205C"/>
<path d="M567.229 258.2C567.469 258.166 567.968 260.004 568.346 262.324C568.725 264.643 568.828 266.551 568.587 266.585C568.346 266.619 567.848 264.781 567.469 262.461C567.091 260.142 566.988 258.235 567.229 258.2Z" fill="#00205C"/>
<path d="M564.787 241.397C565.028 241.363 565.492 243.218 565.819 245.538C566.146 247.857 566.214 249.764 565.956 249.799C565.716 249.833 565.251 247.978 564.925 245.658C564.598 243.339 564.547 241.414 564.787 241.397Z" fill="#00205C"/>
<path d="M562.844 224.508C563.085 224.491 563.481 226.364 563.738 228.683C563.979 231.02 563.979 232.927 563.738 232.961C563.498 232.995 563.102 231.123 562.844 228.786C562.604 226.449 562.604 224.542 562.844 224.508Z" fill="#00205C"/>
<path d="M561.675 207.567C561.916 207.55 562.225 209.44 562.363 211.777C562.5 214.113 562.397 216.02 562.157 216.038C561.916 216.055 561.606 214.165 561.469 211.828C561.331 209.492 561.417 207.584 561.675 207.567Z" fill="#00205C"/>
<path d="M561.486 190.575C561.727 190.575 561.916 192.482 561.916 194.836C561.899 197.172 561.692 199.08 561.452 199.08C561.211 199.08 561.022 197.172 561.022 194.819C561.022 192.482 561.245 190.575 561.486 190.575Z" fill="#00205C"/>
<path d="M562.552 173.634C562.793 173.669 562.844 175.576 562.638 177.895C562.449 180.232 562.088 182.105 561.847 182.087C561.606 182.07 561.555 180.163 561.761 177.826C561.95 175.49 562.311 173.617 562.552 173.634Z" fill="#00205C"/>
<path d="M565.114 156.848C565.355 156.9 565.217 158.807 564.822 161.109C564.409 163.411 563.893 165.25 563.635 165.215C563.395 165.181 563.532 163.274 563.927 160.954C564.34 158.635 564.873 156.796 565.114 156.848Z" fill="#00205C"/>
<path d="M569.447 140.423C569.687 140.509 569.326 142.381 568.656 144.615C567.985 146.849 567.246 148.618 567.022 148.549C566.782 148.481 567.126 146.608 567.813 144.357C568.484 142.124 569.206 140.354 569.447 140.423Z" fill="#00205C"/>
<path d="M575.808 124.685C576.032 124.788 575.447 126.609 574.502 128.757C573.556 130.887 572.61 132.554 572.387 132.468C572.163 132.382 572.748 130.561 573.693 128.396C574.622 126.231 575.585 124.582 575.808 124.685Z" fill="#00205C"/>
<path d="M584.095 109.857C584.302 109.995 583.494 111.73 582.29 113.723C581.087 115.716 579.935 117.245 579.711 117.125C579.488 117.005 580.313 115.269 581.516 113.259C582.737 111.249 583.889 109.737 584.095 109.857Z" fill="#00205C"/>
<path d="M594.291 96.284C594.48 96.4558 593.432 98.0536 591.97 99.8748C590.509 101.696 589.15 103.053 588.961 102.899C588.755 102.744 589.804 101.146 591.282 99.3079C592.744 97.4695 594.102 96.1121 594.291 96.284Z" fill="#00205C"/>
<path d="M606.361 84.343C606.516 84.532 605.243 85.958 603.524 87.5387C601.805 89.1194 600.257 90.2533 600.085 90.0815C599.913 89.9097 601.186 88.4837 602.922 86.8858C604.659 85.2879 606.206 84.154 606.361 84.343Z" fill="#00205C"/>
<path d="M620.253 74.584C620.374 74.8074 618.878 75.9929 616.918 77.2471C614.958 78.5013 613.238 79.3604 613.101 79.1542C612.963 78.9481 614.459 77.7626 616.436 76.4911C618.431 75.2197 620.133 74.3778 620.253 74.584Z" fill="#00205C"/>
<path d="M635.744 67.6256C635.813 67.8661 634.128 68.7424 631.945 69.5843C629.778 70.4261 627.921 70.9416 627.818 70.7182C627.715 70.4949 629.417 69.6186 631.618 68.7596C633.819 67.9005 635.659 67.385 635.744 67.6256Z" fill="#00205C"/>
<path d="M648.158 64.5673C648.193 64.8078 647.299 65.1858 646.129 65.4092C644.977 65.6325 643.997 65.6153 643.946 65.3748C643.894 65.1343 644.805 64.7563 645.975 64.5329C647.127 64.3096 648.107 64.3268 648.158 64.5673Z" fill="#00205C"/>
<path d="M556.726 0.0612865L525.649 80.3625L644.863 126.433L675.94 46.132L556.726 0.0612865Z" fill="#79B5E3"/>
<path d="M644.874 126.489L644.84 126.472L525.586 80.3913L525.603 80.3569L556.672 0L556.706 0.0171813L675.96 46.0974L675.943 46.1318L644.874 126.489ZM525.672 80.3397L644.805 126.368L675.84 46.149L556.723 0.103088L525.672 80.3397Z" fill="#00205C"/>
<path d="M675.926 47.2314C675.943 47.2658 675.41 47.4891 674.395 47.8671C673.278 48.2795 671.799 48.8121 669.96 49.4822C665.971 50.891 660.383 52.8497 653.54 55.2551C639.527 60.0658 620.322 66.6463 599.071 73.9311L598.624 74.0858L598.383 73.6734C598.194 73.3642 598.005 73.0205 597.799 72.6769C586.399 53.0215 576.083 35.2217 568.535 22.2154C564.89 15.8068 561.916 10.5837 559.784 6.85536C558.821 5.10287 558.047 3.71118 557.463 2.64594C556.947 1.68379 556.689 1.16835 556.723 1.13399C556.758 1.11681 557.085 1.59788 557.669 2.52567C558.305 3.55655 559.148 4.91387 560.179 6.61482C562.38 10.3088 565.475 15.4632 569.258 21.7859C576.874 34.7578 587.293 52.4889 598.813 72.0756C599.019 72.4192 599.208 72.7628 599.398 73.0721L598.71 72.8144C620.013 65.6497 639.235 59.1896 653.299 54.4647C660.194 52.1968 665.816 50.3584 669.839 49.0354C671.713 48.4513 673.209 47.9702 674.361 47.6094C675.358 47.3517 675.908 47.197 675.926 47.2314Z" fill="#00205C"/>
<path d="M525.638 81.4737C525.483 81.1988 538.705 73.6562 555.176 64.636C571.647 55.6158 585.11 48.52 585.265 48.812C585.419 49.0869 572.198 56.6295 555.726 65.6669C539.255 74.6699 525.792 81.7486 525.638 81.4737Z" fill="#00205C"/>
<path d="M625.274 63.1068C625.583 63.0209 630.208 77.3673 635.607 95.1499C641.006 112.95 645.149 127.451 644.84 127.537C644.53 127.623 639.905 113.276 634.507 95.4936C629.108 77.6938 624.964 63.1927 625.274 63.1068Z" fill="#00205C"/>
<path d="M519.912 293.766C520.153 293.783 520.273 294.762 520.187 295.948C520.084 297.133 519.809 298.078 519.569 298.061C519.328 298.044 519.207 297.065 519.293 295.879C519.397 294.694 519.672 293.749 519.912 293.766Z" fill="#00205C"/>
<path d="M520.359 276.292C520.6 276.292 520.807 278.251 520.789 280.656C520.789 283.079 520.583 285.038 520.325 285.02C520.084 285.02 519.878 283.062 519.895 280.656C519.895 278.251 520.102 276.292 520.359 276.292Z" fill="#00205C"/>
<path d="M519.173 258.853C519.414 258.819 519.792 260.76 520.016 263.166C520.239 265.571 520.222 267.547 519.964 267.564C519.723 267.581 519.345 265.657 519.121 263.252C518.898 260.846 518.915 258.888 519.173 258.853Z" fill="#00205C"/>
<path d="M516.25 241.621C516.491 241.569 517.058 243.442 517.523 245.83C517.987 248.201 518.176 250.16 517.918 250.211C517.677 250.246 517.093 248.373 516.646 246.002C516.181 243.631 516.01 241.672 516.25 241.621Z" fill="#00205C"/>
<path d="M511.505 224.8C511.745 224.714 512.519 226.518 513.241 228.838C513.963 231.157 514.359 233.081 514.118 233.15C513.877 233.219 513.104 231.415 512.382 229.113C511.66 226.81 511.264 224.886 511.505 224.8Z" fill="#00205C"/>
<path d="M504.817 208.667C505.04 208.564 506.02 210.265 507.017 212.464C508.015 214.68 508.634 216.536 508.41 216.639C508.187 216.725 507.189 215.024 506.209 212.842C505.212 210.643 504.593 208.77 504.817 208.667Z" fill="#00205C"/>
<path d="M496.134 193.496C496.34 193.358 497.578 194.905 498.868 196.949C500.106 199.028 500.931 200.815 500.725 200.952C500.501 201.073 499.332 199.492 498.111 197.43C496.822 195.386 495.928 193.633 496.134 193.496Z" fill="#00205C"/>
<path d="M485.405 179.682C485.594 179.51 487.004 180.885 488.552 182.757C490.099 184.613 491.199 186.245 491.01 186.4C490.821 186.554 489.411 185.18 487.864 183.324C486.334 181.486 485.233 179.854 485.405 179.682Z" fill="#00205C"/>
<path d="M472.854 167.535C473.009 167.346 474.608 168.514 476.396 170.129C478.201 171.761 479.525 173.205 479.336 173.394C479.164 173.565 477.582 172.414 475.794 170.799C474.023 169.184 472.699 167.724 472.854 167.535Z" fill="#00205C"/>
<path d="M458.669 157.312C458.79 157.106 460.543 158.016 462.555 159.357C464.567 160.697 466.097 161.951 465.942 162.157C465.805 162.363 464.051 161.435 462.056 160.113C460.062 158.79 458.549 157.535 458.669 157.312Z" fill="#00205C"/>
<path d="M443.092 149.391C443.178 149.168 445.052 149.804 447.253 150.817C449.454 151.831 451.156 152.828 451.035 153.051C450.915 153.274 449.058 152.639 446.875 151.625C444.691 150.611 443.006 149.615 443.092 149.391Z" fill="#00205C"/>
<path d="M426.432 144.117C426.483 143.876 428.426 144.185 430.764 144.821C433.103 145.457 434.942 146.161 434.874 146.385C434.805 146.625 432.862 146.299 430.541 145.68C428.22 145.062 426.38 144.357 426.432 144.117Z" fill="#00205C"/>
<path d="M409.101 141.9C409.101 141.66 411.078 141.557 413.502 141.694C415.926 141.952 417.852 142.347 417.818 142.588C417.783 142.828 415.823 142.828 413.433 142.57C411.026 142.45 409.084 142.158 409.101 141.9Z" fill="#00205C"/>
<path d="M391.667 143.103C391.632 142.862 393.541 142.433 395.965 142.141C398.372 141.849 400.349 141.832 400.366 142.072C400.384 142.313 398.458 142.742 396.068 143.034C393.678 143.309 391.701 143.343 391.667 143.103Z" fill="#00205C"/>
<path d="M374.783 147.587C374.697 147.364 376.502 146.574 378.823 145.835C381.144 145.096 383.07 144.701 383.121 144.941C383.19 145.182 381.385 145.955 379.081 146.694C376.794 147.415 374.869 147.828 374.783 147.587Z" fill="#00205C"/>
<path d="M359.033 155.164C358.896 154.958 360.529 153.841 362.661 152.69C364.793 151.539 366.616 150.783 366.719 151.006C366.822 151.23 365.206 152.347 363.091 153.481C360.976 154.614 359.154 155.37 359.033 155.164Z" fill="#00205C"/>
<path d="M345.055 165.662C344.883 165.49 346.259 164.081 348.133 162.518C350.007 160.954 351.64 159.855 351.778 160.061C351.933 160.267 350.557 161.659 348.7 163.205C346.86 164.734 345.227 165.834 345.055 165.662Z" fill="#00205C"/>
<path d="M333.622 178.84C333.415 178.703 334.361 176.95 335.84 175.026C337.335 173.102 338.78 171.761 338.969 171.916C339.158 172.088 338.023 173.669 336.544 175.576C335.083 177.483 333.845 178.978 333.622 178.84Z" fill="#00205C"/>
<path d="M327.243 190.197C327.019 190.094 327.26 189.149 327.776 188.066C328.292 186.984 328.893 186.211 329.117 186.331C329.34 186.451 329.1 187.396 328.584 188.462C328.085 189.51 327.483 190.283 327.243 190.197Z" fill="#00205C"/>
<path d="M218.013 291.584C217.996 291.343 218.924 291.017 220.093 290.879C221.262 290.742 222.242 290.828 222.277 291.068C222.328 291.309 221.383 291.618 220.196 291.773C218.993 291.91 218.013 291.824 218.013 291.584Z" fill="#00205C"/>
<path d="M200.974 289.659C201.043 289.419 202.934 289.814 205.238 290.295C207.542 290.776 209.416 291.171 209.399 291.429C209.382 291.67 207.404 291.67 205.049 291.171C202.693 290.673 200.905 289.883 200.974 289.659Z" fill="#00205C"/>
<path d="M185.586 282.048C185.724 281.842 187.408 282.787 189.437 284.007C191.466 285.227 193.1 286.24 192.979 286.464C192.876 286.687 191.036 286.017 188.973 284.78C186.91 283.543 185.448 282.254 185.586 282.048Z" fill="#00205C"/>
<path d="M172.794 270.571C172.983 270.399 174.393 271.722 176.061 273.406C177.729 275.09 179.018 276.516 178.863 276.687C178.709 276.876 177.11 275.725 175.425 274.024C173.722 272.323 172.605 270.726 172.794 270.571Z" fill="#00205C"/>
<path d="M162.684 256.654C162.891 256.534 164.129 258.029 165.418 260.004C166.708 261.98 167.602 263.698 167.412 263.853C167.206 264.008 165.985 262.496 164.679 260.503C163.355 258.492 162.461 256.774 162.684 256.654Z" fill="#00205C"/>
<path d="M155.257 241.139C155.48 241.054 156.426 242.755 157.354 244.919C158.283 247.101 158.85 248.94 158.627 249.06C158.403 249.163 157.457 247.479 156.529 245.28C155.583 243.064 155.016 241.225 155.257 241.139Z" fill="#00205C"/>
<path d="M150.305 224.645C150.546 224.594 151.233 226.398 151.835 228.7C152.437 230.985 152.729 232.91 152.489 232.978C152.248 233.047 151.56 231.243 150.958 228.924C150.357 226.621 150.064 224.697 150.305 224.645Z" fill="#00205C"/>
<path d="M147.313 207.687C147.554 207.653 148.053 209.526 148.397 211.88C148.758 214.234 148.844 216.158 148.603 216.209C148.362 216.261 147.881 214.371 147.52 212.017C147.159 209.663 147.073 207.722 147.313 207.687Z" fill="#00205C"/>
<path d="M145.663 190.541C145.903 190.523 146.265 192.43 146.454 194.801C146.643 197.172 146.608 199.114 146.351 199.131C146.11 199.148 145.749 197.258 145.56 194.87C145.37 192.499 145.422 190.558 145.663 190.541Z" fill="#00205C"/>
<path d="M144.958 177.655C145.199 177.637 145.456 178.599 145.508 179.785C145.56 180.971 145.405 181.933 145.164 181.95C144.923 181.967 144.666 181.005 144.614 179.819C144.545 178.634 144.7 177.655 144.958 177.655Z" fill="#00205C"/>
<path d="M209.683 73.4844L66.7219 80.2205L71.2657 176.519L214.226 169.783L209.683 73.4844Z" fill="#79B5E3"/>
<path d="M71.2152 176.555V176.503L66.6761 80.1679H66.7277L209.743 73.4329V73.4844L214.282 169.82H214.23L71.2152 176.555ZM66.7621 80.2538L71.3012 176.469L214.179 169.734L209.64 73.5188L66.7621 80.2538Z" fill="#00205C"/>
<path d="M210.19 74.6184C210.224 74.6528 209.777 75.1167 208.917 75.9585C207.955 76.8863 206.682 78.1062 205.101 79.6353C201.645 82.8826 196.813 87.4185 190.899 92.9852C178.709 104.256 162.048 119.668 143.565 136.763L143.17 137.124L142.74 136.815C142.413 136.574 142.052 136.316 141.691 136.059C121.128 121.059 102.507 107.503 88.8901 97.5898C82.2534 92.6759 76.8375 88.6727 72.969 85.8206C71.1808 84.4633 69.7538 83.3809 68.6878 82.5733C67.7078 81.8174 67.2092 81.405 67.2435 81.3706C67.2779 81.3363 67.8109 81.6799 68.8425 82.3672C69.9601 83.1403 71.4387 84.154 73.2784 85.4254C77.2157 88.2088 82.7004 92.0918 89.4403 96.8682C103.109 106.696 121.816 120.149 142.482 135.011C142.843 135.268 143.204 135.526 143.531 135.767L142.706 135.818C161.274 118.843 178.038 103.535 190.297 92.3323C196.332 86.8858 201.266 82.4702 204.791 79.2917C206.442 77.8313 207.766 76.6801 208.763 75.8039C209.674 74.9792 210.173 74.584 210.19 74.6184Z" fill="#00205C"/>
<path d="M71.7826 177.637C71.4903 177.414 81.6344 163.721 94.4092 147.02C107.184 130.337 117.775 116.987 118.067 117.194C118.36 117.417 108.233 131.11 95.4408 147.811C82.6488 164.511 72.0577 177.861 71.7826 177.637Z" fill="#00205C"/>
<path d="M165.504 113.775C165.779 113.534 177.024 126.145 190.606 141.917C204.206 157.707 215.004 170.679 214.729 170.919C214.454 171.16 203.226 158.549 189.626 142.777C176.044 126.987 165.246 113.998 165.504 113.775Z" fill="#00205C"/>
</svg>
